<?xml version="1.0" standalone="no"?>
<!DOCTYPE svg PUBLIC "-//W3C//DTD SVG 1.1//EN" "http://www.w3.org/Graphics/SVG/1.1/DTD/svg11.dtd" >
<svg xmlns="http://www.w3.org/2000/svg" xmlns:xlink="http://www.w3.org/1999/xlink" version="1.1">
<metadata></metadata>
<defs>
<font id="markregular" horiz-adv-x="1228" >
<font-face units-per-em="2048" ascent="1618" descent="-430" />
<missing-glyph horiz-adv-x="546" />
<glyph unicode="&#x2e;&#x2e;&#x2e;" horiz-adv-x="1507" d="M54 111q0 52 38.5 90t90.5 38t89.5 -38t37.5 -90t-37.5 -90.5t-89.5 -38.5t-90.5 38.5t-38.5 90.5zM550 111q0 52 38 90t90 38t90 -38t38 -90t-38 -90.5t-90 -38.5t-90 38.5t-38 90.5zM1044 111q0 52 38 90t90 38t90 -38t38 -90t-38 -90.5t-90 -38.5t-90 38.5t-38 90.5z " />
<glyph horiz-adv-x="0" />
<glyph horiz-adv-x="682" />
<glyph unicode=" "  horiz-adv-x="546" />
<glyph unicode="&#x09;" horiz-adv-x="546" />
<glyph unicode="&#xa0;" horiz-adv-x="546" />
<glyph unicode="!" horiz-adv-x="518" d="M58 111q0 52 38 90t90 38t90 -38t38 -90t-38 -90.5t-90 -38.5t-90 38.5t-38 90.5zM189 456l178 978h187l-233 -978h-132z" />
<glyph unicode="&#x22;" horiz-adv-x="1045" d="M376 955l110 520h153l-111 -520h-152zM718 955l110 520h153l-111 -520h-152z" />
<glyph unicode="#" horiz-adv-x="1427" d="M97 384l45 136h236l135 401h-237l47 136h235l127 377h143l-127 -377h354l127 377h143l-127 -377h234l-47 -136h-232l-135 -401h232l-45 -136h-232l-129 -384h-144l129 384h-353l-129 -384h-143l129 384h-236zM521 520h353l136 401h-354z" />
<glyph unicode="$" horiz-adv-x="1433" d="M157 195l93 127q126 -119 346 -155l102 484l-12 2q-173 29 -269 117t-96 227q0 82 31.5 157t92.5 136.5t162.5 98t228.5 36.5h26l41 193h143l-45 -206q199 -33 356 -147l-88 -127q-135 97 -299 126l-103 -484q175 -31 278.5 -115.5t103.5 -229.5q0 -184 -147.5 -305 t-398.5 -121l-41 -200h-142l45 211q-243 34 -408 175zM487 1018q0 -87 59.5 -138t184.5 -75l99 472h-4q-88 0 -155.5 -23t-106 -61t-58 -82.5t-19.5 -92.5zM735 158q160 6 254.5 79t94.5 180q0 82 -61 132.5t-188 76.5z" />
<glyph unicode="%" horiz-adv-x="2018" d="M218 1054q0 165 113 282t280 117q150 0 247 -96t97 -246q0 -164 -113 -281t-278 -117q-152 0 -249 95.5t-97 245.5zM362 1062q0 -94 58.5 -154t149.5 -60q105 0 173.5 74.5t68.5 180.5q0 95 -58.5 155t-150.5 60q-104 0 -172.5 -75t-68.5 -181zM434 0l1080 1434h170 l-1080 -1434h-170zM1162 322q0 164 113 281t279 117q151 0 248.5 -95.5t97.5 -245.5q0 -165 -113.5 -282t-279.5 -117q-151 0 -248 96t-97 246zM1306 330q0 -95 58 -155t150 -60q104 0 172.5 75t68.5 181q0 94 -58.5 154t-149.5 60q-104 0 -172.5 -75t-68.5 -180z" />
<glyph unicode="&#x26;" horiz-adv-x="1415" d="M78 315q0 82 30 152t88 127t116.5 98t142.5 88q-71 97 -102.5 169t-31.5 147q0 70 23.5 133t68 113.5t117 80.5t163.5 30q148 0 244 -82t96 -206q0 -58 -21 -110.5t-51.5 -92t-82 -81.5t-96 -70t-109.5 -66l249 -312l270 335l111 -80l-294 -364l259 -324h-200l-162 204 q-99 -105 -203 -164t-235 -59q-173 0 -281.5 90.5t-108.5 243.5zM240 330q0 -93 68.5 -151.5t175.5 -58.5q95 0 173.5 47.5t163.5 144.5l-282 358q-70 -40 -116.5 -72.5t-92 -74.5t-68 -90.5t-22.5 -102.5zM479 1092q0 -45 24.5 -98t87.5 -140q68 37 111 65t86 65t64 78.5 t21 87.5q0 73 -50 117.5t-138 44.5q-98 0 -152 -63t-54 -157z" />
<glyph unicode="'" horiz-adv-x="703" d="M376 955l110 520h153l-111 -520h-152z" />
<glyph unicode="(" horiz-adv-x="774" d="M143 412q0 168 48 335t133.5 308.5t211.5 249t274 155.5l52 -137q-164 -54 -292 -198t-195 -330.5t-67 -380.5q0 -366 251 -570l-79 -132q-337 254 -337 700z" />
<glyph unicode=")" horiz-adv-x="774" d="M-46 -158q123 40 228.5 134t176 218t110 269t39.5 289q0 365 -251 569l79 132q337 -254 337 -699q0 -167 -48 -334.5t-133 -309.5t-211.5 -250.5t-274.5 -154.5z" />
<glyph unicode="*" horiz-adv-x="901" d="M237 1210l57 108l241 -113l57 270h118l-61 -283l275 58l12 -114l-276 -58l106 -222l-104 -58l-106 221l-198 -197l-80 79l197 198z" />
<glyph unicode="+" d="M155 472l28 139h373l81 377h141l-81 -377h377l-30 -139h-376l-79 -374h-142l79 374h-371z" />
<glyph unicode="," horiz-adv-x="494" d="M-34 -265l171 519h178l-207 -519h-142z" />
<glyph unicode="-" horiz-adv-x="835" d="M135 472l30 139h559l-30 -139h-559z" />
<glyph unicode="." horiz-adv-x="517" d="M54 110q0 52 38 90t90 38t90 -38t38 -90t-38 -90.5t-90 -38.5t-90 38.5t-38 90.5z" />
<glyph unicode="/" horiz-adv-x="1015" d="M-119 -205l1089 1782h174l-1089 -1782h-174z" />
<glyph unicode="0" d="M110 489q0 147 28.5 287.5t85 262.5t134.5 214.5t185 145.5t228 53q206 0 326.5 -133t120.5 -375q0 -185 -46 -357t-128.5 -307t-209.5 -216.5t-278 -81.5q-206 0 -326 132.5t-120 374.5zM273 505q0 -181 76.5 -276.5t211.5 -95.5q112 0 207 70t156.5 184t96 255 t34.5 287q0 181 -76.5 276t-211.5 95q-113 0 -208 -70t-156.5 -183.5t-95.5 -254.5t-34 -287z" />
<glyph unicode="1" d="M93 0l32 151h383l229 1083l-436 -133l35 165l606 185l-276 -1300h394l-32 -151h-935z" />
<glyph unicode="2" d="M93 0l26 123l622 557q129 114 185.5 201t56.5 183q0 97 -67 167.5t-191 70.5q-96 0 -180.5 -50t-144.5 -130l-103 99q69 96 185 163.5t253 67.5q101 0 181.5 -31.5t130 -84.5t75.5 -119.5t26 -139.5q0 -132 -72.5 -247t-219.5 -245l-491 -434h644l-32 -151h-884z" />
<glyph unicode="3" d="M79 161l108 103q55 -65 143.5 -100t190.5 -35q175 0 271 88t96 216q0 101 -77.5 159.5t-205.5 58.5h-180l32 145h166q165 0 270 88.5t105 205.5q0 95 -75 155t-193 60q-106 0 -192.5 -47t-147.5 -121l-99 107q169 208 454 208q190 0 304 -95.5t114 -246.5 q0 -129 -76.5 -234.5t-214.5 -157.5q84 -43 130.5 -115.5t46.5 -167.5q0 -124 -62.5 -226t-184.5 -164.5t-283 -62.5q-148 0 -261.5 47t-178.5 132z" />
<glyph unicode="4" d="M56 301l27 128l699 1004h187l-685 -982h460l86 399h158l-86 -399h245l-32 -150h-245l-63 -301h-158l64 301h-657z" />
<glyph unicode="5" d="M85 204l119 93q120 -166 345 -166q141 0 237.5 73.5t117.5 194.5q6 49 4 94t-25 85t-60 69.5t-101 46.5t-147 17h-309l171 723h751l-32 -150h-604l-103 -424h165q134 0 232 -39.5t149.5 -106.5t69.5 -150.5t1 -176.5q-25 -136 -103.5 -229.5t-185 -135t-234.5 -41.5 q-146 0 -264 56t-194 167z" />
<glyph unicode="6" d="M104 418q0 184 149 368l512 648h199l-442 -547q66 28 141 28q191 0 323.5 -123t132.5 -309q0 -136 -67.5 -250t-190 -182t-273.5 -68q-135 0 -245 53.5t-174.5 153.5t-64.5 228zM269 425q0 -131 91.5 -213.5t236.5 -82.5q156 0 257 100.5t101 244.5q0 132 -92.5 213 t-232.5 81q-158 0 -259.5 -99.5t-101.5 -243.5z" />
<glyph unicode="7" d="M252 0l808 1284h-771l32 150h953l-24 -130l-810 -1304h-188z" />
<glyph unicode="8" d="M71 332q0 141 91 247.5t256 152.5q-85 41 -133 109.5t-48 158.5t37.5 171t105.5 144t173.5 100t232.5 37q115 0 215.5 -41t165.5 -123t65 -188q0 -129 -88.5 -232.5t-244.5 -152.5q100 -43 157 -116.5t57 -169.5q0 -192 -159 -320t-413 -128q-126 0 -232 41t-172 122.5 t-66 187.5zM239 353q0 -103 89 -164t221 -61q179 0 289 85t110 213q0 103 -89.5 165t-225.5 62q-179 0 -286.5 -86t-107.5 -214zM402 1009q0 -100 78.5 -158.5t204.5 -58.5q170 0 275 83.5t105 205.5q0 102 -85 163t-204 61q-173 0 -273.5 -85t-100.5 -211z" />
<glyph unicode="9" d="M208 950q0 101 40 193t109.5 160t169 108t212.5 40q135 0 245 -53.5t174.5 -153.5t64.5 -228q0 -183 -149 -369l-511 -647h-198l440 546q-67 -28 -140 -28q-124 0 -228.5 55t-166.5 154.5t-62 222.5zM373 959q0 -132 92.5 -212.5t232.5 -80.5q158 0 259.5 99.5 t101.5 243.5q0 130 -92 213t-237 83q-155 0 -256 -101t-101 -245z" />
<glyph unicode=":" horiz-adv-x="517" d="M51 111q0 52 38 90t90 38t90 -38t38 -90t-38 -90.5t-90 -38.5t-90 38.5t-38 90.5zM211 861q0 52 38 90t90 38t90 -38t38 -90t-38 -90.5t-90 -38.5t-90 38.5t-38 90.5z" />
<glyph unicode=";" horiz-adv-x="494" d="M-34 -265l171 519h178l-207 -519h-142zM188 861q0 52 38.5 90t90.5 38t89.5 -38t37.5 -90t-37.5 -90.5t-89.5 -38.5t-90.5 38.5t-38.5 90.5z" />
<glyph unicode="&#x3c;" d="M205 467l32 150l886 381l-37 -175l-710 -293l586 -292l-33 -152z" />
<glyph unicode="=" d="M126 283l30 139h891l-30 -139h-891zM206 662l31 139h889l-29 -139h-891z" />
<glyph unicode="&#x3e;" d="M138 86l37 175l711 293l-586 293l33 151l724 -381l-32 -150z" />
<glyph unicode="?" horiz-adv-x="862" d="M83 110q0 52 38 90t90 38t90 -38t38 -90t-38 -90.5t-90 -38.5t-90 38.5t-38 90.5zM205 456l67 321h84q182 0 276 74t94 200q0 115 -101.5 178.5t-265.5 63.5q-32 0 -70 -2l6 156q47 5 93 5q224 0 367.5 -104.5t143.5 -276.5q0 -189 -131.5 -306t-378.5 -131l-46 -178 h-138z" />
<glyph unicode="@" horiz-adv-x="1960" d="M161 417q0 185 69 353t189 292t292 197.5t367 73.5q211 0 380 -85t266.5 -243t97.5 -361q0 -157 -48 -282.5t-134.5 -197t-195.5 -71.5q-86 0 -141.5 41.5t-78.5 105.5q-116 -136 -292 -136q-160 0 -261.5 100t-101.5 258q0 122 56 227t155.5 168t217.5 63 q100 0 174 -41.5t113 -117.5l31 143h130l-100 -466q-11 -50 -11 -84q0 -68 32.5 -104t86.5 -36q101 0 165 121.5t64 305.5q0 256 -172 413t-443 157q-131 0 -251 -40.5t-213 -114t-161.5 -171t-105 -216.5t-36.5 -246q0 -141 47.5 -258.5t131 -195.5t197 -121t245.5 -43 q223 0 395 118l62 -99q-203 -141 -469 -141q-159 0 -297.5 53.5t-238 148.5t-156.5 232.5t-57 299.5zM706 471q0 -109 67 -176.5t172 -67.5q127 0 214.5 96t87.5 229q0 108 -67.5 175.5t-173.5 67.5q-126 0 -213 -96t-87 -228z" />
<glyph unicode="A" horiz-adv-x="1455" d="M-58 0l883 1434h204l279 -1434h-169l-76 399h-699l-244 -399h-178zM459 555h574l-135 716z" />
<glyph unicode="B" horiz-adv-x="1406" d="M94 0l305 1434h528q202 0 325 -87.5t123 -249.5q0 -130 -74.5 -233.5t-207.5 -142.5q105 -43 155 -137q33 -62 33 -138q0 -39 -8 -80q-19 -88 -57.5 -152.5t-90 -105.5t-125 -65t-153 -33.5t-184.5 -9.5h-569zM295 155h392q183 0 285 49t130 172q8 38 8 71q0 89 -61 137 q-84 66 -255 66h-394zM433 804h369q209 0 307 76t98 201q0 103 -86 150.5t-226 47.5h-360z" />
<glyph unicode="C" horiz-adv-x="1516" d="M165 652q0 169 61 317.5t166 254.5t252 167.5t313 61.5q52 0 103.5 -6t118.5 -25t126 -49.5t119 -84t103 -124.5l-126 -100q-70 117 -192.5 174t-261.5 57q-169 0 -309 -83t-220.5 -227.5t-80.5 -318.5q0 -231 147 -379.5t369 -148.5q122 0 231.5 51t187.5 141l108 -106 q-103 -118 -240.5 -181t-296.5 -63q-193 0 -347.5 85t-242.5 239t-88 348z" />
<glyph unicode="D" horiz-adv-x="1590" d="M94 0l305 1434h471q310 0 487 -162t177 -437q0 -174 -60.5 -325.5t-173 -265t-286 -179t-386.5 -65.5h-534zM295 156h351q169 0 305.5 51t225 140.5t136 210t47.5 261.5q0 212 -130 335.5t-378 123.5h-318z" />
<glyph unicode="E" horiz-adv-x="1337" d="M94 0l305 1434h979l-32 -155h-811l-103 -480h792l-33 -154h-792l-104 -490h824l-33 -155h-992z" />
<glyph unicode="F" horiz-adv-x="1287" d="M94 0l305 1434h972l-34 -156h-803l-102 -478h785l-34 -156h-784l-137 -644h-168z" />
<glyph unicode="G" horiz-adv-x="1650" d="M163 640q0 171 62 322.5t168.5 258.5t253.5 169t311 62q58 0 119 -10t135 -33.5t146.5 -74.5t126.5 -122l-123 -111q-75 97 -186 145t-231 48q-168 0 -307.5 -81.5t-221 -228.5t-81.5 -329q0 -232 145 -374t375 -142q215 0 356.5 123.5t182.5 343.5h-446l32 153h606 q0 -30 -4 -63q-39 -320 -241 -517t-501 -197q-192 0 -346.5 83.5t-242.5 234t-88 340.5z" />
<glyph unicode="H" horiz-adv-x="1583" d="M94 0l305 1434h168l-135 -634h853l135 634h168l-306 -1434h-168l137 644h-852l-137 -644h-168z" />
<glyph unicode="I" horiz-adv-x="562" d="M94 0l305 1434h168l-305 -1434h-168z" />
<glyph unicode="J" horiz-adv-x="1124" d="M-10 190l120 108q45 -69 127 -114.5t178 -45.5q284 0 362 380l191 916h167l-198 -954q-103 -499 -528 -499q-132 0 -243 56.5t-176 152.5z" />
<glyph unicode="K" horiz-adv-x="1383" d="M94 0l305 1434h168l-135 -635h151l684 635h221l-780 -711l567 -723h-200l-502 643h-175l-136 -643h-168z" />
<glyph unicode="L" horiz-adv-x="1212" d="M94 0l305 1434h168l-272 -1278h808l-34 -156h-975z" />
<glyph unicode="M" horiz-adv-x="1867" d="M94 0l305 1434h242l264 -1087l711 1087h257l-305 -1434h-167l263 1234l-698 -1075h-173l-268 1080l-264 -1239h-167z" />
<glyph unicode="N" horiz-adv-x="1585" d="M94 0l305 1434h155l618 -1175l250 1175h168l-306 -1434h-152l-620 1175l-251 -1175h-167z" />
<glyph unicode="O" horiz-adv-x="1702" d="M163 643q0 218 100.5 403t283.5 296t409 111q192 0 347 -81t245.5 -233t90.5 -348q0 -164 -59.5 -312.5t-163 -258.5t-252 -175t-318.5 -65q-193 0 -347.5 80.5t-245 233t-90.5 349.5zM335 655q0 -233 147.5 -375t376.5 -142q175 0 315.5 89t216.5 235t76 316 q0 154 -68.5 272.5t-187.5 181.5t-268 63q-131 0 -246 -52.5t-193.5 -140t-123.5 -204t-45 -243.5z" />
<glyph unicode="P" horiz-adv-x="1315" d="M94 0l305 1434h479q216 0 334.5 -100t118.5 -271q0 -217 -153 -351.5t-435 -134.5h-358l-123 -577h-168zM418 731h333q205 0 307 86.5t102 230.5q0 113 -75.5 171.5t-222.5 58.5h-328z" />
<glyph unicode="Q" horiz-adv-x="1719" d="M163 643q0 218 100.5 403t283.5 296t409 111q192 0 347 -81t245.5 -233t90.5 -348q0 -302 -180 -524l187 -267h-186l-111 157q-214 -177 -503 -177q-193 0 -347.5 80.5t-245 233t-90.5 349.5zM335 655q0 -233 147.5 -375t376.5 -142q231 0 396 151l-279 400h188l195 -278 q108 164 108 367q0 154 -68.5 272.5t-187.5 181.5t-268 63q-131 0 -246 -52.5t-193.5 -140t-123.5 -204t-45 -243.5z" />
<glyph unicode="R" horiz-adv-x="1357" d="M94 0l305 1434h513q212 0 330 -98t118 -256q0 -68 -18.5 -131.5t-61 -123t-104.5 -104t-156.5 -71t-210.5 -26.5h-66l456 -624h-197l-441 624h-167l-132 -624h-168zM426 773h388q193 0 283 81.5t90 208.5q0 100 -75 157.5t-216 57.5h-362z" />
<glyph unicode="S" horiz-adv-x="1355" d="M76 173l98 133q95 -87 231 -128.5t246 -41.5q184 0 293 75.5t109 192.5q0 89 -72.5 143t-222.5 80l-125 21q-182 31 -283 122.5t-101 236.5q0 85 33.5 163t98.5 142t173 102.5t244 38.5q312 0 540 -167l-92 -133q-206 144 -459 144q-94 0 -166.5 -23.5t-114.5 -63 t-62.5 -86t-20.5 -96.5q0 -91 66 -144.5t203 -77.5l122 -22q411 -73 411 -361q0 -193 -156.5 -318t-424.5 -125q-82 0 -172.5 15.5t-202 61.5t-193.5 116z" />
<glyph unicode="T" horiz-adv-x="1215" d="M208 1278l34 156h1135l-32 -156h-481l-271 -1278h-168l271 1278h-488z" />
<glyph unicode="U" horiz-adv-x="1506" d="M178 420q0 67 19 154l183 860h168l-183 -855q-15 -65 -15 -133q0 -157 94 -232.5t254 -75.5q182 0 309 105.5t172 322.5l184 868h168l-188 -881q-63 -295 -234.5 -433.5t-429.5 -138.5q-105 0 -194.5 27t-158.5 79.5t-108.5 137.5t-39.5 195z" />
<glyph unicode="V" horiz-adv-x="1430" d="M247 1434h167l234 -1272l763 1272h177l-866 -1434h-203z" />
<glyph unicode="W" horiz-adv-x="2242" d="M273 1434h167l135 -1254l658 1254h180l135 -1248l652 1248h174l-759 -1434h-198l-135 1210l-639 -1210h-205z" />
<glyph unicode="X" horiz-adv-x="1381" d="M-39 0l680 732l-358 702h183l290 -576l532 576h207l-662 -711l373 -723h-183l-304 597l-552 -597h-206z" />
<glyph unicode="Y" horiz-adv-x="1304" d="M215 1434h177l310 -673l583 673h208l-734 -835l-127 -599h-168l130 615z" />
<glyph unicode="Z" horiz-adv-x="1336" d="M47 0l30 138l1071 1140h-860l33 156h1081l-28 -131l-1074 -1147h868l-33 -156h-1088z" />
<glyph unicode="[" horiz-adv-x="755" d="M37 -269l362 1703h480l-30 -142h-323l-302 -1420h323l-31 -141h-479z" />
<glyph unicode="\" horiz-adv-x="1773" d="M337 1577h174l1088 -1782h-174z" />
<glyph unicode="]" horiz-adv-x="755" d="M-82 -269l30 141h321l302 1420h-321l31 142h479l-363 -1703h-479z" />
<glyph unicode="_" horiz-adv-x="959" d="M-167 -279l29 140h969l-28 -140h-970z" />
<glyph unicode="a" horiz-adv-x="1242" d="M86 413q0 114 43 219.5t116 184t177 125.5t219 47q125 0 212.5 -52.5t130.5 -143.5l38 177h153l-207 -970h-152l27 124q-136 -143 -339 -143q-181 0 -299.5 123t-118.5 309zM244 429q0 -132 80 -218t215 -86q148 0 256.5 100.5t131.5 253.5q5 34 5 66q0 113 -64 195 q-82 105 -231 105q-164 0 -278.5 -122.5t-114.5 -293.5z" />
<glyph unicode="b" horiz-adv-x="1241" d="M67 0l313 1475h154l-131 -612q129 126 321 126q187 0 309.5 -122.5t122.5 -309.5q0 -114 -43 -219.5t-116 -184t-176.5 -125.5t-218.5 -47q-125 0 -214 53t-129 144l-39 -178h-153zM315 490q-5 -34 -5 -65q0 -113 65 -195q83 -105 231 -105q163 0 277.5 122.5 t114.5 293.5q0 132 -80 218t-215 86q-147 0 -257 -101t-131 -254z" />
<glyph unicode="c" horiz-adv-x="1035" d="M90 437q0 149 70.5 275.5t196 201t278.5 74.5q257 0 383 -184l-120 -86q-101 127 -270 127q-159 0 -269.5 -117t-110.5 -281q0 -139 87.5 -230t217.5 -91q155 0 268 108l88 -100q-145 -151 -362 -151q-203 0 -330 129.5t-127 324.5z" />
<glyph unicode="d" horiz-adv-x="1242" d="M86 413q0 114 43 219.5t116 184t176.5 125.5t218.5 47q125 0 212.5 -52.5t130.5 -143.5l145 682h154l-313 -1475h-153l27 124q-136 -143 -340 -143q-180 0 -298.5 123t-118.5 309zM244 429q0 -132 80 -218t215 -86q148 0 256.5 100.5t131.5 253.5q5 34 5 66 q0 113 -64 195q-82 105 -231 105q-164 0 -278.5 -122.5t-114.5 -293.5z" />
<glyph unicode="e" horiz-adv-x="1104" d="M83 401q0 81 22.5 163.5t68.5 159t110 135.5t154.5 94.5t194.5 35.5q180 0 289.5 -105t109.5 -280q0 -89 -30 -173h-763v-23q0 -134 80 -214t222 -80q166 0 299 110l76 -105q-87 -72 -180 -105.5t-212 -33.5q-206 0 -323.5 117.5t-117.5 303.5zM260 555h618q3 23 3 45 q0 118 -70 185.5t-186 67.5q-143 0 -235.5 -85t-129.5 -213z" />
<glyph unicode="f" horiz-adv-x="848" d="M125 831l30 139h218l41 192q34 161 124 246.5t231 85.5q146 0 244 -81l-75 -119q-75 57 -170 57q-74 0 -127.5 -52t-76.5 -157l-37 -172h363l-29 -139h-363l-177 -831h-155l177 831h-218z" />
<glyph unicode="g" horiz-adv-x="1240" d="M22 -271l87 116q140 -126 345 -126q139 0 241 93t133 250l12 60q-127 -124 -312 -124q-195 0 -317.5 120.5t-122.5 303.5q0 154 72.5 284.5t199 206.5t277.5 76q127 0 215 -52.5t130 -144.5l39 178h151l-192 -908q-49 -231 -189.5 -355.5t-338.5 -124.5q-254 0 -430 147z M247 436q0 -129 81 -212t210 -83q158 0 267 105.5t121 270.5q1 15 1 30q0 121 -73 205q-83 93 -219 93q-166 0 -277 -117t-111 -292z" />
<glyph unicode="h" horiz-adv-x="1207" d="M67 0l314 1475h153l-133 -624q126 138 320 138q163 0 257 -92.5t94 -241.5q0 -55 -11 -106l-118 -549h-153l116 548q10 41 10 84q0 96 -57.5 154t-172.5 58q-131 0 -225.5 -81.5t-126.5 -234.5l-113 -528h-154z" />
<glyph unicode="i" horiz-adv-x="495" d="M67 0l206 970h155l-207 -970h-154zM314 1314q0 46 31.5 77t76.5 31q46 0 77.5 -31t31.5 -77t-31.5 -77t-77.5 -31q-45 0 -76.5 31t-31.5 77z" />
<glyph unicode="j" horiz-adv-x="502" d="M-245 -384l57 126q40 -23 89 -23q54 0 91.5 34.5t51.5 100.5l237 1116h154l-241 -1136q-27 -128 -101.5 -193.5t-182.5 -65.5q-93 0 -155 41zM322 1314q0 46 31 77t76 31q46 0 78 -31t32 -77t-32 -77t-78 -31q-45 0 -76 31t-31 77z" />
<glyph unicode="k" horiz-adv-x="1052" d="M67 0l313 1475h155l-192 -898h133l422 393h200l-516 -472l342 -498h-173l-293 437h-145l-92 -437h-154z" />
<glyph unicode="l" horiz-adv-x="494" d="M67 0l313 1475h155l-314 -1475h-154z" />
<glyph unicode="m" horiz-adv-x="1931" d="M67 0l206 970h153l-26 -121q126 140 321 140q123 0 208 -53t120 -145q73 103 177 150.5t219 47.5q163 0 257 -92.5t94 -241.5q0 -55 -11 -106l-119 -549h-154l117 548q10 41 10 84q0 96 -58 154t-174 58q-131 0 -225.5 -81.5t-126.5 -234.5l-113 -528h-152l116 548 q9 48 9 91.5t-15 80.5t-41 65t-71 43.5t-103 15.5q-131 0 -225.5 -81.5t-126.5 -234.5l-113 -528h-153z" />
<glyph unicode="n" horiz-adv-x="1207" d="M67 0l206 970h153l-26 -121q126 140 321 140q163 0 257 -92.5t94 -241.5q0 -55 -11 -106l-118 -549h-153l116 548q10 41 10 84q0 96 -58 154t-173 58q-131 0 -225.5 -81.5t-126.5 -234.5l-113 -528h-153z" />
<glyph unicode="o" horiz-adv-x="1198" d="M90 436q0 149 71.5 276t198.5 202t281 75q207 0 337.5 -128.5t130.5 -326.5q0 -149 -72 -276.5t-199 -202.5t-281 -75q-205 0 -336 128.5t-131 327.5zM247 445q0 -140 89.5 -230.5t229.5 -90.5q164 0 275 117t111 282q0 142 -90 232.5t-233 90.5q-161 0 -271.5 -118 t-110.5 -283z" />
<glyph unicode="p" horiz-adv-x="1240" d="M-20 -410l293 1380h153l-27 -124q136 143 339 143q181 0 299 -122.5t118 -309.5q0 -114 -43 -219.5t-116 -184t-176.5 -125.5t-218.5 -47q-125 0 -214.5 53t-128.5 143l-124 -587h-154zM315 490q-5 -34 -5 -66q0 -113 64 -194q82 -105 231 -105q164 0 278.5 122.5 t114.5 293.5q0 132 -80 218t-215 86q-148 0 -257.5 -101t-130.5 -254z" />
<glyph unicode="q" horiz-adv-x="1242" d="M86 413q0 114 43 219.5t116 184t177 125.5t219 47q125 0 212.5 -52.5t130.5 -143.5l38 177h153l-294 -1380h-155l110 512q-129 -121 -318 -121q-187 0 -309.5 123t-122.5 309zM244 429q0 -132 80 -218t215 -86q148 0 256.5 100.5t131.5 253.5q5 34 5 66q0 113 -64 195 q-82 105 -231 105q-164 0 -278.5 -122.5t-114.5 -293.5z" />
<glyph unicode="r" horiz-adv-x="823" d="M67 0l206 970h153l-25 -114q118 133 297 133q99 0 173 -40l-58 -144q-59 39 -149 39q-121 0 -209.5 -81t-121.5 -238l-113 -525h-153z" />
<glyph unicode="s" horiz-adv-x="975" d="M12 115l85 113q140 -113 336 -113q113 0 183.5 39t78.5 111q1 7 1 14q0 108 -175 134l-89 13q-158 24 -228 98q-60 63 -61 153q0 15 2 31q16 133 124 206.5t276 73.5q246 0 399 -107l-80 -117q-58 38 -146.5 64.5t-173.5 26.5q-103 0 -167.5 -36.5t-72.5 -102.5 q-1 -10 -1 -20q1 -54 37 -84q44 -36 136 -49l87 -13q157 -24 229 -98q61 -62 62 -152q0 -16 -2 -33q-14 -130 -127 -207.5t-290 -77.5q-112 0 -227.5 35.5t-195.5 97.5z" />
<glyph unicode="t" horiz-adv-x="911" d="M125 831l30 139h207l66 308h154l-66 -308h403l-30 -139h-403l-99 -472q-9 -42 -9 -76q0 -61 28 -99q44 -60 133 -60q101 0 204 70l64 -118q-130 -95 -286 -95q-167 1 -247 101q-54 67 -54 170q0 51 13 112l100 467h-208z" />
<glyph unicode="u" horiz-adv-x="1193" d="M135 319q0 51 12 111l116 540h155l-117 -547q-10 -43 -10 -87q0 -106 65 -159t172 -53q125 0 216.5 76.5t122.5 224.5l116 545h154l-121 -572q-45 -209 -180.5 -313t-325.5 -104q-165 0 -270 89.5t-105 248.5z" />
<glyph unicode="v" horiz-adv-x="1051" d="M130 970h157l168 -823l506 823h166l-608 -972h-178z" />
<glyph unicode="w" horiz-adv-x="1714" d="M143 970h154l124 -804l430 804h169l135 -807l454 807h168l-557 -970h-182l-128 804l-429 -804h-178z" />
<glyph unicode="x" horiz-adv-x="1021" d="M-48 0l469 497l-284 473h170l218 -374l352 374h184l-463 -486l287 -484h-169l-226 380l-355 -380h-183z" />
<glyph unicode="y" horiz-adv-x="1061" d="M-15 -414l467 641l-330 743h162l265 -608l429 608h173l-991 -1384h-175z" />
<glyph unicode="z" horiz-adv-x="1041" d="M30 0l24 120l731 711h-592l29 139h795l-26 -116l-725 -716h599l-28 -138h-807z" />
<glyph unicode="{" horiz-adv-x="864" d="M124 512l30 141q127 0 195.5 61.5t89.5 195.5l23 146q30 196 143 287t307 91h55l-31 -142h-40q-121 0 -189.5 -56.5t-88.5 -192.5l-19 -131q-23 -144 -88.5 -223.5t-177.5 -113.5q91 -39 124 -123t2 -200l-36 -134q-32 -121 16 -183t155 -62h61l-30 -141h-61 q-184 0 -261 119.5t-29 303.5l32 115q32 117 -18.5 179.5t-163.5 62.5z" />
<glyph unicode="|" horiz-adv-x="704" d="M116 -271l362 1705h153l-363 -1705h-152z" />
<glyph unicode="}" horiz-adv-x="864" d="M-60 -268l30 141h40q121 0 188.5 56t89.5 193l19 131q37 271 265 336q-90 39 -123 123.5t-2 200.5l36 135q32 121 -16 182.5t-155 61.5h-61l31 142h60q184 0 261 -119.5t29 -303.5l-32 -116q-31 -117 19 -179.5t163 -62.5l-29 -141q-127 0 -196 -61.5t-90 -195.5 l-23 -145q-30 -196 -143 -287t-307 -91h-54z" />
<glyph unicode="&#xa1;" horiz-adv-x="518" d="M-36 -464l234 978h131l-177 -978h-188zM204 859q0 52 38 90.5t90 38.5t90 -38.5t38 -90.5t-38 -90t-90 -38t-90 38t-38 90z" />
<glyph unicode="&#xa3;" horiz-adv-x="1433" d="M114 0l32 151h178l105 496h-178l31 139h177l42 198q50 233 187 350.5t323 117.5q255 0 364 -177l-125 -95q-82 122 -250 122q-272 0 -349 -357l-34 -159h525l-30 -139h-524l-105 -496h702l-32 -151h-1039z" />
<glyph unicode="&#xa5;" horiz-adv-x="1433" d="M207 325l27 126h396l43 201h-398l29 126h331l-318 656h178l283 -604l539 604h194l-590 -656h335l-28 -126h-397l-43 -201h399l-28 -126h-397l-69 -325h-158l68 325h-396z" />
<glyph unicode="&#xa7;" horiz-adv-x="1271" d="M23 -132l100 116q60 -58 165 -98.5t226 -40.5q146 0 246.5 53.5t119.5 142.5q20 98 -49.5 146t-218.5 69l-111 14q-170 22 -258 108.5t-60 219.5q33 161 203 251q-114 93 -79 265q31 151 175 244.5t344 93.5q142 0 259 -38.5t197 -105.5l-93 -118q-159 120 -371 120 q-138 0 -237.5 -55.5t-116.5 -136.5q-20 -100 43.5 -151t202.5 -66l103 -11q179 -19 275 -113t66 -234q-34 -158 -202 -244q117 -101 84 -260q-30 -154 -178.5 -245.5t-351.5 -91.5q-140 0 -275 46.5t-208 119.5zM337 609q-20 -91 47 -139.5t212 -63.5l103 -12 q77 -8 134 -29q70 28 115.5 70.5t56.5 93.5q20 97 -56.5 153t-221.5 71l-111 11q-49 5 -104 20q-71 -27 -117 -73t-58 -102z" />
<glyph unicode="&#xa9;" horiz-adv-x="1937" d="M188 668q0 134 44 264.5t125.5 239t189.5 192t245.5 130t284.5 46.5q156 0 298.5 -57.5t247 -157t166.5 -242t62 -303.5q0 -135 -43.5 -265t-125 -238.5t-190 -192t-245.5 -130t-284 -46.5q-209 0 -386.5 97.5t-283 272.5t-105.5 390zM329 676q0 -180 88 -326.5t235 -227 t321 -80.5q154 0 292.5 61.5t235 162.5t153.5 233.5t57 272.5q0 180 -88 326.5t-235 227t-321 80.5q-154 0 -292.5 -61.5t-235 -162.5t-153.5 -233.5t-57 -272.5zM599 686q0 128 59.5 237t168.5 174t243 65q120 0 216.5 -53.5t146.5 -146.5l-123 -71q-39 69 -105.5 103 t-141.5 34q-137 0 -228 -98t-91 -235q0 -124 78.5 -199.5t194.5 -75.5q74 0 139.5 33t110.5 92l93 -86q-63 -82 -153 -127t-197 -45q-172 0 -291.5 109.5t-119.5 289.5z" />
<glyph unicode="&#xab;" horiz-adv-x="1045" d="M129 542l278 379h171l-288 -395l110 -363h-155zM535 542l277 379h171l-288 -395l111 -363h-156z" />
<glyph unicode="&#xad;" horiz-adv-x="835" d="M135 472l30 139h559l-30 -139h-559z" />
<glyph unicode="&#xae;" horiz-adv-x="1008" d="M201 1024q0 116 59.5 218t164.5 164.5t229 62.5q164 0 280 -110.5t116 -279.5q0 -115 -59 -217.5t-163.5 -165t-228.5 -62.5q-165 0 -281.5 110.5t-116.5 279.5zM302 1029q0 -131 88.5 -217t213.5 -86q143 0 243.5 105.5t100.5 242.5q0 130 -88 216t-211 86 q-144 0 -245.5 -104.5t-101.5 -242.5zM436 862l82 388h165q71 0 109 -40.5t26 -94.5q-22 -95 -152 -106l111 -147h-95l-101 146h-31l-31 -146h-83zM563 1074h88q71 0 82 47q7 25 -9.5 41t-49.5 16h-88z" />
<glyph unicode="&#xb0;" horiz-adv-x="805" d="M178 1074q0 154 109 265.5t272 111.5q138 0 234.5 -95.5t96.5 -231.5q0 -153 -110.5 -264.5t-270.5 -111.5q-140 0 -235.5 95t-95.5 231zM310 1083q0 -89 59.5 -150.5t146.5 -61.5q96 0 168.5 72.5t72.5 171.5q0 88 -60 150t-146 62q-97 0 -169 -73t-72 -171z" />
<glyph unicode="&#xb7;" horiz-adv-x="697" d="M239 543q0 52 38.5 89.5t90.5 37.5t89.5 -37.5t37.5 -89.5q0 -53 -37.5 -91t-89.5 -38t-90.5 38.5t-38.5 90.5z" />
<glyph unicode="&#xbb;" horiz-adv-x="1045" d="M87 163l288 394l-111 364h156l116 -379l-278 -379h-171zM493 163l287 394l-110 364h155l116 -379l-277 -379h-171z" />
<glyph unicode="&#xbf;" horiz-adv-x="862" d="M-37 -101q0 188 131.5 305.5t378.5 131.5l46 178h138l-67 -321h-84q-182 0 -276 -74.5t-94 -199.5q0 -115 101.5 -179t265.5 -64q32 0 70 2l-6 -155q-47 -5 -93 -5q-224 0 -367.5 104.5t-143.5 276.5zM523 860q0 52 38 90.5t90 38.5t90 -38.5t38 -90.5t-38 -90t-90 -38 t-90 38t-38 90z" />
<glyph unicode="&#xc0;" horiz-adv-x="1455" d="M-58 0l883 1434h204l279 -1434h-169l-76 399h-699l-244 -399h-178zM459 555h574l-135 716zM664 1850h193l215 -307h-151z" />
<glyph unicode="&#xc1;" horiz-adv-x="1455" d="M-58 0l883 1434h204l279 -1434h-169l-76 399h-699l-244 -399h-178zM459 555h574l-135 716zM784 1543l247 307h199l-289 -307h-157z" />
<glyph unicode="&#xc2;" horiz-adv-x="1455" d="M-58 0l883 1434h204l279 -1434h-169l-76 399h-699l-244 -399h-178zM459 555h574l-135 716zM584 1544l295 295h204l181 -295h-161l-133 202l-214 -202h-172z" />
<glyph unicode="&#xc3;" horiz-adv-x="1455" d="M-58 0l883 1434h204l279 -1434h-169l-76 399h-699l-244 -399h-178zM459 555h574l-135 716zM599 1692q54 58 108 84t124 26q48 0 89.5 -12.5t65 -28t53 -28t55.5 -12.5q69 0 144 70l87 -91q-56 -59 -109.5 -85t-122.5 -26q-59 0 -107 20.5t-85.5 41t-71.5 20.5 q-68 0 -143 -70z" />
<glyph unicode="&#xc4;" horiz-adv-x="1455" d="M-58 0l883 1434h204l279 -1434h-169l-76 399h-699l-244 -399h-178zM459 555h574l-135 716zM657 1691q0 46 31.5 77.5t77.5 31.5q45 0 76.5 -31.5t31.5 -77.5t-31.5 -77t-76.5 -31q-46 0 -77.5 31t-31.5 77zM1074 1691q0 46 31 77.5t77 31.5q45 0 76.5 -31.5t31.5 -77.5 t-31.5 -77t-76.5 -31q-46 0 -77 31t-31 77z" />
<glyph unicode="&#xc5;" horiz-adv-x="1455" d="M-58 0l883 1434h204l279 -1434h-169l-76 399h-699l-244 -399h-178zM459 555h574l-135 716zM726 1753q0 95 68 162t164 67t165 -67t69 -162t-69 -162.5t-165 -67.5q-95 0 -163.5 67.5t-68.5 162.5zM828 1753q0 -56 38 -94.5t92 -38.5t93 38.5t39 94.5q0 55 -39 93.5 t-93 38.5t-92 -38.5t-38 -93.5z" />
<glyph unicode="&#xc6;" horiz-adv-x="2316" d="M-68 0l1374 1434h1051l-33 -155h-811l-102 -480h792l-33 -154h-792l-104 -490h824l-33 -155h-992l79 374h-653l-357 -374h-210zM647 529h539l153 725z" />
<glyph unicode="&#xc7;" horiz-adv-x="1516" d="M165 652q0 169 61 317.5t166 254.5t252 167.5t313 61.5q52 0 103.5 -6t118.5 -25t126 -49.5t119 -84t103 -124.5l-126 -100q-70 117 -192.5 174t-261.5 57q-169 0 -309 -83t-220.5 -227.5t-80.5 -318.5q0 -231 147 -379.5t369 -148.5q122 0 231.5 51t187.5 141l108 -106 q-103 -118 -240.5 -181t-296.5 -63q-193 0 -347.5 85t-242.5 239t-88 348zM559 -331l183 337l165 -1l-169 -336h-179z" />
<glyph unicode="&#xc8;" horiz-adv-x="1337" d="M94 0l305 1434h979l-32 -155h-811l-103 -480h792l-33 -154h-792l-104 -490h824l-33 -155h-992zM624 1850h193l215 -307h-151z" />
<glyph unicode="&#xc9;" horiz-adv-x="1337" d="M94 0l305 1434h979l-32 -155h-811l-103 -480h792l-33 -154h-792l-104 -490h824l-33 -155h-992zM744 1543l247 307h199l-289 -307h-157z" />
<glyph unicode="&#xca;" horiz-adv-x="1337" d="M94 0l305 1434h979l-32 -155h-811l-103 -480h792l-33 -154h-792l-104 -490h824l-33 -155h-992zM544 1544l295 295h204l181 -295h-161l-133 202l-214 -202h-172z" />
<glyph unicode="&#xcb;" horiz-adv-x="1337" d="M94 0l305 1434h979l-32 -155h-811l-103 -480h792l-33 -154h-792l-104 -490h824l-33 -155h-992zM617 1691q0 46 31.5 77.5t77.5 31.5q45 0 77 -31.5t32 -77.5q0 -45 -32 -76.5t-77 -31.5q-46 0 -77.5 31t-31.5 77zM1034 1691q0 46 31 77.5t77 31.5q45 0 76.5 -31.5 t31.5 -77.5t-31.5 -77t-76.5 -31q-46 0 -77 31t-31 77z" />
<glyph unicode="&#xcc;" horiz-adv-x="562" d="M94 0l305 1434h168l-305 -1434h-168zM219 1850h194l215 -307h-152z" />
<glyph unicode="&#xcd;" horiz-adv-x="562" d="M94 0l305 1434h168l-305 -1434h-168zM340 1543l247 307h198l-288 -307h-157z" />
<glyph unicode="&#xce;" horiz-adv-x="562" d="M94 0l305 1434h168l-305 -1434h-168zM139 1544l295 295h205l180 -295h-161l-133 202l-214 -202h-172z" />
<glyph unicode="&#xcf;" horiz-adv-x="562" d="M94 0l305 1434h168l-305 -1434h-168zM213 1691q0 46 31.5 77.5t77.5 31.5q45 0 76.5 -31.5t31.5 -77.5t-31.5 -77t-76.5 -31q-46 0 -77.5 31t-31.5 77zM630 1691q0 46 30.5 77.5t76.5 31.5q45 0 77 -31.5t32 -77.5q0 -45 -32 -76.5t-77 -31.5q-46 0 -76.5 31t-30.5 77z " />
<glyph unicode="&#xd0;" horiz-adv-x="1748" d="M153 644l33 156h237l135 634h471q310 0 487 -162t177 -437q0 -174 -61 -325.5t-173.5 -265t-286 -179t-386.5 -65.5h-533l137 644h-237zM454 156h351q169 0 305.5 51t225 140.5t136 210t47.5 261.5q0 212 -130 335.5t-378 123.5h-319l-101 -478h396l-33 -156h-396z" />
<glyph unicode="&#xd1;" horiz-adv-x="1585" d="M94 0l305 1434h155l618 -1175l250 1175h168l-306 -1434h-152l-620 1175l-251 -1175h-167zM654 1692q54 58 108.5 84t124.5 26q48 0 89.5 -12.5t65 -28t52.5 -28t55 -12.5q69 0 144 70l87 -91q-56 -59 -109.5 -85t-122.5 -26q-47 0 -87.5 13t-64.5 28t-53.5 28t-57.5 13 q-69 0 -144 -70z" />
<glyph unicode="&#xd2;" horiz-adv-x="1702" d="M163 643q0 218 100.5 403t283.5 296t409 111q192 0 347 -81t245.5 -233t90.5 -348q0 -164 -59.5 -312.5t-163 -258.5t-252 -175t-318.5 -65q-193 0 -347.5 80.5t-245 233t-90.5 349.5zM335 655q0 -233 147.5 -375t376.5 -142q175 0 315.5 89t216.5 235t76 316 q0 154 -68.5 272.5t-187.5 181.5t-268 63q-131 0 -246 -52.5t-193.5 -140t-123.5 -204t-45 -243.5zM715 1850h193l215 -307h-151z" />
<glyph unicode="&#xd3;" horiz-adv-x="1702" d="M163 643q0 218 100.5 403t283.5 296t409 111q192 0 347 -81t245.5 -233t90.5 -348q0 -164 -59.5 -312.5t-163 -258.5t-252 -175t-318.5 -65q-193 0 -347.5 80.5t-245 233t-90.5 349.5zM335 655q0 -233 147.5 -375t376.5 -142q175 0 315.5 89t216.5 235t76 316 q0 154 -68.5 272.5t-187.5 181.5t-268 63q-131 0 -246 -52.5t-193.5 -140t-123.5 -204t-45 -243.5zM836 1543l246 307h199l-289 -307h-156z" />
<glyph unicode="&#xd4;" horiz-adv-x="1702" d="M163 643q0 218 100.5 403t283.5 296t409 111q192 0 347 -81t245.5 -233t90.5 -348q0 -164 -59.5 -312.5t-163 -258.5t-252 -175t-318.5 -65q-193 0 -347.5 80.5t-245 233t-90.5 349.5zM335 655q0 -233 147.5 -375t376.5 -142q175 0 315.5 89t216.5 235t76 316 q0 154 -68.5 272.5t-187.5 181.5t-268 63q-131 0 -246 -52.5t-193.5 -140t-123.5 -204t-45 -243.5zM635 1544l295 295h205l180 -295h-161l-133 202l-214 -202h-172z" />
<glyph unicode="&#xd5;" horiz-adv-x="1702" d="M163 643q0 218 100.5 403t283.5 296t409 111q192 0 347 -81t245.5 -233t90.5 -348q0 -164 -59.5 -312.5t-163 -258.5t-252 -175t-318.5 -65q-193 0 -347.5 80.5t-245 233t-90.5 349.5zM335 655q0 -233 147.5 -375t376.5 -142q175 0 315.5 89t216.5 235t76 316 q0 154 -68.5 272.5t-187.5 181.5t-268 63q-131 0 -246 -52.5t-193.5 -140t-123.5 -204t-45 -243.5zM650 1692q54 58 108.5 84t124.5 26q48 0 89.5 -12.5t65 -28t52.5 -28t55 -12.5q69 0 144 70l87 -91q-56 -59 -109.5 -85t-122.5 -26q-47 0 -87.5 13t-64.5 28t-53.5 28 t-57.5 13q-69 0 -144 -70z" />
<glyph unicode="&#xd6;" horiz-adv-x="1702" d="M163 643q0 218 100.5 403t283.5 296t409 111q192 0 347 -81t245.5 -233t90.5 -348q0 -164 -59.5 -312.5t-163 -258.5t-252 -175t-318.5 -65q-193 0 -347.5 80.5t-245 233t-90.5 349.5zM335 655q0 -233 147.5 -375t376.5 -142q175 0 315.5 89t216.5 235t76 316 q0 154 -68.5 272.5t-187.5 181.5t-268 63q-131 0 -246 -52.5t-193.5 -140t-123.5 -204t-45 -243.5zM709 1691q0 46 31 77.5t77 31.5q45 0 77 -31.5t32 -77.5q0 -45 -32 -76.5t-77 -31.5q-46 0 -77 31t-31 77zM1125 1691q0 46 31 77.5t77 31.5q45 0 76.5 -31.5t31.5 -77.5 t-31.5 -77t-76.5 -31q-46 0 -77 31t-31 77z" />
<glyph unicode="&#xd7;" d="M151 241l364 301l-236 301l108 89l230 -292l377 312l85 -107l-367 -303l238 -303l-108 -89l-232 293l-374 -309z" />
<glyph unicode="&#xd8;" horiz-adv-x="1702" d="M99 89l182 162q-118 167 -118 392q0 218 100.5 403t283.5 296t409 111q288 0 479 -174l197 176l99 -110l-200 -178q108 -159 108 -376q0 -164 -59.5 -312.5t-163 -258.5t-252 -175t-318.5 -65q-275 0 -466 161l-182 -161zM335 655q0 -163 77 -287l895 797 q-146 130 -364 130q-131 0 -246 -52.5t-193.5 -140t-123.5 -204t-45 -243.5zM509 256q139 -118 350 -118q175 0 315.5 89t216.5 235t76 316q0 151 -68 272z" />
<glyph unicode="&#xd9;" horiz-adv-x="1506" d="M178 420q0 67 19 154l183 860h168l-183 -855q-15 -65 -15 -133q0 -157 94 -232.5t254 -75.5q182 0 309 105.5t172 322.5l184 868h168l-188 -881q-63 -295 -234.5 -433.5t-429.5 -138.5q-105 0 -194.5 27t-158.5 79.5t-108.5 137.5t-39.5 195zM691 1850h194l215 -307h-152 z" />
<glyph unicode="&#xda;" horiz-adv-x="1506" d="M178 420q0 67 19 154l183 860h168l-183 -855q-15 -65 -15 -133q0 -157 94 -232.5t254 -75.5q182 0 309 105.5t172 322.5l184 868h168l-188 -881q-63 -295 -234.5 -433.5t-429.5 -138.5q-105 0 -194.5 27t-158.5 79.5t-108.5 137.5t-39.5 195zM812 1543l247 307h198 l-288 -307h-157z" />
<glyph unicode="&#xdb;" horiz-adv-x="1506" d="M178 420q0 67 19 154l183 860h168l-183 -855q-15 -65 -15 -133q0 -157 94 -232.5t254 -75.5q182 0 309 105.5t172 322.5l184 868h168l-188 -881q-63 -295 -234.5 -433.5t-429.5 -138.5q-105 0 -194.5 27t-158.5 79.5t-108.5 137.5t-39.5 195zM611 1544l295 295h205 l180 -295h-161l-133 202l-214 -202h-172z" />
<glyph unicode="&#xdc;" horiz-adv-x="1506" d="M178 420q0 67 19 154l183 860h168l-183 -855q-15 -65 -15 -133q0 -157 94 -232.5t254 -75.5q182 0 309 105.5t172 322.5l184 868h168l-188 -881q-63 -295 -234.5 -433.5t-429.5 -138.5q-105 0 -194.5 27t-158.5 79.5t-108.5 137.5t-39.5 195zM685 1691q0 46 31.5 77.5 t77.5 31.5q45 0 76.5 -31.5t31.5 -77.5t-31.5 -77t-76.5 -31q-46 0 -77.5 31t-31.5 77zM1102 1691q0 46 30.5 77.5t76.5 31.5q45 0 77 -31.5t32 -77.5q0 -45 -32 -76.5t-77 -31.5q-46 0 -76.5 31t-30.5 77z" />
<glyph unicode="&#xdd;" horiz-adv-x="1304" d="M215 1434h177l310 -673l583 673h208l-734 -835l-127 -599h-168l130 615zM695 1543l247 307h199l-289 -307h-157z" />
<glyph unicode="&#xde;" horiz-adv-x="1334" d="M94 0l305 1434h168l-58 -273h329q216 0 334.5 -100t118.5 -270q0 -218 -153 -353t-435 -135h-376l-65 -303h-168zM359 459h352q205 0 306.5 86t101.5 230q0 112 -76 171.5t-222 59.5h-345z" />
<glyph unicode="&#xdf;" horiz-adv-x="1225" d="M58 0l221 1035q49 228 185 343.5t347 115.5q175 0 290.5 -100.5t115.5 -252.5q0 -134 -81.5 -246t-211.5 -156q104 -39 159 -145.5t30 -226.5q-41 -196 -174 -291t-318 -95q-153 0 -247 52l65 128q70 -38 176 -38q136 0 227.5 64t115.5 191q25 129 -50 213t-226 84h-69 l31 139h30q160 0 260 70q59 40 92.5 108t33.5 134q0 99 -76 162t-181 63q-141 0 -240 -80t-134 -252l-216 -1019h-155z" />
<glyph unicode="&#xe0;" horiz-adv-x="1242" d="M86 413q0 114 43 219.5t116 184t177 125.5t219 47q125 0 212.5 -52.5t130.5 -143.5l38 177h153l-207 -970h-152l27 124q-136 -143 -339 -143q-181 0 -299.5 123t-118.5 309zM244 429q0 -132 80 -218t215 -86q148 0 256.5 100.5t131.5 253.5q23 156 -59 261t-231 105 q-164 0 -278.5 -122.5t-114.5 -293.5zM422 1425h193l215 -307h-151z" />
<glyph unicode="&#xe1;" horiz-adv-x="1242" d="M86 413q0 114 43 219.5t116 184t177 125.5t219 47q125 0 212.5 -52.5t130.5 -143.5l38 177h153l-207 -970h-152l27 124q-136 -143 -339 -143q-181 0 -299.5 123t-118.5 309zM244 429q0 -132 80 -218t215 -86q148 0 256.5 100.5t131.5 253.5q23 156 -59 261t-231 105 q-164 0 -278.5 -122.5t-114.5 -293.5zM563 1118l247 307h199l-289 -307h-157z" />
<glyph unicode="&#xe2;" horiz-adv-x="1242" d="M86 413q0 114 43 219.5t116 184t177 125.5t219 47q125 0 212.5 -52.5t130.5 -143.5l38 177h153l-207 -970h-152l27 124q-136 -143 -339 -143q-181 0 -299.5 123t-118.5 309zM244 429q0 -132 80 -218t215 -86q148 0 256.5 100.5t131.5 253.5q23 156 -59 261t-231 105 q-164 0 -278.5 -122.5t-114.5 -293.5zM353 1119l295 295h205l180 -295h-161l-133 202l-214 -202h-172z" />
<glyph unicode="&#xe3;" horiz-adv-x="1242" d="M86 413q0 114 43 219.5t116 184t177 125.5t219 47q125 0 212.5 -52.5t130.5 -143.5l38 177h153l-207 -970h-152l27 124q-136 -143 -339 -143q-181 0 -299.5 123t-118.5 309zM244 429q0 -132 80 -218t215 -86q148 0 256.5 100.5t131.5 253.5q23 156 -59 261t-231 105 q-164 0 -278.5 -122.5t-114.5 -293.5zM350 1267q54 58 108.5 84t124.5 26q61 0 109 -20.5t84.5 -40.5t68.5 -20q69 0 144 70l87 -91q-56 -59 -109.5 -85t-122.5 -26q-47 0 -87.5 13t-64.5 28t-53.5 28t-57.5 13q-69 0 -144 -70z" />
<glyph unicode="&#xe4;" horiz-adv-x="1242" d="M86 413q0 114 43 219.5t116 184t177 125.5t219 47q125 0 212.5 -52.5t130.5 -143.5l38 177h153l-207 -970h-152l27 124q-136 -143 -339 -143q-181 0 -299.5 123t-118.5 309zM244 429q0 -132 80 -218t215 -86q148 0 256.5 100.5t131.5 253.5q23 156 -59 261t-231 105 q-164 0 -278.5 -122.5t-114.5 -293.5zM415 1266q0 46 31 77.5t77 31.5q45 0 77 -31.5t32 -77.5q0 -45 -32 -76.5t-77 -31.5q-46 0 -77 31t-31 77zM831 1266q0 46 31 77.5t77 31.5q45 0 77 -31.5t32 -77.5q0 -45 -32 -76.5t-77 -31.5q-46 0 -77 31t-31 77z" />
<glyph unicode="&#xe5;" horiz-adv-x="1242" d="M86 413q0 114 43 219.5t116 184t177 125.5t219 47q125 0 212.5 -52.5t130.5 -143.5l38 177h153l-207 -970h-152l27 124q-136 -143 -339 -143q-181 0 -299.5 123t-118.5 309zM244 429q0 -132 80 -218t215 -86q148 0 256.5 100.5t131.5 253.5q23 156 -59 261t-231 105 q-164 0 -278.5 -122.5t-114.5 -293.5zM474 1328q0 95 68.5 162.5t164.5 67.5t164.5 -67.5t68.5 -162.5t-68.5 -162.5t-164.5 -67.5t-164.5 67.5t-68.5 162.5zM577 1328q0 -56 38 -94.5t92 -38.5t92.5 38.5t38.5 94.5q0 55 -38.5 93.5t-92.5 38.5t-92 -38.5t-38 -93.5z" />
<glyph unicode="&#xe6;" horiz-adv-x="1809" d="M71 247q0 136 106.5 223.5t304.5 87.5h327l1 5q9 43 9 80q0 101 -65 154.5t-188 53.5q-140 0 -282 -87l-57 120q167 105 365 105q260 0 340 -190q71 89 174 139.5t231 50.5q180 0 290 -105t110 -280q0 -89 -30 -173h-765v-23q0 -134 80.5 -214t222.5 -80q166 0 299 110 l76 -105q-88 -72 -179.5 -105.5t-211.5 -33.5q-135 0 -233 51.5t-152 145.5q-187 -196 -436 -196q-149 0 -243 73.5t-94 192.5zM237 261q0 -69 50.5 -107t140.5 -38q98 0 195 46.5t175 136.5q-11 50 -11 102v30h-294q-127 0 -191.5 -49t-64.5 -121zM964 555h617q3 23 3 45 q0 118 -69.5 185.5t-185.5 67.5q-143 0 -235.5 -85.5t-129.5 -212.5z" />
<glyph unicode="&#xe7;" horiz-adv-x="1035" d="M90 437q0 149 70.5 275.5t196 201t278.5 74.5q257 0 383 -184l-120 -86q-101 127 -270 127q-159 0 -269.5 -117t-110.5 -281q0 -139 87.5 -230t217.5 -91q155 0 268 108l88 -100q-145 -151 -362 -151q-203 0 -330 129.5t-127 324.5zM270 -331l184 337l157 -1l-169 -336 h-172z" />
<glyph unicode="&#xe8;" horiz-adv-x="1104" d="M83 401q0 81 22.5 163.5t68.5 159t110 135.5t154.5 94.5t194.5 35.5q180 0 289.5 -105t109.5 -280q0 -89 -30 -173h-763v-23q0 -134 80 -214t222 -80q166 0 299 110l76 -105q-87 -72 -180 -105.5t-212 -33.5q-206 0 -323.5 117.5t-117.5 303.5zM260 555h618q3 23 3 45 q0 118 -70 185.5t-186 67.5q-143 0 -235.5 -85t-129.5 -213zM387 1425h194l215 -307h-152z" />
<glyph unicode="&#xe9;" horiz-adv-x="1104" d="M83 401q0 81 22.5 163.5t68.5 159t110 135.5t154.5 94.5t194.5 35.5q180 0 289.5 -105t109.5 -280q0 -89 -30 -173h-763v-23q0 -134 80 -214t222 -80q166 0 299 110l76 -105q-87 -72 -180 -105.5t-212 -33.5q-206 0 -323.5 117.5t-117.5 303.5zM260 555h618q3 23 3 45 q0 118 -70 185.5t-186 67.5q-143 0 -235.5 -85t-129.5 -213zM528 1118l247 307h199l-289 -307h-157z" />
<glyph unicode="&#xea;" horiz-adv-x="1104" d="M83 401q0 81 22.5 163.5t68.5 159t110 135.5t154.5 94.5t194.5 35.5q180 0 289.5 -105t109.5 -280q0 -89 -30 -173h-763v-23q0 -134 80 -214t222 -80q166 0 299 110l76 -105q-87 -72 -180 -105.5t-212 -33.5q-206 0 -323.5 117.5t-117.5 303.5zM260 555h618q3 23 3 45 q0 118 -70 185.5t-186 67.5q-143 0 -235.5 -85t-129.5 -213zM318 1119l295 295h205l180 -295h-160l-133 202l-215 -202h-172z" />
<glyph unicode="&#xeb;" horiz-adv-x="1104" d="M83 401q0 81 22.5 163.5t68.5 159t110 135.5t154.5 94.5t194.5 35.5q180 0 289.5 -105t109.5 -280q0 -89 -30 -173h-763v-23q0 -134 80 -214t222 -80q166 0 299 110l76 -105q-87 -72 -180 -105.5t-212 -33.5q-206 0 -323.5 117.5t-117.5 303.5zM260 555h618q3 23 3 45 q0 118 -70 185.5t-186 67.5q-143 0 -235.5 -85t-129.5 -213zM380 1266q0 46 31 77.5t77 31.5q45 0 77 -31.5t32 -77.5q0 -45 -32 -76.5t-77 -31.5q-46 0 -77 31t-31 77zM797 1266q0 46 30.5 77.5t76.5 31.5q45 0 77 -31.5t32 -77.5q0 -45 -32 -76.5t-77 -31.5 q-46 0 -76.5 31t-30.5 77z" />
<glyph unicode="&#xec;" horiz-adv-x="495" d="M67 0l206 970h155l-207 -970h-154zM103 1425h194l215 -307h-152z" />
<glyph unicode="&#xed;" horiz-adv-x="495" d="M67 0l206 970h155l-207 -970h-154zM245 1118l247 307h198l-289 -307h-156z" />
<glyph unicode="&#xee;" horiz-adv-x="495" d="M35 1119l295 295h205l180 -295h-161l-133 202l-214 -202h-172zM67 0l206 970h155l-207 -970h-154z" />
<glyph unicode="&#xef;" horiz-adv-x="495" d="M67 0l206 970h155l-207 -970h-154zM96 1266q0 46 31.5 77.5t77.5 31.5q45 0 76.5 -31.5t31.5 -77.5t-31.5 -77t-76.5 -31q-46 0 -77.5 31t-31.5 77zM513 1266q0 46 31 77.5t77 31.5q45 0 76.5 -31.5t31.5 -77.5t-31.5 -77t-76.5 -31q-46 0 -77 31t-31 77z" />
<glyph unicode="&#xf0;" horiz-adv-x="1202" d="M88 432q0 142 69.5 265t191 197t265.5 74q224 0 345 -164q-55 206 -231 363l-245 -133l-52 99l200 109q-109 73 -242 125l70 120q177 -68 307 -172l250 136l52 -98l-213 -117q131 -131 197.5 -292.5t66.5 -338.5q0 -66 -11 -141q-28 -210 -182 -346.5t-358 -136.5 q-210 0 -345 128t-135 323zM247 440q0 -138 93 -227t239 -89q90 0 164.5 34.5t121 90.5t71.5 122.5t25 134.5q0 139 -93 228t-240 89q-90 0 -164.5 -35t-120.5 -91t-71 -123t-25 -134z" />
<glyph unicode="&#xf1;" horiz-adv-x="1207" d="M67 0l206 970h153l-26 -121q126 140 321 140q163 0 257 -92.5t94 -241.5q0 -55 -11 -106l-118 -549h-153l116 548q10 41 10 84q0 96 -58 154t-173 58q-131 0 -225.5 -81.5t-126.5 -234.5l-113 -528h-153zM382 1267q54 58 108 84t124 26q61 0 109.5 -20.5t85 -40.5 t68.5 -20q69 0 144 70l87 -91q-56 -59 -109.5 -85t-122.5 -26q-59 0 -107 20.5t-85.5 41t-71.5 20.5q-68 0 -143 -70z" />
<glyph unicode="&#xf2;" horiz-adv-x="1198" d="M90 436q0 149 71.5 276t198.5 202t281 75q207 0 337.5 -128.5t130.5 -326.5q0 -149 -72 -276.5t-199 -202.5t-281 -75q-205 0 -336 128.5t-131 327.5zM247 445q0 -140 89.5 -230.5t229.5 -90.5q164 0 275 117t111 282q0 142 -90 232.5t-233 90.5q-161 0 -271.5 -118 t-110.5 -283zM415 1425h193l215 -307h-151z" />
<glyph unicode="&#xf3;" horiz-adv-x="1198" d="M90 436q0 149 71.5 276t198.5 202t281 75q207 0 337.5 -128.5t130.5 -326.5q0 -149 -72 -276.5t-199 -202.5t-281 -75q-205 0 -336 128.5t-131 327.5zM247 445q0 -140 89.5 -230.5t229.5 -90.5q164 0 275 117t111 282q0 142 -90 232.5t-233 90.5q-161 0 -271.5 -118 t-110.5 -283zM556 1118l247 307h198l-288 -307h-157z" />
<glyph unicode="&#xf4;" horiz-adv-x="1198" d="M90 436q0 149 71.5 276t198.5 202t281 75q207 0 337.5 -128.5t130.5 -326.5q0 -149 -72 -276.5t-199 -202.5t-281 -75q-205 0 -336 128.5t-131 327.5zM247 445q0 -140 89.5 -230.5t229.5 -90.5q164 0 275 117t111 282q0 142 -90 232.5t-233 90.5q-161 0 -271.5 -118 t-110.5 -283zM346 1119l295 295h205l180 -295h-161l-133 202l-214 -202h-172z" />
<glyph unicode="&#xf5;" horiz-adv-x="1198" d="M90 436q0 149 71.5 276t198.5 202t281 75q207 0 337.5 -128.5t130.5 -326.5q0 -149 -72 -276.5t-199 -202.5t-281 -75q-205 0 -336 128.5t-131 327.5zM247 445q0 -140 89.5 -230.5t229.5 -90.5q164 0 275 117t111 282q0 142 -90 232.5t-233 90.5q-161 0 -271.5 -118 t-110.5 -283zM343 1267q54 58 108 84t124 26q61 0 109.5 -20.5t85 -40.5t68.5 -20q69 0 144 70l87 -91q-56 -59 -109.5 -85t-122.5 -26q-59 0 -107 20.5t-85.5 41t-71.5 20.5q-68 0 -143 -70z" />
<glyph unicode="&#xf6;" horiz-adv-x="1198" d="M90 436q0 149 71.5 276t198.5 202t281 75q207 0 337.5 -128.5t130.5 -326.5q0 -149 -72 -276.5t-199 -202.5t-281 -75q-205 0 -336 128.5t-131 327.5zM247 445q0 -140 89.5 -230.5t229.5 -90.5q164 0 275 117t111 282q0 142 -90 232.5t-233 90.5q-161 0 -271.5 -118 t-110.5 -283zM408 1266q0 46 31 77.5t77 31.5q45 0 77 -31.5t32 -77.5q0 -45 -32 -76.5t-77 -31.5q-46 0 -77 31t-31 77zM824 1266q0 46 31 77.5t77 31.5q45 0 76.5 -31.5t31.5 -77.5t-31.5 -77t-76.5 -31q-46 0 -77 31t-31 77z" />
<glyph unicode="&#xf8;" horiz-adv-x="1198" d="M29 57l135 120q-74 114 -74 259q0 149 71.5 276t198.5 202t281 75q186 0 313 -107l138 123l84 -95l-139 -123q72 -114 72 -253q0 -149 -72 -276.5t-199 -202.5t-281 -75q-184 0 -310 104l-134 -120zM247 445q0 -91 38 -160l552 492q-88 69 -208 69q-161 0 -271.5 -118 t-110.5 -283zM365 188q83 -64 201 -64q164 0 275 117t111 282q0 88 -36 157z" />
<glyph unicode="&#xf9;" horiz-adv-x="1193" d="M135 319q0 51 12 111l116 540h155l-117 -547q-10 -43 -10 -87q0 -106 65 -159t172 -53q125 0 216.5 76.5t122.5 224.5l116 545h154l-121 -572q-45 -209 -180.5 -313t-325.5 -104q-165 0 -270 89.5t-105 248.5zM450 1425h193l215 -307h-151z" />
<glyph unicode="&#xfa;" horiz-adv-x="1193" d="M135 319q0 51 12 111l116 540h155l-117 -547q-10 -43 -10 -87q0 -106 65 -159t172 -53q125 0 216.5 76.5t122.5 224.5l116 545h154l-121 -572q-45 -209 -180.5 -313t-325.5 -104q-165 0 -270 89.5t-105 248.5zM591 1118l247 307h198l-288 -307h-157z" />
<glyph unicode="&#xfb;" horiz-adv-x="1193" d="M135 319q0 51 12 111l116 540h155l-117 -547q-10 -43 -10 -87q0 -106 65 -159t172 -53q125 0 216.5 76.5t122.5 224.5l116 545h154l-121 -572q-45 -209 -180.5 -313t-325.5 -104q-165 0 -270 89.5t-105 248.5zM381 1119l295 295h205l180 -295h-161l-133 202l-214 -202 h-172z" />
<glyph unicode="&#xfc;" horiz-adv-x="1193" d="M135 319q0 51 12 111l116 540h155l-117 -547q-10 -43 -10 -87q0 -106 65 -159t172 -53q125 0 216.5 76.5t122.5 224.5l116 545h154l-121 -572q-45 -209 -180.5 -313t-325.5 -104q-165 0 -270 89.5t-105 248.5zM442 1266q0 46 31.5 77.5t77.5 31.5q45 0 76.5 -31.5 t31.5 -77.5t-31.5 -77t-76.5 -31q-46 0 -77.5 31t-31.5 77zM859 1266q0 46 31 77.5t77 31.5q45 0 76.5 -31.5t31.5 -77.5t-31.5 -77t-76.5 -31q-46 0 -77 31t-31 77z" />
<glyph unicode="&#xfd;" horiz-adv-x="1061" d="M-15 -414l467 641l-330 743h162l265 -608l429 608h173l-991 -1384h-175zM504 1118l247 307h198l-289 -307h-156z" />
<glyph unicode="&#xfe;" horiz-adv-x="1240" d="M-20 -410l400 1885h155l-132 -610q134 124 321 124t309 -122.5t122 -309.5q0 -114 -43 -219.5t-116 -184t-176.5 -125.5t-218.5 -47q-125 0 -214.5 53t-128.5 143l-124 -587h-154zM315 490q-23 -156 59 -260.5t231 -104.5q164 0 278.5 122.5t114.5 293.5q0 132 -80 218 t-215 86q-148 0 -257.5 -101t-130.5 -254z" />
<glyph unicode="&#xff;" horiz-adv-x="1061" d="M-15 -414l467 641l-330 743h162l265 -608l429 608h173l-991 -1384h-175zM355 1266q0 46 31.5 77.5t77.5 31.5q45 0 76.5 -31.5t31.5 -77.5t-31.5 -77t-76.5 -31q-46 0 -77.5 31t-31.5 77zM772 1266q0 46 31 77.5t77 31.5q45 0 76.5 -31.5t31.5 -77.5t-31.5 -77t-76.5 -31 q-46 0 -77 31t-31 77z" />
<glyph unicode="&#x152;" horiz-adv-x="2238" d="M155 599q0 174 60.5 325.5t173.5 265t286.5 179t386.5 65.5h1217l-32 -155h-811l-103 -480h792l-33 -154h-792l-104 -490h824l-32 -155h-1170q-310 0 -486.5 162t-176.5 437zM329 614q0 -212 129.5 -335t378.5 -123h191l239 1122h-224q-170 0 -306.5 -51t-225 -141 t-135.5 -210.5t-47 -261.5z" />
<glyph unicode="&#x153;" horiz-adv-x="1959" d="M90 436q0 149 71.5 276t198.5 202t281 75q139 0 246 -66t162 -179q71 112 182.5 178.5t256.5 66.5q181 0 290 -105t109 -280q0 -96 -29 -173h-764v-23q0 -134 80.5 -214t222.5 -80q165 0 298 110l77 -105q-86 -72 -179.5 -105.5t-212.5 -33.5q-140 0 -239.5 60 t-147.5 164q-75 -104 -188 -164t-248 -60q-205 0 -336 128.5t-131 327.5zM247 445q0 -140 89.5 -230.5t229.5 -90.5q164 0 275 117t111 282q0 142 -90 232.5t-233 90.5q-161 0 -271.5 -118t-110.5 -283zM1115 555h618q3 23 3 45q0 118 -69.5 185.5t-185.5 67.5 q-143 0 -236 -85.5t-130 -212.5z" />
<glyph unicode="&#x178;" horiz-adv-x="1304" d="M215 1434h177l310 -673l583 673h208l-734 -835l-127 -599h-168l130 615zM568 1691q0 46 31.5 77.5t77.5 31.5q45 0 76.5 -31.5t31.5 -77.5t-31.5 -77t-76.5 -31q-46 0 -77.5 31t-31.5 77zM985 1691q0 46 31 77.5t77 31.5q45 0 76.5 -31.5t31.5 -77.5t-31.5 -77t-76.5 -31 q-46 0 -77 31t-31 77z" />
<glyph unicode="&#x2000;" horiz-adv-x="991" />
<glyph unicode="&#x2001;" horiz-adv-x="1982" />
<glyph unicode="&#x2002;" horiz-adv-x="991" />
<glyph unicode="&#x2003;" horiz-adv-x="1982" />
<glyph unicode="&#x2004;" horiz-adv-x="660" />
<glyph unicode="&#x2005;" horiz-adv-x="495" />
<glyph unicode="&#x2006;" horiz-adv-x="330" />
<glyph unicode="&#x2007;" horiz-adv-x="330" />
<glyph unicode="&#x2008;" horiz-adv-x="247" />
<glyph unicode="&#x2009;" horiz-adv-x="396" />
<glyph unicode="&#x200a;" horiz-adv-x="110" />
<glyph unicode="&#x2010;" horiz-adv-x="835" d="M135 472l30 139h559l-30 -139h-559z" />
<glyph unicode="&#x2011;" horiz-adv-x="835" d="M135 472l30 139h559l-30 -139h-559z" />
<glyph unicode="&#x2012;" horiz-adv-x="835" d="M135 472l30 139h559l-30 -139h-559z" />
<glyph unicode="&#x2013;" horiz-adv-x="1191" d="M116 472l28 139h956l-29 -139h-955z" />
<glyph unicode="&#x2014;" horiz-adv-x="1630" d="M58 472l28 139h1510l-27 -139h-1511z" />
<glyph unicode="&#x2018;" horiz-adv-x="494" d="M230 955l208 520h142l-171 -520h-179z" />
<glyph unicode="&#x2019;" horiz-adv-x="494" d="M225 955l171 520h178l-207 -520h-142z" />
<glyph unicode="&#x201a;" horiz-adv-x="494" d="M-34 -265l171 519h178l-207 -519h-142z" />
<glyph unicode="&#x201c;" horiz-adv-x="857" d="M230 955l208 520h142l-171 -520h-179zM593 955l208 520h141l-171 -520h-178z" />
<glyph unicode="&#x201d;" horiz-adv-x="857" d="M225 955l171 520h178l-207 -520h-142zM588 955l171 520h178l-208 -520h-141z" />
<glyph unicode="&#x201e;" horiz-adv-x="857" d="M-34 -265l171 519h178l-207 -519h-142zM329 -265l171 519h178l-208 -519h-141z" />
<glyph unicode="&#x2022;" horiz-adv-x="859" d="M214 542q0 96 67.5 164t164.5 68q96 0 164.5 -68t68.5 -164t-69 -164.5t-164 -68.5q-96 0 -164 68.5t-68 164.5z" />
<glyph unicode="&#x202f;" horiz-adv-x="396" />
<glyph unicode="&#x2039;" horiz-adv-x="640" d="M129 542l278 379h171l-288 -395l110 -363h-155z" />
<glyph unicode="&#x203a;" horiz-adv-x="641" d="M88 163l288 394l-111 364h156l116 -379l-278 -379h-171z" />
<glyph unicode="&#x205f;" horiz-adv-x="495" />
<glyph unicode="&#x20ac;" horiz-adv-x="1433" d="M103 494l26 127h161q0 63 9 130q5 43 11 70h-142l26 127h149q76 235 250 368.5t407 133.5q318 0 491 -253l-118 -100q-138 208 -382 208q-166 0 -292 -94t-190 -263h661l-27 -127h-670q-10 -55 -13 -78q-8 -50 -8 -122h649l-27 -127h-612q30 -175 139 -268.5t262 -93.5 q117 0 213 56t160 152l94 -100q-84 -121 -205.5 -187t-269.5 -66q-222 0 -375 133.5t-183 373.5h-194z" />
<glyph unicode="&#x2122;" horiz-adv-x="1461" d="M260 1332l21 102h512l-22 -102h-201l-105 -497h-111l106 497h-200zM782 835l128 600h152l93 -413l267 413h162l-128 -600h-109l95 453l-251 -391h-116l-86 390l-96 -452h-111z" />
<glyph unicode="&#x25fc;" horiz-adv-x="967" d="M0 0v968h968v-968h-968z" />
<glyph unicode="&#xfb01;" horiz-adv-x="1344" d="M125 831l30 139h218l41 192q34 161 124 246.5t231 85.5q146 0 244 -81l-75 -119q-75 57 -170 57q-74 0 -127.5 -52t-76.5 -157l-37 -172h363l-29 -139h-363l-177 -831h-155l177 831h-218zM915 0l207 970h155l-207 -970h-155zM1163 1314q0 46 31.5 77t76.5 31 q46 0 77.5 -31t31.5 -77t-31.5 -77t-77.5 -31q-45 0 -76.5 31t-31.5 77z" />
<glyph unicode="&#xfb02;" horiz-adv-x="1343" d="M125 831l30 139h218l41 192q34 161 124 246.5t231 85.5q146 0 244 -81l-75 -119q-75 57 -170 57q-74 0 -127.5 -52t-76.5 -157l-37 -172h363l-29 -139h-363l-177 -831h-155l177 831h-218zM915 0l314 1475h154l-313 -1475h-155z" />
<glyph unicode="&#xfb03;" horiz-adv-x="2166" d="M125 831l30 139h218l41 192q34 161 124 246.5t231 85.5q146 0 244 -81l-75 -119q-75 57 -170 57q-74 0 -127.5 -52t-76.5 -157l-37 -172h363l-29 -139h-363l-177 -831h-155l177 831h-218zM947 831l30 139h218l41 192q34 161 124 246.5t231 85.5q146 0 244 -81l-75 -119 q-75 57 -170 57q-74 0 -127.5 -52t-76.5 -157l-36 -172h362l-29 -139h-363l-177 -831h-155l177 831h-218zM1738 0l207 970h154l-207 -970h-154zM1986 1314q0 46 31 77t76 31q46 0 78 -31t32 -77t-32 -77t-78 -31q-45 0 -76 31t-31 77z" />
<glyph unicode="&#xfb04;" horiz-adv-x="2165" d="M125 831l30 139h218l41 192q34 161 124 246.5t231 85.5q146 0 244 -81l-75 -119q-75 57 -170 57q-74 0 -127.5 -52t-76.5 -157l-37 -172h363l-29 -139h-363l-177 -831h-155l177 831h-218zM947 831l30 139h218l41 192q34 161 124 246.5t231 85.5q146 0 244 -81l-75 -119 q-75 57 -170 57q-74 0 -127.5 -52t-76.5 -157l-36 -172h362l-29 -139h-363l-177 -831h-155l177 831h-218zM1738 0l313 1475h155l-314 -1475h-154z" />
</font>
</defs>
</svg>
