<?xml version="1.0" standalone="no"?>
<!DOCTYPE svg PUBLIC "-//W3C//DTD SVG 1.1//EN" "http://www.w3.org/Graphics/SVG/1.1/DTD/svg11.dtd" >
<svg xmlns="http://www.w3.org/2000/svg" xmlns:xlink="http://www.w3.org/1999/xlink" version="1.1">
<metadata></metadata>
<defs>
<font id="mark-bold-italicbold" horiz-adv-x="1228" >
<font-face units-per-em="2048" ascent="1618" descent="-430" />
<missing-glyph horiz-adv-x="506" />
<glyph unicode="&#x2e;&#x2e;&#x2e;" horiz-adv-x="1683" d="M11 174q0 79 59.5 138.5t139.5 59.5t139 -59t59 -139q0 -81 -59 -140.5t-139 -59.5t-139.5 59.5t-59.5 140.5zM578 174q0 79 59.5 138.5t139.5 59.5q79 0 138.5 -59t59.5 -139q0 -81 -59 -140.5t-139 -59.5t-139.5 59.5t-59.5 140.5zM1145 174q0 80 59.5 139t138.5 59 t138.5 -59t59.5 -139q0 -81 -59 -140.5t-139 -59.5t-139 59.5t-59 140.5z" />
<glyph horiz-adv-x="0" />
<glyph horiz-adv-x="682" />
<glyph unicode=" "  horiz-adv-x="506" />
<glyph unicode="&#x09;" horiz-adv-x="506" />
<glyph unicode="&#xa0;" horiz-adv-x="506" />
<glyph unicode="!" horiz-adv-x="550" d="M23 170q0 78 58.5 136t136.5 58q77 0 135.5 -58t58.5 -136t-58.5 -137t-135.5 -59q-78 0 -136.5 59t-58.5 137zM160 493l146 941h321l-235 -941h-232z" />
<glyph unicode="&#x22;" horiz-adv-x="1127" d="M296 863l130 612h266l-130 -612h-266zM722 863l130 612h266l-130 -612h-266z" />
<glyph unicode="#" horiz-adv-x="1429" d="M61 345l76 229h208l98 292h-209l78 230h208l114 338h246l-114 -338h245l113 338h245l-114 -338h208l-77 -230h-207l-99 -292h207l-76 -229h-207l-116 -345h-245l116 345h-245l-116 -345h-245l115 345h-207zM591 574h245l98 292h-245z" />
<glyph unicode="$" horiz-adv-x="1433" d="M116 208l153 213q115 -108 301 -141l70 327q-166 34 -260.5 124.5t-94.5 232.5q0 188 138.5 317.5t388.5 135.5l39 185h227l-43 -202q184 -33 346 -140l-142 -213q-113 78 -256 107l-71 -332q362 -86 362 -353q0 -194 -146.5 -316t-385.5 -134l-42 -196h-227l45 211 q-259 47 -402 174zM570 1000q0 -50 31.5 -81t93.5 -51l64 298q-95 -13 -142 -59t-47 -107zM796 270q88 15 140.5 56.5t52.5 106.5q0 48 -31.5 77.5t-100.5 51.5z" />
<glyph unicode="%" horiz-adv-x="2063" d="M189 1039q0 172 121 296t297 124q161 0 264.5 -101t103.5 -258q0 -112 -54 -208.5t-150 -154t-212 -57.5q-162 0 -266 101t-104 258zM370 0l1136 1434h282l-1137 -1434h-281zM417 1054q0 -71 43 -116t110 -45q76 0 127.5 56.5t51.5 135.5q0 71 -43.5 116t-110.5 45 q-76 0 -127 -56.5t-51 -135.5zM1182 333q0 172 120.5 296.5t296.5 124.5q160 0 264 -101.5t104 -259.5q0 -172 -120.5 -296t-296.5 -124q-160 0 -264 101.5t-104 258.5zM1409 347q0 -70 43.5 -115t109.5 -45q76 0 127 56.5t51 135.5q0 70 -43 115.5t-110 45.5 q-76 0 -127 -57t-51 -136z" />
<glyph unicode="&#x26;" horiz-adv-x="1470" d="M53 327q0 65 19 123.5t49 103.5t76 87.5t92 73.5t104 63q-107 153 -107 293q0 167 111 277.5t316 110.5q176 0 288.5 -91.5t112.5 -238.5q0 -72 -27 -134t-80 -113t-107.5 -88.5t-131.5 -79.5l163 -205l258 288l177 -149l-289 -322l260 -326h-337l-107 136 q-185 -162 -423 -162q-189 0 -303 93t-114 260zM337 357q0 -68 48 -106.5t127 -38.5q126 0 241 103l-217 274q-96 -55 -147.5 -110t-51.5 -122zM554 1066q0 -59 77 -168q104 54 158.5 102.5t54.5 109.5q0 53 -37.5 83t-104.5 30q-75 0 -111.5 -43.5t-36.5 -113.5z" />
<glyph unicode="'" horiz-adv-x="701" d="M296 863l130 612h266l-130 -612h-266z" />
<glyph unicode="(" horiz-adv-x="807" d="M110 436q0 222 84.5 432.5t249 376t380.5 236.5l71 -237q-155 -58 -271 -187t-174 -289.5t-58 -331.5q0 -165 56.5 -290t175.5 -226l-122 -228q-392 260 -392 744z" />
<glyph unicode=")" horiz-adv-x="807" d="M-50 -80q155 58 271 187t174 289.5t58 331.5q0 165 -56.5 290t-175.5 226l122 229q392 -260 392 -745q0 -221 -85 -432t-250 -377t-380 -235z" />
<glyph unicode="*" horiz-adv-x="968" d="M216 1148l103 188l222 -108l47 247h208l-62 -268l255 58l23 -202l-259 -49l104 -207l-186 -102l-97 210l-180 -186l-141 138l187 182z" />
<glyph unicode="+" d="M119 431l48 228h355l76 358h233l-75 -358h354l-48 -228h-355l-76 -357h-234l76 357h-354z" />
<glyph unicode="," horiz-adv-x="536" d="M-85 -287l199 611h299l-258 -611h-240z" />
<glyph unicode="-" horiz-adv-x="813" d="M94 428l49 234h595l-49 -234h-595z" />
<glyph unicode="." horiz-adv-x="550" d="M11 174q0 79 60 138.5t140 59.5q79 0 138.5 -59t59.5 -139q0 -81 -59 -140.5t-139 -59.5t-140 59.5t-60 140.5z" />
<glyph unicode="/" horiz-adv-x="1060" d="M-151 -205l1089 1782h288l-1089 -1782h-288z" />
<glyph unicode="0" d="M84 494q0 147 28.5 287t86 262.5t137 215.5t189 146.5t235.5 53.5q218 0 348.5 -134.5t130.5 -385.5q0 -184 -46 -356t-130 -308t-214.5 -218.5t-286.5 -82.5q-218 0 -348 135t-130 385zM369 523q0 -141 54 -212t152 -71q86 0 159 60.5t120 157.5t73 215t26 237 q0 142 -53.5 213t-150.5 71q-70 0 -131.5 -39.5t-106 -106.5t-77.5 -153.5t-49 -182t-16 -189.5z" />
<glyph unicode="1" d="M84 0l55 262h323l174 821l-370 -111l60 280l665 204l-254 -1194h342l-55 -262h-940z" />
<glyph unicode="2" d="M59 0l49 219l572 496q112 96 156.5 166t44.5 142q0 71 -52.5 121.5t-146.5 50.5q-150 0 -282 -154l-157 188q81 99 200 164.5t272 65.5q111 0 200 -34t143 -91.5t82 -128.5t28 -149q0 -137 -70.5 -249.5t-234.5 -253.5l-339 -294h526l-57 -259h-934z" />
<glyph unicode="3" d="M43 175l185 176q51 -61 128.5 -93t169.5 -32q129 0 201.5 61.5t72.5 157.5q0 75 -64 115t-169 40h-157l52 246h147q129 0 211 61.5t82 149.5q0 69 -57 109.5t-149 40.5q-170 0 -304 -146l-145 193q187 205 487 205q209 0 333 -101.5t124 -258.5q0 -126 -76.5 -229.5 t-209.5 -157.5q85 -39 130.5 -109t45.5 -162q0 -200 -155 -333.5t-405 -133.5q-166 0 -287.5 52.5t-190.5 148.5z" />
<glyph unicode="4" d="M17 262l48 221l654 950h319l-629 -913h285l82 382h276l-81 -382h199l-55 -258h-200l-55 -262h-276l55 262h-622z" />
<glyph unicode="5" d="M45 193l181 174q116 -137 310 -137q114 0 183 53t84 141q7 44 -1 81.5t-34.5 68.5t-79.5 48.5t-129 17.5h-343l183 794h798l-54 -257h-553l-68 -287h115q125 0 221 -39.5t150.5 -106.5t74.5 -154.5t2 -185.5q-29 -146 -111.5 -244t-195.5 -142t-255 -44q-154 0 -276.5 56 t-201.5 163z" />
<glyph unicode="6" d="M70 428q0 202 187 431l479 575h350l-428 -495h12q202 0 339.5 -122t137.5 -317q0 -143 -71.5 -263t-201.5 -191.5t-291 -71.5q-141 0 -257.5 55.5t-186 160t-69.5 238.5zM360 442q0 -96 65.5 -156.5t170.5 -60.5q113 0 187 74t74 182q0 97 -67 156t-168 59 q-117 0 -189.5 -73.5t-72.5 -180.5z" />
<glyph unicode="7" d="M183 0l732 1176h-668l54 258h993l-45 -230l-736 -1204h-330z" />
<glyph unicode="8" d="M39 340q0 132 82.5 235.5t233.5 156.5q-151 86 -151 253q0 95 39 180t110 151t180 104.5t239 38.5q127 0 235 -44t175 -130t67 -198q0 -123 -78.5 -222t-219.5 -153q87 -44 136.5 -113.5t49.5 -158.5q0 -96 -42 -181t-117.5 -148.5t-189 -100t-249.5 -36.5 q-137 0 -250 44t-181.5 128.5t-68.5 193.5zM340 388q0 -76 64 -121.5t159 -45.5q125 0 203.5 62t78.5 158q0 79 -66 124t-163 45q-122 0 -199 -63t-77 -159zM495 995q0 -74 54.5 -115.5t145.5 -41.5q115 0 187.5 60.5t72.5 151.5q0 74 -58.5 116.5t-143.5 42.5 q-118 0 -188 -60.5t-70 -153.5z" />
<glyph unicode="9" d="M176 934q0 143 71 262.5t200.5 191t291.5 71.5q142 0 258 -55t185.5 -159.5t69.5 -238.5q0 -206 -186 -432l-479 -574h-350l427 495h-11q-132 0 -240.5 53.5t-172.5 154.5t-64 231zM466 952q0 -97 67 -156t168 -59q115 0 188.5 74t73.5 180q0 96 -66.5 156.5t-170.5 60.5 q-113 0 -186.5 -74t-73.5 -182z" />
<glyph unicode=":" horiz-adv-x="550" d="M10 174q0 79 59.5 138.5t139.5 59.5q79 0 138.5 -59t59.5 -139q0 -81 -59 -140.5t-139 -59.5t-139.5 59.5t-59.5 140.5zM147 821q0 79 60 138.5t140 59.5q79 0 138.5 -59.5t59.5 -138.5q0 -81 -59 -140t-139 -59t-140 59t-60 140z" />
<glyph unicode=";" horiz-adv-x="536" d="M-85 -287l199 611h299l-258 -611h-240zM142 821q0 79 60 138.5t140 59.5t139 -59.5t59 -138.5q0 -81 -59 -140t-139 -59t-140 59t-60 140z" />
<glyph unicode="&#x3c;" d="M173 421l53 249l922 390l-62 -285l-634 -248l529 -248l-53 -248z" />
<glyph unicode="=" d="M83 214l48 228h943l-49 -228h-942zM175 648l48 229h943l-48 -229h-943z" />
<glyph unicode="&#x3e;" d="M104 31l62 284l635 248l-530 249l54 248l754 -390l-53 -249z" />
<glyph unicode="?" horiz-adv-x="885" d="M47 170q0 79 59 137t137 58q77 0 135 -58t58 -136q0 -79 -58 -138t-135 -59q-78 0 -137 59t-59 137zM171 489l74 349h111q148 0 220 48.5t72 134.5q0 80 -81 123t-217 43q-76 0 -101 -3l16 269q60 5 123 5q252 0 405.5 -107t153.5 -295q0 -191 -127 -311t-371 -142 l-32 -114h-246z" />
<glyph unicode="@" horiz-adv-x="1910" d="M119 416q0 189 67.5 359.5t187.5 297.5t296.5 202t381.5 75q213 0 385 -87t272.5 -248.5t100.5 -368.5q0 -153 -48.5 -279.5t-146 -204.5t-227.5 -78q-90 0 -153.5 37.5t-96.5 99.5q-97 -117 -250 -117q-150 0 -246 101.5t-96 263.5q0 184 113.5 317.5t280.5 133.5 q158 0 235 -114l19 93h216l-87 -405q-10 -47 -10 -87q0 -123 95 -123q54 0 94 52t59.5 131.5t19.5 172.5q0 229 -152 367.5t-394 138.5q-152 0 -281.5 -57.5t-216.5 -156t-136 -229.5t-49 -278q0 -256 152.5 -403t395.5 -147q196 0 345 98l110 -167q-197 -136 -474 -136 q-218 0 -391.5 92.5t-272 263t-98.5 390.5zM773 488q0 -82 46 -130.5t118 -48.5q84 0 138.5 66t54.5 159q0 80 -46 129t-119 49q-83 0 -137.5 -66t-54.5 -158z" />
<glyph unicode="A" horiz-adv-x="1500" d="M-78 0l851 1434h347l247 -1434h-292l-52 334h-597l-193 -334h-311zM578 597h404l-86 551z" />
<glyph unicode="B" horiz-adv-x="1391" d="M50 0l305 1434h558q215 0 343 -96t128 -255q0 -123 -70 -220t-193 -139q94 -38 142 -134q31 -63 31 -133q0 -38 -9 -79q-20 -87 -58 -152t-90.5 -108t-126 -69.5t-158 -37.5t-193.5 -11h-609zM395 252l300 -1q131 0 204.5 33t93.5 119q6 27 6 49q0 62 -44 97 q-60 47 -186 47h-300zM522 847h272q292 0 292 195q0 71 -61 105.5t-161 34.5h-271z" />
<glyph unicode="C" horiz-adv-x="1485" d="M134 651q0 171 61.5 321.5t167.5 257t254.5 168t317.5 61.5q56 0 109 -6t123 -26t130.5 -52.5t123 -91.5t108.5 -137l-238 -158q-120 198 -372 198q-132 0 -243 -66.5t-177 -185t-66 -261.5q0 -190 117 -307t291 -117q198 0 345 161l200 -181q-225 -255 -558 -255 q-200 0 -358 85.5t-247 240.5t-89 351z" />
<glyph unicode="D" horiz-adv-x="1555" d="M50 0l305 1434h507q303 0 482.5 -169t179.5 -436q0 -173 -60 -323.5t-170 -263t-278 -177.5t-373 -65h-593zM398 267h279q251 0 398 148t147 381q0 170 -99 270t-294 100h-239z" />
<glyph unicode="E" horiz-adv-x="1325" d="M50 0l305 1434h1043l-57 -263h-750l-68 -317h723l-56 -262h-722l-71 -330h762l-56 -262h-1053z" />
<glyph unicode="F" horiz-adv-x="1280" d="M50 0l305 1434h1031l-56 -264h-739l-70 -326h713l-56 -263h-713l-123 -581h-292z" />
<glyph unicode="G" horiz-adv-x="1616" d="M132 641q0 174 62.5 326.5t170 260t256.5 169.5t318 62q47 0 94 -5t107.5 -20t114.5 -39.5t110.5 -68t100.5 -99.5l-219 -188q-119 150 -332 150q-134 0 -245 -67t-176 -188.5t-65 -273.5q0 -192 114.5 -305.5t301.5 -113.5q163 0 267.5 79t147.5 231h-371l52 239h636 q1 -9 1 -20q0 -32 -6 -84q-27 -216 -129.5 -378.5t-262.5 -248.5t-355 -86q-197 0 -355 83.5t-248 236.5t-90 348z" />
<glyph unicode="H" horiz-adv-x="1568" d="M50 0l305 1434h292l-123 -578h673l124 578h292l-306 -1434h-292l126 590h-674l-125 -590h-292z" />
<glyph unicode="I" horiz-adv-x="603" d="M50 0l305 1434h292l-305 -1434h-292z" />
<glyph unicode="J" horiz-adv-x="1099" d="M-35 177l181 202q95 -131 251 -131q109 0 175.5 73.5t100.5 233.5l185 879h291l-197 -937q-56 -270 -196.5 -396.5t-360.5 -126.5q-136 0 -249.5 53.5t-180.5 149.5z" />
<glyph unicode="K" horiz-adv-x="1421" d="M50 0l305 1434h292l-124 -581h108l562 581h371l-725 -718l487 -716h-335l-395 590h-129l-125 -590h-292z" />
<glyph unicode="L" horiz-adv-x="1212" d="M50 0l305 1434h292l-249 -1167h735l-58 -267h-1025z" />
<glyph unicode="M" horiz-adv-x="1867" d="M50 0l305 1434h409l154 -975l560 975h434l-305 -1434h-291l227 1064l-524 -926h-303l-150 927l-225 -1065h-291z" />
<glyph unicode="N" horiz-adv-x="1582" d="M50 0l305 1434h270l500 -988l210 988h291l-305 -1434h-268l-502 987l-210 -987h-291z" />
<glyph unicode="O" horiz-adv-x="1671" d="M132 644q0 164 60 313.5t165 260t256 176t324 65.5q198 0 356 -82.5t249 -235.5t91 -351q0 -165 -60 -314.5t-165 -260.5t-256 -176.5t-324 -65.5q-198 0 -356 82.5t-249 236.5t-91 352zM431 664q0 -189 116 -302.5t301 -113.5q140 0 252 71.5t173 190.5t61 260 q0 187 -115.5 301.5t-299.5 114.5q-141 0 -254 -72.5t-173.5 -191t-60.5 -258.5z" />
<glyph unicode="P" horiz-adv-x="1309" d="M50 0l305 1434h512q225 0 350 -111.5t125 -287.5q0 -233 -158 -372t-438 -139h-292l-112 -524h-292zM509 785h252q139 0 213 57t74 163q0 80 -54 122.5t-160 42.5h-243z" />
<glyph unicode="Q" horiz-adv-x="1703" d="M132 644q0 164 60 313.5t165 260t256 176t324 65.5q198 0 356 -82.5t249 -235.5t91 -351q0 -280 -162 -499l191 -291h-324l-67 101q-194 -128 -443 -128q-198 0 -356 82.5t-249 236.5t-91 352zM431 664q0 -189 116 -302.5t301 -113.5q149 0 267 82l-214 329h322l69 -106 q42 100 42 217q0 187 -115.5 301.5t-299.5 114.5q-141 0 -254 -72.5t-173.5 -191t-60.5 -258.5z" />
<glyph unicode="R" horiz-adv-x="1360" d="M50 0l305 1434h546q224 0 350 -109t126 -278q0 -65 -15.5 -126.5t-54.5 -123.5t-97.5 -109t-151.5 -79t-209 -38l394 -571h-334l-370 570h-76l-121 -570h-292zM516 819h302q75 0 129 17t81.5 47t40 63t12.5 71q0 71 -55.5 111.5t-159.5 40.5h-275z" />
<glyph unicode="S" horiz-adv-x="1359" d="M34 174l165 229q93 -84 223.5 -124.5t240.5 -40.5q125 0 205 46.5t80 130.5q0 65 -60.5 102t-191.5 61l-91 17q-181 33 -286 130t-105 251q0 79 23.5 150.5t71.5 132t116 105.5t162.5 70t206.5 25q329 0 576 -168l-152 -229q-99 69 -214 100.5t-218 31.5 q-132 0 -198 -51.5t-66 -126.5q0 -68 58 -104.5t166 -57.5l87 -16q422 -82 422 -383q0 -218 -169.5 -350t-441.5 -132q-152 0 -323.5 49.5t-286.5 151.5z" />
<glyph unicode="T" horiz-adv-x="1221" d="M174 1166l57 268h1159l-58 -268h-429l-248 -1166h-291l247 1166h-437z" />
<glyph unicode="U" horiz-adv-x="1489" d="M142 435q0 63 18 155l180 844h293l-181 -847q-13 -63 -13 -105q0 -119 71 -176.5t199 -57.5q139 0 236 81t132 252l180 853h292l-186 -882q-123 -578 -676 -578q-160 0 -281.5 50.5t-192.5 156t-71 254.5z" />
<glyph unicode="V" horiz-adv-x="1467" d="M227 1434h291l168 -1145l645 1145h308l-829 -1434h-348z" />
<glyph unicode="W" horiz-adv-x="2219" d="M244 1434h288l81 -1104l542 1104h302l83 -1097l531 1097h304l-721 -1434h-338l-83 1027l-510 -1027h-352z" />
<glyph unicode="X" horiz-adv-x="1373" d="M-79 0l645 734l-319 700h310l207 -493l416 493h347l-634 -722l332 -712h-312l-218 498l-424 -498h-350z" />
<glyph unicode="Y" horiz-adv-x="1379" d="M208 1434h305l236 -598l474 598h348l-719 -869l-121 -565h-292l125 590z" />
<glyph unicode="Z" horiz-adv-x="1313" d="M14 0l52 237l898 933h-727l56 264h1108l-48 -231l-900 -940h734l-57 -263h-1116z" />
<glyph unicode="[" horiz-adv-x="774" d="M-7 -269l362 1703h556l-51 -242h-286l-259 -1220h285l-51 -241h-556z" />
<glyph unicode="\" horiz-adv-x="1818" d="M295 1577h288l1088 -1782h-288z" />
<glyph unicode="]" horiz-adv-x="774" d="M-100 -269l51 241h285l259 1220h-284l51 242h556l-362 -1703h-556z" />
<glyph unicode="_" horiz-adv-x="962" d="M-179 -323l46 218h973l-46 -218h-973z" />
<glyph unicode="a" horiz-adv-x="1227" d="M60 430q0 85 24 169.5t72 160t113.5 133.5t155 92t189.5 34q205 0 299 -127l23 100h265l-211 -992h-260l18 82q-109 -109 -269 -109q-180 0 -299.5 131.5t-119.5 325.5zM337 458q0 -106 62.5 -170.5t161.5 -64.5q109 0 188 77t93 194q3 22 3 43q0 95 -52 157 q-63 76 -172 76q-120 0 -202 -92t-82 -220z" />
<glyph unicode="b" horiz-adv-x="1230" d="M27 0l313 1475h268l-111 -523q100 68 234 68q123 0 224 -60.5t158 -165t57 -231.5q0 -107 -39 -211.5t-108.5 -189t-176 -136.5t-230.5 -52q-206 0 -300 127l-21 -101h-268zM388 500q-3 -24 -3 -47q-1 -91 51 -153q64 -78 173 -77q121 0 203 92t82 220q0 106 -63 170 t-162 64q-110 0 -188.5 -76t-92.5 -193z" />
<glyph unicode="c" horiz-adv-x="1047" d="M65 446q0 154 71.5 284.5t203 208.5t293.5 78q297 0 423 -232l-225 -127q-79 111 -211 111q-120 0 -200.5 -89.5t-80.5 -214.5q0 -106 62.5 -173t157.5 -67q125 0 215 97l175 -165q-77 -87 -180 -134t-220 -47q-216 0 -350 132.5t-134 337.5z" />
<glyph unicode="d" horiz-adv-x="1230" d="M60 430q0 85 24 169.5t72 160t113.5 133.5t155 92t189.5 34q205 0 299 -127l125 583h269l-314 -1475h-263l18 81q-111 -108 -269 -108q-180 0 -299.5 131.5t-119.5 325.5zM337 458q0 -106 62.5 -170.5t161.5 -64.5q109 0 188 77t93 194q3 22 3 43q0 95 -52 157 q-63 76 -172 76q-120 0 -202 -92t-82 -220z" />
<glyph unicode="e" horiz-adv-x="1097" d="M56 409q0 78 20 160t65 163t109 144.5t162 103t215 39.5q189 0 306 -111t117 -294q0 -114 -39 -206h-689q3 -99 62.5 -153t164.5 -54q136 0 246 87l137 -174q-160 -141 -406 -141q-219 0 -344.5 121.5t-125.5 314.5zM352 590h440q1 3 1 9v9q0 88 -48.5 134t-133.5 46 q-99 0 -162.5 -56t-96.5 -142z" />
<glyph unicode="f" horiz-adv-x="837" d="M95 755l50 237h184l31 148q77 360 397 360q175 0 285 -93l-135 -200q-68 45 -140 45q-114 0 -145 -150l-24 -110h290l-50 -237h-291l-161 -755h-268l161 755h-184z" />
<glyph unicode="g" horiz-adv-x="1222" d="M-19 -281l124 211q153 -117 333 -117q118 0 195.5 67t100.5 178l4 21q-98 -71 -238 -71q-188 0 -312.5 123.5t-124.5 310.5q0 87 24 170.5t71 157t112 129.5t153 88t187 32q205 0 298 -125l22 98h266l-201 -937q-49 -230 -192 -354t-356 -124q-261 0 -466 142zM337 475 q0 -96 62 -158.5t158 -62.5q121 0 200.5 83t79.5 211q0 98 -62.5 161t-159.5 63q-121 0 -199.5 -83.5t-78.5 -213.5z" />
<glyph unicode="h" horiz-adv-x="1188" d="M27 0l313 1475h268l-120 -567q108 111 272 111q154 0 244 -92.5t90 -240.5q0 -52 -12 -107l-124 -579h-268l120 557q7 31 7 66q0 66 -37 105.5t-117 39.5q-91 0 -160 -57t-94 -179l-113 -532h-269z" />
<glyph unicode="i" horiz-adv-x="533" d="M27 0l211 992h269l-211 -992h-269zM270 1317q0 72 49 122t121 50q71 0 121 -50t50 -122t-49.5 -121t-121.5 -49t-121 49t-49 121z" />
<glyph unicode="j" horiz-adv-x="540" d="M-257 -392l83 224q31 -14 71 -14q43 0 76.5 28.5t45.5 86.5l225 1059h270l-235 -1108q-34 -156 -128 -235.5t-228 -79.5q-102 0 -180 39zM275 1317q0 72 49 122t121 50q71 0 121 -50t50 -122t-49.5 -121t-121.5 -49t-121 49t-49 121z" />
<glyph unicode="k" horiz-adv-x="1095" d="M27 0l313 1475h269l-177 -836h80l329 353h337l-479 -488l295 -504h-296l-225 401h-92l-85 -401h-269z" />
<glyph unicode="l" horiz-adv-x="533" d="M27 0l313 1475h269l-313 -1475h-269z" />
<glyph unicode="m" horiz-adv-x="1852" d="M27 0l211 992h258l-23 -100q111 127 287 127q104 0 179.5 -44t115.5 -122q132 166 357 166q158 0 251.5 -92.5t93.5 -240.5q0 -56 -11 -107l-125 -579h-268l120 557q7 31 7 66q0 66 -37.5 105.5t-119.5 39.5q-91 0 -160 -57t-94 -179l-113 -532h-267l119 557q8 31 8 60 q0 9 -1 18q-3 38 -16.5 67.5t-48.5 47.5t-88 18q-91 0 -160 -57t-94 -179l-113 -532h-268z" />
<glyph unicode="n" horiz-adv-x="1188" d="M27 0l211 992h258l-23 -100q111 127 287 127q154 0 244 -92.5t90 -240.5q0 -52 -12 -107l-124 -579h-268l120 557q7 31 7 66q0 145 -155 145q-91 0 -160 -57t-94 -179l-113 -532h-268z" />
<glyph unicode="o" horiz-adv-x="1199" d="M65 450q0 154 73.5 284t206 207.5t294.5 77.5q216 0 356 -132.5t140 -342.5q0 -115 -43.5 -220t-119 -182.5t-183 -123t-229.5 -45.5q-215 0 -355 133t-140 344zM338 466q0 -107 67 -175.5t172 -68.5q120 0 202 89t82 215q0 108 -66.5 176t-173.5 68q-120 0 -201.5 -88.5 t-81.5 -215.5z" />
<glyph unicode="p" horiz-adv-x="1229" d="M-60 -410l298 1402h262l-18 -81q116 109 269 109q180 0 299 -131.5t119 -325.5q0 -85 -24 -169.5t-72 -160t-113.5 -133.5t-155 -92t-189.5 -34q-205 0 -299 126l-107 -510h-269zM388 500q-3 -24 -3 -47q0 -90 51 -153q65 -77 173 -77q120 0 202 92t82 220 q0 106 -62.5 170t-161.5 64q-110 0 -188.5 -76t-92.5 -193z" />
<glyph unicode="q" d="M60 430q0 85 24 169.5t72 160t113.5 133.5t155 92t189.5 34q205 0 299 -127l23 100h266l-298 -1402h-269l95 448q-94 -65 -231 -65q-123 0 -224 60.5t-158 165t-57 231.5zM337 458q0 -106 62.5 -170.5t161.5 -64.5q109 0 188 77t93 194q3 22 3 43q0 94 -52 157 q-63 76 -172 76q-120 0 -202 -92t-82 -220z" />
<glyph unicode="r" horiz-adv-x="836" d="M27 0l211 992h258l-24 -104q110 131 283 131q74 0 147 -30l-86 -257q-64 32 -144 32q-97 0 -168.5 -60t-96.5 -176l-112 -528h-268z" />
<glyph unicode="s" horiz-adv-x="990" d="M-14 109l128 195q157 -107 328 -107q169 0 180 92v8q0 31 -28 51q-32 22 -110 35l-68 11q-166 26 -238 108q-61 69 -61 167q0 19 2 39q19 150 132.5 230t300.5 80q242 0 433 -110l-122 -199q-66 40 -155.5 63.5t-155.5 23.5q-148 0 -159 -81q-1 -6 0 -12q-1 -39 27 -55 q32 -20 112 -33l67 -12q165 -30 237 -109q60 -65 59 -158q0 -19 -2 -40q-19 -151 -137.5 -236.5t-317.5 -85.5q-122 0 -244.5 35.5t-207.5 99.5z" />
<glyph unicode="t" horiz-adv-x="945" d="M94 755l51 237h186l63 295h270l-64 -295h348l-51 -237h-347l-77 -360q-7 -32 -6 -57q0 -44 19 -72q31 -43 100 -43q83 0 173 57l94 -211q-147 -95 -316 -95q-203 0 -289 112q-59 76 -58 190q0 54 13 117l77 362h-186z" />
<glyph unicode="u" horiz-adv-x="1179" d="M101 335q0 48 15 121l113 536h270l-119 -557q-7 -34 -7 -65q0 -74 43.5 -110.5t117.5 -36.5q91 0 155.5 59.5t88.5 175.5l113 534h270l-124 -581q-25 -118 -76.5 -204.5t-122.5 -136t-152.5 -73t-176.5 -23.5q-183 0 -295.5 95t-112.5 266z" />
<glyph unicode="v" horiz-adv-x="1111" d="M121 992h274l116 -721l399 721h291l-581 -992h-309z" />
<glyph unicode="w" horiz-adv-x="1743" d="M129 992h268l77 -690l352 690h275l83 -690l353 690h290l-540 -992h-297l-78 672l-341 -672h-306z" />
<glyph unicode="x" horiz-adv-x="1111" d="M-62 0l459 507l-265 485h295l155 -312l262 312h323l-456 -506l268 -486h-292l-163 307l-264 -307h-322z" />
<glyph unicode="y" horiz-adv-x="1146" d="M-26 -414l462 654l-320 752h288l201 -505l336 505h304l-965 -1406h-306z" />
<glyph unicode="z" horiz-adv-x="1031" d="M0 0l42 204l581 551h-476l52 237h832l-44 -204l-573 -549h483l-50 -239h-847z" />
<glyph unicode="{" horiz-adv-x="894" d="M87 465l50 234q119 0 181 50.5t80 154.5l23 131q34 199 156.5 299t343.5 100h92l-51 -238h-48q-99 0 -154 -44t-71 -143l-16 -97q-23 -141 -87 -221.5t-192 -118.5q69 -30 107.5 -81t42.5 -110.5t-12 -127.5l-25 -96q-24 -93 15.5 -140.5t131.5 -47.5h67l-51 -237h-88 q-106 0 -183.5 37t-116.5 101.5t-49.5 150.5t16.5 184l17 69q24 91 -24.5 141t-154.5 50z" />
<glyph unicode="|" horiz-adv-x="701" d="M54 -271l363 1705h266l-362 -1705h-267z" />
<glyph unicode="}" horiz-adv-x="894" d="M-81 -268l51 237h47q99 0 153.5 44.5t72.5 143.5l16 96q25 142 88.5 222t189.5 118q-103 43 -134.5 127.5t-3.5 191.5l26 97q24 93 -16 140t-131 47h-67l51 238h88q106 0 183.5 -37t116.5 -101.5t49.5 -150.5t-16.5 -184l-17 -70q-24 -91 24.5 -141t154.5 -50l-50 -234 q-119 0 -181 -50.5t-80 -154.5l-23 -131q-68 -398 -500 -398h-92z" />
<glyph unicode="&#xa1;" horiz-adv-x="550" d="M-76 -440l235 941h232l-146 -941h-321zM139 823q0 77 59 136.5t135 59.5q77 0 136 -59.5t59 -136.5q0 -78 -58.5 -135.5t-136.5 -57.5q-77 0 -135.5 57.5t-58.5 135.5z" />
<glyph unicode="&#xa3;" horiz-adv-x="1433" d="M88 0l55 259h156l74 346h-157l48 223h156l27 130q52 246 204.5 373.5t368.5 127.5q263 0 386 -167l-204 -179q-76 82 -206 82q-221 0 -280 -286l-18 -81h485l-48 -223h-484l-72 -346h633l-55 -259h-1069z" />
<glyph unicode="&#xa5;" horiz-adv-x="1433" d="M173 275l41 190h364l29 138h-365l42 190h279l-291 641h305l216 -521l434 521h332l-557 -641h287l-42 -190h-363l-30 -138h365l-40 -190h-366l-58 -275h-277l59 275h-364z" />
<glyph unicode="&#xa7;" horiz-adv-x="1260" d="M-18 -163l165 203q65 -53 158 -88.5t200 -35.5q104 0 178.5 34.5t86.5 94.5q7 37 -4 62.5t-44.5 43t-73 28t-107.5 22.5l-76 12q-172 29 -259.5 121t-57.5 230q34 159 187 248q-102 104 -67 277q33 167 185 268.5t362 101.5q286 0 489 -134l-155 -208q-162 98 -343 98 q-102 0 -174 -34.5t-82 -89.5q-8 -39 4.5 -67.5t45.5 -46.5t70.5 -28t93.5 -18l65 -10q197 -31 284.5 -127t55.5 -246q-34 -154 -181 -239q97 -107 65 -260q-25 -123 -112.5 -210.5t-203 -126.5t-249.5 -39q-150 0 -288 43t-218 121zM426 585q-6 -28 2.5 -50t26.5 -36 t50.5 -25.5t65 -18t79.5 -12.5l66 -9q51 -8 71 -14q93 41 109 111q16 72 -43 107.5t-193 53.5l-74 10l-39 7q-105 -42 -121 -124z" />
<glyph unicode="&#xa9;" horiz-adv-x="1903" d="M153 672q0 172 71 333t191.5 281t289 192.5t353.5 72.5q160 0 305.5 -58.5t252.5 -159.5t170 -245t63 -306q0 -172 -71 -333t-191 -281t-288.5 -192.5t-353.5 -72.5q-215 0 -396 99t-288.5 276.5t-107.5 393.5zM390 686q0 -159 78 -288t208.5 -200t284.5 -71 q135 0 257 53.5t208 141.5t136.5 205t50.5 241q0 159 -78 288t-208.5 200t-284.5 71q-135 0 -257 -53.5t-208 -141.5t-136.5 -205t-50.5 -241zM580 690q0 193 129.5 328.5t330.5 135.5q132 0 235 -60t147 -165l-205 -99q-55 114 -186 114q-97 0 -157.5 -70.5t-60.5 -170.5 q0 -91 53.5 -141t134.5 -50q113 0 188 101l165 -124q-132 -188 -365 -188q-111 0 -202.5 44t-149 134t-57.5 211z" />
<glyph unicode="&#xab;" horiz-adv-x="1113" d="M90 545l283 399h281l-302 -427l105 -372h-255zM550 545l283 399h281l-302 -427l104 -372h-254z" />
<glyph unicode="&#xad;" horiz-adv-x="813" d="M94 428l49 234h595l-49 -234h-595z" />
<glyph unicode="&#xae;" horiz-adv-x="1076" d="M170 981q0 130 66.5 244t184 183.5t257.5 69.5q185 0 316 -123t131 -312q0 -128 -66.5 -242t-184.5 -184t-256 -70q-186 0 -317 122.5t-131 311.5zM321 990q0 -132 89.5 -219t215.5 -87q143 0 245 106.5t102 244.5q0 131 -88.5 218t-213.5 87q-147 0 -248.5 -106 t-101.5 -244zM435 807l88 417h187q80 0 123 -46t30 -106q-22 -102 -152 -119l110 -146h-134l-95 144h-7l-31 -144h-119zM604 1048h77q54 0 61 33q5 18 -7.5 28.5t-38.5 10.5h-76z" />
<glyph unicode="&#xb0;" horiz-adv-x="872" d="M157 1034q0 175 122.5 299t305.5 124q156 0 263.5 -107.5t107.5 -259.5q0 -171 -124.5 -295.5t-302.5 -124.5q-158 0 -265 106.5t-107 257.5zM378 1050q0 -72 47.5 -122t117.5 -50q75 0 133.5 57.5t58.5 138.5q0 70 -48.5 120.5t-116.5 50.5q-75 0 -133.5 -57t-58.5 -138 z" />
<glyph unicode="&#xb7;" horiz-adv-x="652" d="M143 546q0 79 60 138t140 59t139 -59t59 -138q0 -81 -59 -140.5t-139 -59.5t-140 59.5t-60 140.5z" />
<glyph unicode="&#xbb;" horiz-adv-x="1113" d="M19 146l303 427l-105 372h255l112 -399l-283 -400h-282zM479 146l302 427l-104 372h255l111 -399l-282 -400h-282z" />
<glyph unicode="&#xbf;" horiz-adv-x="885" d="M-61 -62q0 190 127 310t370 142l33 114h246l-74 -348h-112q-148 0 -219.5 -48.5t-71.5 -135.5q0 -80 81 -123t217 -43q68 0 101 4l-16 -270q-60 -5 -123 -5q-253 0 -406 107.5t-153 295.5zM450 822q0 79 58 138t135 59t136.5 -59.5t59.5 -136.5q0 -79 -59 -136.5 t-137 -57.5q-77 0 -135 57.5t-58 135.5z" />
<glyph unicode="&#xc0;" horiz-adv-x="1500" d="M-78 0l851 1434h347l247 -1434h-292l-52 334h-597l-193 -334h-311zM578 597h404l-86 551zM602 1877h320l205 -323h-255z" />
<glyph unicode="&#xc1;" horiz-adv-x="1500" d="M-78 0l851 1434h347l247 -1434h-292l-52 334h-597l-193 -334h-311zM578 597h404l-86 551zM771 1553l238 324h326l-303 -324h-261z" />
<glyph unicode="&#xc2;" horiz-adv-x="1500" d="M-78 0l851 1434h347l247 -1434h-292l-52 334h-597l-193 -334h-311zM563 1544l284 323h322l157 -323h-252l-89 159l-151 -159h-271zM578 597h404l-86 551z" />
<glyph unicode="&#xc3;" horiz-adv-x="1500" d="M-78 0l851 1434h347l247 -1434h-292l-52 334h-597l-193 -334h-311zM558 1725q63 70 129.5 99.5t146.5 29.5q65 0 117 -18t87 -35.5t59 -17.5q33 0 63 17t75 55l131 -161q-115 -130 -275 -130q-65 0 -117 18t-86.5 35.5t-59.5 17.5q-34 0 -65.5 -17.5t-72.5 -53.5z M578 597h404l-86 551z" />
<glyph unicode="&#xc4;" horiz-adv-x="1500" d="M-78 0l851 1434h347l247 -1434h-292l-52 334h-597l-193 -334h-311zM578 597h404l-86 551zM593 1706q0 72 49 122t121 50t122 -50t50 -122t-50 -121t-122 -49t-121 49t-49 121zM1034 1706q0 72 49 122t121 50t122 -50t50 -122t-50 -121t-122 -49t-121 49t-49 121z" />
<glyph unicode="&#xc5;" horiz-adv-x="1500" d="M-78 0l851 1434h347l247 -1434h-292l-52 334h-597l-193 -334h-311zM578 597h404l-86 551zM709 1786q0 108 78.5 185.5t188.5 77.5q111 0 190 -77.5t79 -185.5q0 -110 -79 -187t-190 -77t-189 77t-78 187zM868 1786q0 -46 32.5 -79t75.5 -33q45 0 77 33t32 79t-32 78 t-77 32q-43 0 -75.5 -32.5t-32.5 -77.5z" />
<glyph unicode="&#xc6;" horiz-adv-x="2356" d="M-83 0l1338 1434h1174l-56 -263h-751l-68 -317h723l-56 -262h-722l-71 -330h762l-56 -262h-1053l64 301h-586l-275 -301h-367zM800 564h401l122 573z" />
<glyph unicode="&#xc7;" horiz-adv-x="1485" d="M134 651q0 171 61.5 321.5t167.5 257t254.5 168t317.5 61.5q56 0 109 -6t123 -26t130.5 -52.5t123 -91.5t108.5 -137l-238 -158q-120 198 -372 198q-132 0 -243 -66.5t-177 -185t-66 -261.5q0 -190 117 -307t291 -117q198 0 345 161l200 -181q-225 -255 -558 -255 q-200 0 -358 85.5t-247 240.5t-89 351zM480 -329l185 336h269l-165 -336h-289z" />
<glyph unicode="&#xc8;" horiz-adv-x="1325" d="M50 0l305 1434h1043l-57 -263h-750l-68 -317h723l-56 -262h-722l-71 -330h762l-56 -262h-1053zM526 1877h320l206 -323h-255z" />
<glyph unicode="&#xc9;" horiz-adv-x="1325" d="M50 0l305 1434h1043l-57 -263h-750l-68 -317h723l-56 -262h-722l-71 -330h762l-56 -262h-1053zM695 1553l238 324h327l-304 -324h-261z" />
<glyph unicode="&#xca;" horiz-adv-x="1325" d="M50 0l305 1434h1043l-57 -263h-750l-68 -317h723l-56 -262h-722l-71 -330h762l-56 -262h-1053zM487 1544l284 323h323l156 -323h-252l-89 159l-151 -159h-271z" />
<glyph unicode="&#xcb;" horiz-adv-x="1325" d="M50 0l305 1434h1043l-57 -263h-750l-68 -317h723l-56 -262h-722l-71 -330h762l-56 -262h-1053zM517 1706q0 72 49 122t121 50t122 -50t50 -122t-50 -121t-122 -49t-121 49t-49 121zM958 1706q0 72 49 122t121 50t122 -50t50 -122t-50 -121t-122 -49t-121 49t-49 121z" />
<glyph unicode="&#xcc;" horiz-adv-x="603" d="M50 0l305 1434h292l-305 -1434h-292zM156 1877h319l206 -323h-255z" />
<glyph unicode="&#xcd;" horiz-adv-x="603" d="M50 0l305 1434h292l-305 -1434h-292zM325 1553l237 324h327l-303 -324h-261z" />
<glyph unicode="&#xce;" horiz-adv-x="603" d="M50 0l305 1434h292l-305 -1434h-292zM117 1544l283 323h323l157 -323h-252l-89 159l-152 -159h-270z" />
<glyph unicode="&#xcf;" horiz-adv-x="603" d="M50 0l305 1434h292l-305 -1434h-292zM146 1706q0 72 49 122t121 50t122 -50t50 -122t-50 -121t-122 -49t-121 49t-49 121zM588 1706q0 72 49 122t121 50t122 -50t50 -122t-50 -121t-122 -49t-121 49t-49 121z" />
<glyph unicode="&#xd0;" horiz-adv-x="1674" d="M115 595l54 256h181l124 583h507q303 0 482 -169t179 -436q0 -173 -59.5 -323.5t-169.5 -263t-278 -177.5t-373 -65h-593l126 595h-180zM517 267h279q251 0 397.5 148t146.5 381q0 170 -98.5 270t-293.5 100h-239l-67 -315h330l-56 -256h-329z" />
<glyph unicode="&#xd1;" horiz-adv-x="1582" d="M50 0l305 1434h270l500 -988l210 988h291l-305 -1434h-268l-502 987l-210 -987h-291zM589 1725q63 70 129 99.5t146 29.5q65 0 117 -18t87 -35.5t59 -17.5q33 0 64 17t75 55l131 -161q-115 -130 -276 -130q-65 0 -116.5 18t-86 35.5t-59.5 17.5q-34 0 -65.5 -17.5 t-72.5 -53.5z" />
<glyph unicode="&#xd2;" horiz-adv-x="1671" d="M132 644q0 164 60 313.5t165 260t256 176t324 65.5q198 0 356 -82.5t249 -235.5t91 -351q0 -165 -60 -314.5t-165 -260.5t-256 -176.5t-324 -65.5q-198 0 -356 82.5t-249 236.5t-91 352zM431 664q0 -189 116 -302.5t301 -113.5q140 0 252 71.5t173 190.5t61 260 q0 187 -115.5 301.5t-299.5 114.5q-141 0 -254 -72.5t-173.5 -191t-60.5 -258.5zM616 1877h320l206 -323h-255z" />
<glyph unicode="&#xd3;" horiz-adv-x="1671" d="M132 644q0 164 60 313.5t165 260t256 176t324 65.5q198 0 356 -82.5t249 -235.5t91 -351q0 -165 -60 -314.5t-165 -260.5t-256 -176.5t-324 -65.5q-198 0 -356 82.5t-249 236.5t-91 352zM431 664q0 -189 116 -302.5t301 -113.5q140 0 252 71.5t173 190.5t61 260 q0 187 -115.5 301.5t-299.5 114.5q-141 0 -254 -72.5t-173.5 -191t-60.5 -258.5zM785 1553l238 324h327l-303 -324h-262z" />
<glyph unicode="&#xd4;" horiz-adv-x="1671" d="M132 644q0 164 60 313.5t165 260t256 176t324 65.5q198 0 356 -82.5t249 -235.5t91 -351q0 -165 -60 -314.5t-165 -260.5t-256 -176.5t-324 -65.5q-198 0 -356 82.5t-249 236.5t-91 352zM431 664q0 -189 116 -302.5t301 -113.5q140 0 252 71.5t173 190.5t61 260 q0 187 -115.5 301.5t-299.5 114.5q-141 0 -254 -72.5t-173.5 -191t-60.5 -258.5zM578 1544l283 323h323l156 -323h-251l-90 159l-151 -159h-270z" />
<glyph unicode="&#xd5;" horiz-adv-x="1671" d="M132 644q0 164 60 313.5t165 260t256 176t324 65.5q198 0 356 -82.5t249 -235.5t91 -351q0 -165 -60 -314.5t-165 -260.5t-256 -176.5t-324 -65.5q-198 0 -356 82.5t-249 236.5t-91 352zM431 664q0 -189 116 -302.5t301 -113.5q140 0 252 71.5t173 190.5t61 260 q0 187 -115.5 301.5t-299.5 114.5q-141 0 -254 -72.5t-173.5 -191t-60.5 -258.5zM572 1725q63 70 129.5 99.5t146.5 29.5q65 0 117 -18t87 -35.5t59 -17.5q33 0 63 17t75 55l131 -161q-115 -130 -275 -130q-65 0 -116.5 18t-86 35.5t-59.5 17.5q-34 0 -65.5 -17.5 t-72.5 -53.5z" />
<glyph unicode="&#xd6;" horiz-adv-x="1671" d="M132 644q0 164 60 313.5t165 260t256 176t324 65.5q198 0 356 -82.5t249 -235.5t91 -351q0 -165 -60 -314.5t-165 -260.5t-256 -176.5t-324 -65.5q-198 0 -356 82.5t-249 236.5t-91 352zM431 664q0 -189 116 -302.5t301 -113.5q140 0 252 71.5t173 190.5t61 260 q0 187 -115.5 301.5t-299.5 114.5q-141 0 -254 -72.5t-173.5 -191t-60.5 -258.5zM607 1706q0 72 49 122t121 50t122 -50t50 -122t-50 -121t-122 -49t-121 49t-49 121zM1049 1706q0 72 49 122t121 50t122 -50t50 -122t-50 -121t-122 -49t-121 49t-49 121z" />
<glyph unicode="&#xd7;" d="M104 259l347 286l-225 285l183 151l215 -272l360 298l140 -177l-346 -284l224 -286l-182 -150l-215 272l-360 -299z" />
<glyph unicode="&#xd8;" horiz-adv-x="1671" d="M81 145l149 134q-98 161 -98 365q0 164 60 313.5t165 260t256 176t324 65.5q269 0 455 -146l169 150l155 -176l-171 -151q88 -151 88 -346q0 -165 -60 -314.5t-165 -260.5t-256 -176.5t-324 -65.5q-251 0 -438 135l-153 -138zM431 664q0 -98 33 -178l703 627 q-105 73 -248 73q-141 0 -254 -72.5t-173.5 -191t-60.5 -258.5zM615 308q99 -60 233 -60q140 0 252 71.5t173 190.5t61 260q0 84 -25 155z" />
<glyph unicode="&#xd9;" horiz-adv-x="1489" d="M142 435q0 63 18 155l180 844h293l-181 -847q-13 -63 -13 -105q0 -119 71 -176.5t199 -57.5q139 0 236 81t132 252l180 853h292l-186 -882q-123 -578 -676 -578q-160 0 -281.5 50.5t-192.5 156t-71 254.5zM600 1877h320l205 -323h-255z" />
<glyph unicode="&#xda;" horiz-adv-x="1489" d="M142 435q0 63 18 155l180 844h293l-181 -847q-13 -63 -13 -105q0 -119 71 -176.5t199 -57.5q139 0 236 81t132 252l180 853h292l-186 -882q-123 -578 -676 -578q-160 0 -281.5 50.5t-192.5 156t-71 254.5zM769 1553l238 324h326l-303 -324h-261z" />
<glyph unicode="&#xdb;" horiz-adv-x="1489" d="M142 435q0 63 18 155l180 844h293l-181 -847q-13 -63 -13 -105q0 -119 71 -176.5t199 -57.5q139 0 236 81t132 252l180 853h292l-186 -882q-123 -578 -676 -578q-160 0 -281.5 50.5t-192.5 156t-71 254.5zM561 1544l284 323h322l157 -323h-252l-89 159l-152 -159h-270z " />
<glyph unicode="&#xdc;" horiz-adv-x="1489" d="M142 435q0 63 18 155l180 844h293l-181 -847q-13 -63 -13 -105q0 -119 71 -176.5t199 -57.5q139 0 236 81t132 252l180 853h292l-186 -882q-123 -578 -676 -578q-160 0 -281.5 50.5t-192.5 156t-71 254.5zM591 1706q0 72 49 122t121 50t122 -50t50 -122t-50 -121 t-122 -49t-121 49t-49 121zM1032 1706q0 72 49 122t121 50t122 -50t50 -122t-50 -121t-122 -49t-121 49t-49 121z" />
<glyph unicode="&#xdd;" horiz-adv-x="1379" d="M208 1434h305l236 -598l474 598h348l-719 -869l-121 -565h-292l125 590zM692 1553l238 324h326l-303 -324h-261z" />
<glyph unicode="&#xde;" horiz-adv-x="1325" d="M50 0l305 1434h292l-52 -246h236q224 0 349.5 -112t125.5 -288q0 -233 -158 -371t-438 -138h-309l-59 -279h-292zM457 540h267q140 0 213.5 57t73.5 162q0 79 -54 122t-160 43h-258z" />
<glyph unicode="&#xdf;" horiz-adv-x="1233" d="M22 0l215 1017q52 237 186 360t373 123q208 0 329.5 -107.5t121.5 -267.5q0 -131 -80 -239.5t-210 -151.5q101 -33 156.5 -139.5t31.5 -226.5q-81 -394 -520 -394q-139 0 -222 37l76 223q60 -26 137 -26q230 0 263 190q17 100 -44 160t-189 60h-43l50 231h11 q145 0 221 58q40 29 63.5 81t23.5 98q0 73 -56 120.5t-135 47.5q-112 0 -181 -61.5t-97 -194.5l-212 -998h-269z" />
<glyph unicode="&#xe0;" horiz-adv-x="1227" d="M60 430q0 85 24 169.5t72 160t113.5 133.5t155 92t189.5 34q205 0 299 -127l23 100h265l-211 -992h-260l18 82q-109 -109 -269 -109q-180 0 -299.5 131.5t-119.5 325.5zM337 458q0 -106 62.5 -170.5t161.5 -64.5q109 0 188 77t93 194q14 123 -49 199.5t-172 76.5 q-120 0 -202 -92t-82 -220zM352 1457h320l206 -322h-255z" />
<glyph unicode="&#xe1;" horiz-adv-x="1227" d="M60 430q0 85 24 169.5t72 160t113.5 133.5t155 92t189.5 34q205 0 299 -127l23 100h265l-211 -992h-260l18 82q-109 -109 -269 -109q-180 0 -299.5 131.5t-119.5 325.5zM337 458q0 -106 62.5 -170.5t161.5 -64.5q109 0 188 77t93 194q14 123 -49 199.5t-172 76.5 q-120 0 -202 -92t-82 -220zM523 1134l238 323h326l-303 -323h-261z" />
<glyph unicode="&#xe2;" horiz-adv-x="1227" d="M60 430q0 85 24 169.5t72 160t113.5 133.5t155 92t189.5 34q205 0 299 -127l23 100h265l-211 -992h-260l18 82q-109 -109 -269 -109q-180 0 -299.5 131.5t-119.5 325.5zM313 1124l284 323h323l156 -323h-252l-89 159l-151 -159h-271zM337 458q0 -106 62.5 -170.5 t161.5 -64.5q109 0 188 77t93 194q14 123 -49 199.5t-172 76.5q-120 0 -202 -92t-82 -220z" />
<glyph unicode="&#xe3;" horiz-adv-x="1227" d="M60 430q0 85 24 169.5t72 160t113.5 133.5t155 92t189.5 34q205 0 299 -127l23 100h265l-211 -992h-260l18 82q-109 -109 -269 -109q-180 0 -299.5 131.5t-119.5 325.5zM307 1306q63 70 129.5 99.5t146.5 29.5q65 0 117 -18t87 -36t59 -18q33 0 62.5 17t75.5 56l131 -162 q-115 -130 -275 -130q-65 0 -116.5 18t-86 35.5t-59.5 17.5q-58 0 -139 -71zM337 458q0 -106 62.5 -170.5t161.5 -64.5q109 0 188 77t93 194q14 123 -49 199.5t-172 76.5q-120 0 -202 -92t-82 -220z" />
<glyph unicode="&#xe4;" horiz-adv-x="1227" d="M60 430q0 85 24 169.5t72 160t113.5 133.5t155 92t189.5 34q205 0 299 -127l23 100h265l-211 -992h-260l18 82q-109 -109 -269 -109q-180 0 -299.5 131.5t-119.5 325.5zM337 458q0 -106 62.5 -170.5t161.5 -64.5q109 0 188 77t93 194q14 123 -49 199.5t-172 76.5 q-120 0 -202 -92t-82 -220zM342 1286q0 72 49 122t121 50t122 -50t50 -122t-50 -121t-122 -49t-121 49t-49 121zM783 1286q0 72 49 122t121 50t122 -50t50 -122t-50 -121t-122 -49t-121 49t-49 121z" />
<glyph unicode="&#xe5;" horiz-adv-x="1227" d="M60 430q0 85 24 169.5t72 160t113.5 133.5t155 92t189.5 34q205 0 299 -127l23 100h265l-211 -992h-260l18 82q-109 -109 -269 -109q-180 0 -299.5 131.5t-119.5 325.5zM337 458q0 -106 62.5 -170.5t161.5 -64.5q109 0 188 77t93 194q14 123 -49 199.5t-172 76.5 q-120 0 -202 -92t-82 -220zM446 1366q0 107 79 185t189 78q111 0 190 -77.5t79 -185.5q0 -110 -79 -187t-190 -77t-189.5 77t-78.5 187zM606 1366q0 -46 32.5 -79t75.5 -33q45 0 77 33t32 79t-32 78.5t-77 32.5q-43 0 -75.5 -33t-32.5 -78z" />
<glyph unicode="&#xe6;" horiz-adv-x="1740" d="M37 253q0 156 116 247.5t313 91.5h263q3 20 3 40q0 151 -202 151q-123 0 -258 -74l-81 210q172 100 388 100q234 0 331 -146q135 146 359 146q189 0 306.5 -111t117.5 -294q0 -113 -40 -206h-689q3 -99 62.5 -153t164.5 -54q139 0 246 87l137 -174q-160 -141 -406 -141 q-254 0 -380 165q-174 -164 -401 -164q-162 0 -256 75.5t-94 203.5zM315 289q0 -46 34 -73t96 -27q67 0 138 31t130 91q-10 52 -10 98v3h-210q-83 0 -130.5 -32.5t-47.5 -90.5zM993 586h441q1 3 1 11v11q0 88 -48.5 134t-133.5 46q-100 0 -164.5 -57.5t-95.5 -144.5z" />
<glyph unicode="&#xe7;" horiz-adv-x="1047" d="M65 446q0 154 71.5 284.5t203 208.5t293.5 78q297 0 423 -232l-225 -127q-79 111 -211 111q-120 0 -200.5 -89.5t-80.5 -214.5q0 -106 62.5 -173t157.5 -67q125 0 215 97l175 -165q-77 -87 -180 -134t-220 -47q-216 0 -350 132.5t-134 337.5zM210 -329l185 336h252 l-166 -336h-271z" />
<glyph unicode="&#xe8;" horiz-adv-x="1097" d="M56 409q0 78 20 160t65 163t109 144.5t162 103t215 39.5q189 0 306 -111t117 -294q0 -114 -39 -206h-689q3 -99 62.5 -153t164.5 -54q136 0 246 87l137 -174q-160 -141 -406 -141q-219 0 -344.5 121.5t-125.5 314.5zM312 1457h320l206 -322h-255zM352 590h440q1 3 1 9v9 q0 88 -48.5 134t-133.5 46q-99 0 -162.5 -56t-96.5 -142z" />
<glyph unicode="&#xe9;" horiz-adv-x="1097" d="M56 409q0 78 20 160t65 163t109 144.5t162 103t215 39.5q189 0 306 -111t117 -294q0 -114 -39 -206h-689q3 -99 62.5 -153t164.5 -54q136 0 246 87l137 -174q-160 -141 -406 -141q-219 0 -344.5 121.5t-125.5 314.5zM352 590h440q1 3 1 9v9q0 88 -48.5 134t-133.5 46 q-99 0 -162.5 -56t-96.5 -142zM483 1134l238 323h327l-304 -323h-261z" />
<glyph unicode="&#xea;" horiz-adv-x="1097" d="M56 409q0 78 20 160t65 163t109 144.5t162 103t215 39.5q189 0 306 -111t117 -294q0 -114 -39 -206h-689q3 -99 62.5 -153t164.5 -54q136 0 246 87l137 -174q-160 -141 -406 -141q-219 0 -344.5 121.5t-125.5 314.5zM273 1124l284 323h323l156 -323h-252l-89 159 l-151 -159h-271zM352 590h440q1 3 1 9v9q0 88 -48.5 134t-133.5 46q-99 0 -162.5 -56t-96.5 -142z" />
<glyph unicode="&#xeb;" horiz-adv-x="1097" d="M56 409q0 78 20 160t65 163t109 144.5t162 103t215 39.5q189 0 306 -111t117 -294q0 -114 -39 -206h-689q3 -99 62.5 -153t164.5 -54q136 0 246 87l137 -174q-160 -141 -406 -141q-219 0 -344.5 121.5t-125.5 314.5zM302 1286q0 72 49 122t121 50t122 -50t50 -122 t-50 -121t-122 -49t-121 49t-49 121zM352 590h440q1 3 1 9v9q0 88 -48.5 134t-133.5 46q-99 0 -162.5 -56t-96.5 -142zM743 1286q0 72 49 122t121 50t122 -50t50 -122t-50 -121t-122 -49t-121 49t-49 121z" />
<glyph unicode="&#xec;" horiz-adv-x="533" d="M27 0l211 992h269l-211 -992h-269zM48 1457h320l205 -322h-255z" />
<glyph unicode="&#xed;" horiz-adv-x="533" d="M27 0l211 992h269l-211 -992h-269zM219 1134l238 323h326l-303 -323h-261z" />
<glyph unicode="&#xee;" horiz-adv-x="533" d="M9 1124l284 323h322l157 -323h-252l-89 159l-151 -159h-271zM27 0l211 992h269l-211 -992h-269z" />
<glyph unicode="&#xef;" horiz-adv-x="533" d="M27 0l211 992h269l-211 -992h-269zM38 1286q0 72 49 122t121 50t122 -50t50 -122t-50 -121t-122 -49t-121 49t-49 121zM479 1286q0 72 49 122t121 50t122 -50t50 -122t-50 -121t-122 -49t-121 49t-49 121z" />
<glyph unicode="&#xf0;" horiz-adv-x="1198" d="M60 432q0 143 69 265.5t187 194t257 71.5q167 0 279 -99q-54 139 -180 247l-216 -123l-83 145l150 84q-74 44 -173 86l145 190q144 -57 267 -147l209 118l83 -144l-162 -92q122 -130 184 -290.5t62 -334.5q0 -54 -10 -134q-27 -216 -185.5 -356t-376.5 -140 q-221 0 -363.5 130.5t-142.5 328.5zM336 445q0 -102 69 -167.5t178 -65.5q73 0 130 27.5t88 71t47 89.5t16 90q0 104 -70.5 170t-180.5 66q-67 0 -122 -26.5t-87.5 -68.5t-50 -90t-17.5 -96z" />
<glyph unicode="&#xf1;" horiz-adv-x="1188" d="M27 0l211 992h258l-23 -100q111 127 287 127q154 0 244 -92.5t90 -240.5q0 -52 -12 -107l-124 -579h-268l120 557q7 31 7 66q0 145 -155 145q-91 0 -160 -57t-94 -179l-113 -532h-268zM318 1306q63 70 129.5 99.5t146.5 29.5q65 0 117 -18t87 -36t59 -18q33 0 62.5 17 t75.5 56l131 -162q-115 -130 -275 -130q-65 0 -116.5 18t-86 35.5t-59.5 17.5q-34 0 -65.5 -17.5t-72.5 -53.5z" />
<glyph unicode="&#xf2;" horiz-adv-x="1199" d="M65 450q0 154 73.5 284t206 207.5t294.5 77.5q216 0 356 -132.5t140 -342.5q0 -115 -43.5 -220t-119 -182.5t-183 -123t-229.5 -45.5q-215 0 -355 133t-140 344zM336 1456h319l206 -322h-255zM338 466q0 -107 67 -175.5t172 -68.5q120 0 202 89t82 215q0 108 -66.5 176 t-173.5 68q-120 0 -201.5 -88.5t-81.5 -215.5z" />
<glyph unicode="&#xf3;" horiz-adv-x="1199" d="M65 450q0 154 73.5 284t206 207.5t294.5 77.5q216 0 356 -132.5t140 -342.5q0 -115 -43.5 -220t-119 -182.5t-183 -123t-229.5 -45.5q-215 0 -355 133t-140 344zM338 466q0 -107 67 -175.5t172 -68.5q120 0 202 89t82 215q0 108 -66.5 176t-173.5 68q-120 0 -201.5 -88.5 t-81.5 -215.5zM507 1133l237 323h327l-303 -323h-261z" />
<glyph unicode="&#xf4;" horiz-adv-x="1199" d="M65 450q0 154 73.5 284t206 207.5t294.5 77.5q216 0 356 -132.5t140 -342.5q0 -115 -43.5 -220t-119 -182.5t-183 -123t-229.5 -45.5q-215 0 -355 133t-140 344zM297 1123l284 323h322l157 -323h-252l-89 159l-152 -159h-270zM338 466q0 -107 67 -175.5t172 -68.5 q120 0 202 89t82 215q0 108 -66.5 176t-173.5 68q-120 0 -201.5 -88.5t-81.5 -215.5z" />
<glyph unicode="&#xf5;" horiz-adv-x="1199" d="M65 450q0 154 73.5 284t206 207.5t294.5 77.5q216 0 356 -132.5t140 -342.5q0 -115 -43.5 -220t-119 -182.5t-183 -123t-229.5 -45.5q-215 0 -355 133t-140 344zM291 1305q63 70 129 99.5t146 29.5q65 0 117 -18t87 -36t59 -18q33 0 63.5 17.5t75.5 55.5l131 -162 q-115 -130 -276 -130q-51 0 -95 11t-68.5 24.5t-51 24.5t-47.5 11q-34 0 -65.5 -17.5t-72.5 -53.5zM338 466q0 -107 67 -175.5t172 -68.5q120 0 202 89t82 215q0 108 -66.5 176t-173.5 68q-120 0 -201.5 -88.5t-81.5 -215.5z" />
<glyph unicode="&#xf6;" horiz-adv-x="1199" d="M65 450q0 154 73.5 284t206 207.5t294.5 77.5q216 0 356 -132.5t140 -342.5q0 -115 -43.5 -220t-119 -182.5t-183 -123t-229.5 -45.5q-215 0 -355 133t-140 344zM326 1285q0 72 49 122t121 50t122 -50t50 -122t-50 -121t-122 -49t-121 49t-49 121zM338 466 q0 -107 67 -175.5t172 -68.5q120 0 202 89t82 215q0 108 -66.5 176t-173.5 68q-120 0 -201.5 -88.5t-81.5 -215.5zM767 1285q0 72 49 122t121 50t122 -50t50 -122t-50 -121t-122 -49t-121 49t-49 121z" />
<glyph unicode="&#xf8;" horiz-adv-x="1199" d="M0 99l124 111q-59 109 -59 240q0 154 73.5 284t206 207.5t294.5 77.5q168 0 297 -85l127 113l138 -155l-125 -111q60 -111 60 -237q0 -115 -43.5 -220t-119 -182.5t-183 -123t-229.5 -45.5q-168 0 -296 84l-127 -112zM332 465q0 -41 9 -75l402 359q-55 28 -121 28 q-123 0 -206.5 -91t-83.5 -221zM460 241q55 -26 115 -26q124 0 208.5 91t84.5 221q0 32 -8 70z" />
<glyph unicode="&#xf9;" horiz-adv-x="1179" d="M101 335q0 48 15 121l113 536h270l-119 -557q-7 -34 -7 -65q0 -74 43.5 -110.5t117.5 -36.5q91 0 155.5 59.5t88.5 175.5l113 534h270l-124 -581q-25 -118 -76.5 -204.5t-122.5 -136t-152.5 -73t-176.5 -23.5q-183 0 -295.5 95t-112.5 266zM371 1457h319l206 -322h-255z " />
<glyph unicode="&#xfa;" horiz-adv-x="1179" d="M101 335q0 48 15 121l113 536h270l-119 -557q-7 -34 -7 -65q0 -74 43.5 -110.5t117.5 -36.5q91 0 155.5 59.5t88.5 175.5l113 534h270l-124 -581q-25 -118 -76.5 -204.5t-122.5 -136t-152.5 -73t-176.5 -23.5q-183 0 -295.5 95t-112.5 266zM542 1134l237 323h327 l-303 -323h-261z" />
<glyph unicode="&#xfb;" horiz-adv-x="1179" d="M101 335q0 48 15 121l113 536h270l-119 -557q-7 -34 -7 -65q0 -74 43.5 -110.5t117.5 -36.5q91 0 155.5 59.5t88.5 175.5l113 534h270l-124 -581q-25 -118 -76.5 -204.5t-122.5 -136t-152.5 -73t-176.5 -23.5q-183 0 -295.5 95t-112.5 266zM332 1124l283 323h323 l157 -323h-252l-89 159l-152 -159h-270z" />
<glyph unicode="&#xfc;" horiz-adv-x="1179" d="M101 335q0 48 15 121l113 536h270l-119 -557q-7 -34 -7 -65q0 -74 43.5 -110.5t117.5 -36.5q91 0 155.5 59.5t88.5 175.5l113 534h270l-124 -581q-25 -118 -76.5 -204.5t-122.5 -136t-152.5 -73t-176.5 -23.5q-183 0 -295.5 95t-112.5 266zM360 1286q0 72 49 122t121 50 t122 -50t50 -122t-50 -121t-122 -49t-121 49t-49 121zM802 1286q0 72 49 122t121 50t122 -50t50 -122t-50 -121t-122 -49t-121 49t-49 121z" />
<glyph unicode="&#xfd;" horiz-adv-x="1146" d="M-26 -414l462 654l-320 752h288l201 -505l336 505h304l-965 -1406h-306zM509 1134l237 323h327l-303 -323h-261z" />
<glyph unicode="&#xfe;" horiz-adv-x="1229" d="M-60 -410l400 1885h269l-111 -522q95 67 233 67q188 0 313 -132t125 -326q0 -107 -39 -211.5t-108.5 -188.5t-176 -136t-230.5 -52q-205 0 -299 126l-107 -510h-269zM387 500q-16 -122 48.5 -199.5t172.5 -77.5q121 0 203 92t82 220q0 106 -63 170t-162 64 q-110 0 -188.5 -76t-92.5 -193z" />
<glyph unicode="&#xff;" horiz-adv-x="1146" d="M-26 -414l462 654l-320 752h288l201 -505l336 505h304l-965 -1406h-306zM328 1286q0 72 49 122t121 50t122 -50t50 -122t-50 -121t-122 -49t-121 49t-49 121zM769 1286q0 72 49 122t121 50t122 -50t50 -122t-50 -121t-122 -49t-121 49t-49 121z" />
<glyph unicode="&#x152;" horiz-adv-x="2214" d="M125 604q0 173 59.5 323.5t169.5 263.5t278 178t373 65h1283l-57 -263h-750l-68 -317h723l-56 -262h-722l-71 -330h762l-56 -262h-1208q-303 0 -481.5 168.5t-178.5 435.5zM427 638q0 -171 98 -271t293 -100h178l192 899h-217q-251 0 -397.5 -147.5t-146.5 -380.5z" />
<glyph unicode="&#x153;" horiz-adv-x="1887" d="M65 450q0 154 73.5 284t206 207.5t294.5 77.5q120 0 217.5 -48t159.5 -136q146 184 400 184q189 0 306 -111t117 -294q0 -114 -39 -206h-689q3 -99 62.5 -153t164.5 -54q139 0 246 87l137 -174q-160 -141 -405 -141q-246 0 -365 169q-158 -169 -391 -169q-215 0 -355 133 t-140 344zM338 466q0 -107 67 -175.5t172 -68.5q120 0 202 89t82 215q0 108 -66.5 176t-173.5 68q-120 0 -201.5 -88.5t-81.5 -215.5zM1142 590h439q1 3 1 9v9q0 88 -48 134t-133 46q-99 0 -162.5 -56t-96.5 -142z" />
<glyph unicode="&#x178;" horiz-adv-x="1379" d="M208 1434h305l236 -598l474 598h348l-719 -869l-121 -565h-292l125 590zM514 1706q0 72 49 122t121 50t122 -50t50 -122t-50 -121t-122 -49t-121 49t-49 121zM955 1706q0 72 49 122t121 50t122 -50t50 -122t-50 -121t-122 -49t-121 49t-49 121z" />
<glyph unicode="&#x2000;" horiz-adv-x="1024" />
<glyph unicode="&#x2001;" horiz-adv-x="2049" />
<glyph unicode="&#x2002;" horiz-adv-x="1024" />
<glyph unicode="&#x2003;" horiz-adv-x="2049" />
<glyph unicode="&#x2004;" horiz-adv-x="683" />
<glyph unicode="&#x2005;" horiz-adv-x="512" />
<glyph unicode="&#x2006;" horiz-adv-x="341" />
<glyph unicode="&#x2007;" horiz-adv-x="341" />
<glyph unicode="&#x2008;" horiz-adv-x="256" />
<glyph unicode="&#x2009;" horiz-adv-x="409" />
<glyph unicode="&#x200a;" horiz-adv-x="113" />
<glyph unicode="&#x2010;" horiz-adv-x="813" d="M94 428l49 234h595l-49 -234h-595z" />
<glyph unicode="&#x2011;" horiz-adv-x="813" d="M94 428l49 234h595l-49 -234h-595z" />
<glyph unicode="&#x2012;" horiz-adv-x="813" d="M94 428l49 234h595l-49 -234h-595z" />
<glyph unicode="&#x2013;" horiz-adv-x="1162" d="M81 431l47 228h974l-47 -228h-974z" />
<glyph unicode="&#x2014;" horiz-adv-x="1605" d="M35 431l46 228h1511l-47 -228h-1510z" />
<glyph unicode="&#x2018;" horiz-adv-x="536" d="M166 864l258 611h240l-199 -611h-299z" />
<glyph unicode="&#x2019;" horiz-adv-x="536" d="M160 864l198 611h299l-258 -611h-239z" />
<glyph unicode="&#x201a;" horiz-adv-x="536" d="M-85 -287l199 611h299l-258 -611h-240z" />
<glyph unicode="&#x201c;" horiz-adv-x="979" d="M166 864l258 611h240l-199 -611h-299zM609 864l258 611h240l-199 -611h-299z" />
<glyph unicode="&#x201d;" horiz-adv-x="979" d="M160 864l198 611h299l-258 -611h-239zM603 864l199 611h299l-258 -611h-240z" />
<glyph unicode="&#x201e;" horiz-adv-x="979" d="M-85 -287l199 611h299l-258 -611h-240zM358 -287l199 611h299l-258 -611h-240z" />
<glyph unicode="&#x2022;" horiz-adv-x="881" d="M131 545q0 135 95 229.5t230 94.5q134 0 229 -94.5t95 -229.5t-95 -230t-229 -95t-229.5 95t-95.5 230z" />
<glyph unicode="&#x202f;" horiz-adv-x="409" />
<glyph unicode="&#x2039;" horiz-adv-x="653" d="M90 545l283 399h281l-302 -427l105 -372h-255z" />
<glyph unicode="&#x203a;" horiz-adv-x="653" d="M19 146l303 427l-105 372h255l112 -399l-283 -400h-282z" />
<glyph unicode="&#x205f;" horiz-adv-x="512" />
<glyph unicode="&#x20ac;" horiz-adv-x="1433" d="M94 463l40 189h146q2 70 13 138h-137l40 189h147q86 225 267 351t417 126q294 0 477 -211l-181 -189q-123 151 -311 151q-119 0 -215 -59.5t-158 -168.5h537l-41 -189h-563q-10 -55 -15 -138h549l-40 -189h-481q37 -111 118.5 -172.5t195.5 -61.5q171 0 292 145l135 -194 q-183 -200 -441 -200q-234 0 -391.5 129t-200.5 354h-199z" />
<glyph unicode="&#x2122;" horiz-adv-x="1653" d="M226 1268l36 166h599l-36 -166h-209l-105 -497h-181l105 497h-209zM834 771l140 663h248l69 -398l237 398h262l-140 -663h-183l92 429l-213 -367h-183l-58 368l-91 -430h-180z" />
<glyph unicode="&#x25fc;" horiz-adv-x="993" d="M0 0v993h993v-993h-993z" />
<glyph unicode="&#xfb01;" horiz-adv-x="1371" d="M95 755l50 237h184l31 148q77 360 397 360q175 0 285 -93l-135 -200q-68 45 -140 45q-114 0 -145 -150l-24 -110h290l-50 -237h-291l-161 -755h-268l161 755h-184zM864 0l211 992h270l-211 -992h-270zM1108 1317q0 72 49 122t121 50q71 0 121 -50t50 -122t-49.5 -121 t-121.5 -49t-121 49t-49 121z" />
<glyph unicode="&#xfb02;" horiz-adv-x="1371" d="M95 755l50 237h184l31 148q77 360 397 360q175 0 285 -93l-135 -200q-68 45 -140 45q-114 0 -145 -150l-24 -110h290l-50 -237h-291l-161 -755h-268l161 755h-184zM864 0l314 1475h269l-313 -1475h-270z" />
<glyph unicode="&#xfb03;" horiz-adv-x="2188" d="M95 755l50 237h184l31 148q77 360 397 360q175 0 285 -93l-135 -200q-68 45 -140 45q-114 0 -145 -150l-24 -110h290l-50 -237h-291l-161 -755h-268l161 755h-184zM912 755l51 237h183l32 148q77 360 396 360q176 0 286 -93l-136 -200q-68 45 -140 45q-114 0 -145 -150 l-24 -110h290l-50 -237h-291l-161 -755h-268l161 755h-184zM1681 0l211 992h270l-211 -992h-270zM1925 1317q0 72 49 122t121 50q71 0 121 -50t50 -122t-49.5 -121t-121.5 -49t-121 49t-49 121z" />
<glyph unicode="&#xfb04;" horiz-adv-x="2188" d="M95 755l50 237h184l31 148q77 360 397 360q175 0 285 -93l-135 -200q-68 45 -140 45q-114 0 -145 -150l-24 -110h290l-50 -237h-291l-161 -755h-268l161 755h-184zM912 755l51 237h183l32 148q77 360 396 360q176 0 286 -93l-136 -200q-68 45 -140 45q-114 0 -145 -150 l-24 -110h290l-50 -237h-291l-161 -755h-268l161 755h-184zM1681 0l314 1475h269l-313 -1475h-270z" />
</font>
</defs>
</svg>
