<?xml version="1.0" standalone="no"?>
<!DOCTYPE svg PUBLIC "-//W3C//DTD SVG 1.1//EN" "http://www.w3.org/Graphics/SVG/1.1/DTD/svg11.dtd" >
<svg xmlns="http://www.w3.org/2000/svg" xmlns:xlink="http://www.w3.org/1999/xlink" version="1.1">
<metadata></metadata>
<defs>
<font id="markbold" horiz-adv-x="1228" >
<font-face units-per-em="2048" ascent="1618" descent="-430" />
<missing-glyph horiz-adv-x="506" />
<glyph unicode="&#x2e;&#x2e;&#x2e;" horiz-adv-x="1700" d="M85 174q0 79 60 138.5t140 59.5q79 0 138 -59t59 -139q0 -81 -58.5 -140.5t-138.5 -59.5t-140 59.5t-60 140.5zM651 174q0 79 60 138.5t140 59.5q79 0 138.5 -59t59.5 -139q0 -81 -59 -140.5t-139 -59.5t-140 59.5t-60 140.5zM1219 174q0 80 59 139t140 59q80 0 139 -59 t59 -139q0 -81 -59 -140.5t-139 -59.5q-81 0 -140 59.5t-59 140.5z" />
<glyph horiz-adv-x="0" />
<glyph horiz-adv-x="682" />
<glyph unicode=" "  horiz-adv-x="506" />
<glyph unicode="&#x09;" horiz-adv-x="506" />
<glyph unicode="&#xa0;" horiz-adv-x="506" />
<glyph unicode="!" horiz-adv-x="568" d="M89 170q0 78 59 136t137 58q77 0 135 -58t58 -136t-58 -137t-135 -59q-78 0 -137 59t-59 137zM124 1434h319l-36 -941h-246z" />
<glyph unicode="&#x22;" horiz-adv-x="1149" d="M228 863v612h268v-612h-268zM654 863v612h268v-612h-268z" />
<glyph unicode="#" horiz-adv-x="1505" d="M97 345l49 229h207l63 292h-208l49 230h207l73 338h245l-72 -338h244l73 338h246l-73 -338h208l-49 -230h-207l-62 -292h206l-48 -229h-208l-72 -345h-246l73 345h-245l-73 -345h-246l73 345h-207zM599 574h245l62 292h-244z" />
<glyph unicode="$" horiz-adv-x="1433" d="M135 193l140 217q150 -113 348 -140v330l-12 2q-98 16 -174 44.5t-135 74.5t-89.5 115t-28.5 158q2 169 123 278.5t316 137.5v192h227v-190q225 -21 427 -144l-128 -219q-144 88 -299 111v-326q98 -15 176 -44t139.5 -74.5t94 -113t30.5 -151.5q-4 -181 -125.5 -288.5 t-313.5 -136.5v-203h-227v197q-140 12 -268.5 56.5t-220.5 116.5zM466 1008q-1 -53 38 -84t119 -52v283q-153 -39 -157 -147zM850 278q155 40 159 149q1 50 -38.5 81t-120.5 53v-283z" />
<glyph unicode="%" horiz-adv-x="2026" d="M76 1069q0 167 114 278.5t285 111.5q172 0 286.5 -111.5t114.5 -278.5q0 -169 -114.5 -280.5t-286.5 -111.5q-171 0 -285 111.5t-114 280.5zM303 1069q0 -77 49 -127.5t123 -50.5q76 0 124.5 50.5t48.5 127.5t-48.5 126.5t-124.5 49.5q-74 0 -123 -50t-49 -126zM397 0 l962 1434h267l-960 -1434h-269zM1152 366q0 166 114 278.5t285 112.5q172 0 286.5 -111.5t114.5 -279.5t-114.5 -280t-286.5 -112q-171 0 -285 112t-114 280zM1379 366q0 -77 49 -127.5t123 -50.5q75 0 124 50.5t49 127.5t-48.5 127t-124.5 50q-74 0 -123 -50.5t-49 -126.5z " />
<glyph unicode="&#x26;" horiz-adv-x="1508" d="M90 355q0 116 67 211.5t181 182.5q-95 97 -136.5 175t-41.5 176q0 157 116.5 258t304.5 101q187 0 302 -97.5t115 -256.5q0 -56 -21 -108t-62.5 -99t-83.5 -83.5t-102 -79.5l224 -217l206 289l202 -139l-229 -323l355 -345h-368l-154 147q-184 -173 -424 -173 q-211 0 -331 102.5t-120 278.5zM377 375q0 -73 50.5 -115.5t134.5 -42.5q124 0 228 99l-276 265q-67 -55 -102 -103.5t-35 -102.5zM434 1087q0 -40 25 -77t98 -109q85 61 127 105t42 91q0 57 -38.5 89.5t-106.5 32.5q-70 0 -108.5 -35t-38.5 -97z" />
<glyph unicode="'" horiz-adv-x="723" d="M228 863v612h268v-612h-268z" />
<glyph unicode="(" horiz-adv-x="864" d="M113 582q0 312 164.5 554t436.5 348l85 -239q-196 -93 -300.5 -268.5t-104.5 -394.5t105 -395t300 -269l-85 -239q-272 106 -436.5 348.5t-164.5 554.5z" />
<glyph unicode=")" horiz-adv-x="864" d="M66 -81q195 93 299.5 269t104.5 395t-104.5 394.5t-299.5 268.5l85 239q272 -106 436.5 -348t164.5 -554t-164.5 -554t-436.5 -348z" />
<glyph unicode="*" horiz-adv-x="972" d="M82 1105l64 197l242 -84l-4 257h206l-5 -257l242 84l64 -197l-245 -75l155 -204l-167 -121l-148 209l-146 -209l-167 121l154 204z" />
<glyph unicode="+" d="M143 431v228h355v358h233v-358h354v-228h-354v-357h-233v357h-355z" />
<glyph unicode="," horiz-adv-x="546" d="M86 -287l69 611h300l-144 -611h-225z" />
<glyph unicode="-" horiz-adv-x="832" d="M114 428v234h605v-234h-605z" />
<glyph unicode="." horiz-adv-x="567" d="M85 174q0 79 60 138.5t140 59.5q79 0 138 -59t59 -139q0 -81 -58.5 -140.5t-138.5 -59.5t-140 59.5t-60 140.5z" />
<glyph unicode="/" horiz-adv-x="1060" d="M-41 -205l869 1782h283l-869 -1782h-283z" />
<glyph unicode="0" d="M54 717q0 193 44.5 339t123 232.5t178 128.5t218.5 42q116 0 215 -45t176 -133t121 -233t44 -331q0 -155 -29 -280.5t-79.5 -211t-121 -142.5t-152 -83t-174.5 -26q-119 0 -218.5 42.5t-178 129t-123 232.5t-44.5 339zM340 717q0 -130 22 -225.5t62 -149t88 -78 t106 -24.5q56 0 103 24.5t85.5 78t60.5 149t22 225.5q0 240 -77 358.5t-194 118.5q-58 0 -106 -24.5t-88 -78t-62 -149t-22 -225.5z" />
<glyph unicode="1" d="M185 957v276l632 223v-1194h325v-262h-940v262h340v822z" />
<glyph unicode="2" d="M98 1212q186 247 490 247q223 0 354.5 -127.5t131.5 -335.5q0 -121 -52.5 -216t-154.5 -202l-306 -319h548v-259h-947v216l507 519q117 119 117 246q0 94 -60.5 154t-158.5 60q-93 0 -159 -41t-132 -117z" />
<glyph unicode="3" d="M82 182l165 182q63 -66 147.5 -102t177.5 -36q110 0 180.5 48t70.5 139q0 89 -79 138t-201 49h-167v246h168q109 0 180 47.5t71 134.5q0 84 -67 131.5t-171 47.5q-93 0 -168 -40.5t-122 -104.5l-174 175q75 102 195 162t283 60q227 0 367.5 -113t140.5 -298 q0 -113 -56 -196t-158 -130q117 -46 181.5 -130t64.5 -199q0 -102 -44 -184t-119 -132t-168.5 -76.5t-196.5 -26.5q-161 0 -289.5 54t-211.5 154z" />
<glyph unicode="4" d="M58 262v201l503 970h307l-479 -913h305v382h277v-382h199v-258h-199v-262h-277v262h-636z" />
<glyph unicode="5" d="M84 188l156 194q59 -65 156.5 -108.5t193.5 -43.5q115 0 176.5 59t61.5 149q0 202 -291 202h-341l15 794h824v-257h-580l-6 -287h164q122 0 219 -33.5t158 -92.5t93 -136.5t32 -168.5q0 -113 -41 -205.5t-112 -153t-166 -93.5t-204 -33q-318 0 -508 214z" />
<glyph unicode="6" d="M73 458q0 175 136 381l397 595h334l-353 -499q25 4 66 4q216 0 356.5 -137t140.5 -339q0 -139 -70.5 -251t-194 -175t-275.5 -63q-151 0 -274 62.5t-193 173.5t-70 248zM360 461q0 -103 71.5 -169.5t178.5 -66.5q109 0 180.5 66t71.5 170q0 103 -71.5 169t-180.5 66 q-107 0 -178.5 -66t-71.5 -169z" />
<glyph unicode="7" d="M113 1176v258h1010v-216l-594 -1218h-325l590 1176h-681z" />
<glyph unicode="8" d="M56 390q0 124 69 206.5t184 126.5q-100 46 -159 127t-59 198q0 125 71 220t189.5 143t264.5 48t264.5 -48t190 -143t71.5 -220q0 -224 -219 -325q115 -44 184.5 -126.5t69.5 -206.5q0 -127 -76.5 -223t-203 -144.5t-281.5 -48.5t-281.5 48.5t-202.5 144.5t-76 223z M354 414q0 -91 75 -142t187 -51t187.5 51t75.5 142q0 92 -75.5 144t-187.5 52t-187 -52t-75 -144zM385 1026q0 -89 65.5 -138.5t165.5 -49.5t166 49.5t66 138.5q0 86 -66 134.5t-166 48.5t-165.5 -48.5t-65.5 -134.5z" />
<glyph unicode="9" d="M79 971q0 210 153.5 349t384.5 139q152 0 275 -62t193.5 -173t70.5 -248q0 -176 -136 -381l-397 -595h-334l351 499q-25 -4 -65 -4q-216 0 -356 137t-140 339zM367 973q0 -103 71 -169.5t179 -66.5t179.5 66.5t71.5 169.5t-71.5 169t-179.5 66q-109 0 -179.5 -65.5 t-70.5 -169.5z" />
<glyph unicode=":" horiz-adv-x="567" d="M85 174q0 79 60 138.5t140 59.5q79 0 138 -59t59 -139q0 -81 -58.5 -140.5t-138.5 -59.5t-140 59.5t-60 140.5zM85 821q0 79 60 138.5t140 59.5q79 0 138 -59t59 -139q0 -81 -58.5 -140t-138.5 -59t-140 59t-60 140z" />
<glyph unicode=";" horiz-adv-x="546" d="M86 -287l69 611h300l-144 -611h-225zM91 821q0 79 60 138.5t140 59.5q79 0 138 -59t59 -139q0 -81 -58.5 -140t-138.5 -59t-140 59t-60 140z" />
<glyph unicode="&#x3c;" d="M196 421v249l838 390v-266l-584 -248l584 -249v-266z" />
<glyph unicode="=" d="M143 214v228h942v-228h-942zM143 648v229h942v-229h-942z" />
<glyph unicode="&#x3e;" d="M196 31v266l584 248l-584 249v266l838 -390v-249z" />
<glyph unicode="?" horiz-adv-x="912" d="M102 1451q93 13 207 13q266 0 415 -114t149 -310q0 -178 -113 -288.5t-329 -144.5l-8 -118h-247v349h98q305 0 305 182q0 83 -76.5 126.5t-224.5 43.5q-68 0 -156 -8zM104 170q0 79 59 137t137 58q77 0 135.5 -58t58.5 -136q0 -79 -58.5 -138t-135.5 -59q-78 0 -137 59 t-59 137z" />
<glyph unicode="@" horiz-adv-x="1980" d="M132 512q0 239 109 431t306 301.5t445 109.5q185 0 345.5 -62t272.5 -169t175.5 -253.5t63.5 -312.5q0 -207 -105.5 -337.5t-285.5 -130.5q-191 0 -264 136q-89 -122 -252 -122q-167 0 -272 116.5t-105 292.5q0 175 105 292t264 117q143 0 227 -103v81h215v-441 q0 -89 21 -128.5t72 -39.5q69 0 110 65t41 201q0 169 -80 304.5t-224 212t-324 76.5q-275 0 -451 -177.5t-176 -459.5q0 -284 174 -462t446 -178q223 0 389 117l122 -165q-218 -158 -511 -158q-185 0 -344 64t-270.5 176t-175 269t-63.5 337zM792 512q0 -87 51 -145t135 -58 q83 0 135 57.5t52 145.5t-52 145.5t-135 57.5q-84 0 -135 -58t-51 -145z" />
<glyph unicode="A" horiz-adv-x="1507" d="M22 0l558 1434h348l558 -1434h-305l-125 334h-612l-125 -334h-297zM543 597h414l-206 554z" />
<glyph unicode="B" horiz-adv-x="1417" d="M163 0v1434h586q258 0 400.5 -99t142.5 -299q0 -106 -58.5 -188.5t-149.5 -115.5q102 -34 170.5 -121.5t68.5 -199.5q0 -203 -139.5 -307t-400.5 -104h-620zM449 252l320 -1q128 0 192.5 38.5t64.5 135.5q0 96 -64.5 133.5t-192.5 37.5h-320v-344zM449 847h292 q58 0 100.5 7t78.5 25t55 52.5t19 84.5q0 93 -67.5 129.5t-186.5 36.5h-291v-335z" />
<glyph unicode="C" horiz-adv-x="1546" d="M94 717q0 213 95.5 382.5t267.5 265t390 95.5q199 0 362 -85.5t252 -235.5l-246 -151q-63 95 -157 146.5t-213 51.5q-196 0 -324.5 -131t-128.5 -338q0 -211 129.5 -340t323.5 -129q240 0 374 196l233 -168q-99 -142 -255 -222.5t-350 -80.5q-218 0 -390 95.5 t-267.5 265.5t-95.5 383z" />
<glyph unicode="D" horiz-adv-x="1592" d="M163 0v1434h591q335 0 539.5 -196.5t204.5 -520.5t-204.5 -520.5t-539.5 -196.5h-591zM449 267h302q147 0 249.5 59t150.5 159t48 232q0 205 -114 327t-334 122h-302v-899z" />
<glyph unicode="E" horiz-adv-x="1363" d="M163 0v1434h1063v-263h-777v-317h741v-262h-741v-330h785v-262h-1071z" />
<glyph unicode="F" horiz-adv-x="1312" d="M163 0v1434h1052v-264h-766v-326h718v-263h-718v-581h-286z" />
<glyph unicode="G" horiz-adv-x="1638" d="M94 717q0 214 97 383.5t270 264.5t390 95q169 0 308 -57t236 -163l-206 -202q-132 151 -346 151q-198 0 -325.5 -131.5t-127.5 -340.5q0 -214 128.5 -345t319.5 -131q348 0 407 316h-364v239h659q4 -37 4 -81q0 -160 -52.5 -298.5t-144.5 -235.5t-222 -152t-281 -55 q-149 0 -284.5 52t-239 145.5t-165 235t-61.5 310.5z" />
<glyph unicode="H" horiz-adv-x="1587" d="M163 0v1434h286v-578h690v578h285v-1434h-285v590h-690v-590h-286z" />
<glyph unicode="I" horiz-adv-x="611" d="M163 0v1434h286v-1434h-286z" />
<glyph unicode="J" horiz-adv-x="1156" d="M30 173l166 208q107 -133 278 -133q242 0 242 301v885h285v-912q0 -263 -141.5 -405.5t-372.5 -142.5q-162 0 -275 57t-182 142z" />
<glyph unicode="K" horiz-adv-x="1458" d="M163 0v1434h286v-581h135l474 581h358l-601 -700l646 -734h-370l-510 590h-132v-590h-286z" />
<glyph unicode="L" horiz-adv-x="1239" d="M163 0v1434h286v-1167h757v-267h-1043z" />
<glyph unicode="M" horiz-adv-x="1907" d="M163 0v1434h419l372 -968l372 968h419v-1434h-286v1082l-354 -944h-302l-354 936v-1074h-286z" />
<glyph unicode="N" horiz-adv-x="1607" d="M163 0v1434h267l728 -958v958h287v-1434h-268l-727 957l-1 -957h-286z" />
<glyph unicode="O" horiz-adv-x="1694" d="M94 717q0 212 95.5 381.5t267.5 265.5t390 96q217 0 389.5 -96t268.5 -265.5t96 -381.5t-96 -382t-268.5 -266t-389.5 -96q-218 0 -390 96t-267.5 266t-95.5 382zM392 717q0 -208 128 -338.5t327 -130.5q200 0 327.5 130.5t127.5 338.5t-127.5 338.5t-327.5 130.5 q-199 0 -327 -130.5t-128 -338.5z" />
<glyph unicode="P" horiz-adv-x="1352" d="M163 0v1434h585q252 0 388 -122t136 -334q0 -210 -135.5 -332t-386.5 -122h-301v-524h-286zM449 785h293q237 0 237 193q0 192 -237 192h-293v-385z" />
<glyph unicode="Q" horiz-adv-x="1704" d="M94 717q0 212 95.5 381.5t267.5 265.5t390 96q217 0 389.5 -96t268.5 -265.5t96 -381.5q0 -251 -145 -445l202 -272h-336l-67 88q-180 -115 -408 -115q-218 0 -390 96t-267.5 266t-95.5 382zM392 717q0 -208 128 -338.5t327 -130.5q134 0 242 63l-262 348h342l99 -133 q34 88 34 191q0 208 -127.5 338.5t-327.5 130.5q-199 0 -327 -130.5t-128 -338.5z" />
<glyph unicode="R" horiz-adv-x="1392" d="M163 0v1434h606q254 0 389.5 -115t135.5 -322q0 -177 -116.5 -289.5t-322.5 -133.5l441 -574h-346l-418 570h-83v-570h-286zM449 819h315q236 0 236 178q0 173 -236 173h-315v-351z" />
<glyph unicode="S" horiz-adv-x="1385" d="M97 162l149 230q85 -67 205 -110.5t251 -43.5q124 0 203 46t79 127q0 70 -71 105.5t-233 62.5l-91 14q-99 16 -175.5 45.5t-137 77.5t-92.5 120.5t-32 167.5q0 144 80 249t207.5 155t283.5 50q153 0 283 -36t265 -116l-135 -234q-199 122 -407 122q-122 0 -198 -46 t-76 -126q0 -30 15 -54.5t39 -41t64 -30t80.5 -22.5t97.5 -18l80 -13q457 -73 457 -402q0 -114 -48 -205t-130.5 -147t-186.5 -85.5t-222 -29.5q-168 0 -329.5 48.5t-274.5 139.5z" />
<glyph unicode="T" horiz-adv-x="1240" d="M33 1166v268h1174v-268h-444v-1166h-286v1166h-444z" />
<glyph unicode="U" horiz-adv-x="1527" d="M146 572v862h287v-847q0 -170 88.5 -254.5t242.5 -84.5t242.5 84.5t88.5 254.5v847h286v-862q0 -194 -79 -330t-216 -202t-322 -66q-282 0 -450 154.5t-168 443.5z" />
<glyph unicode="V" horiz-adv-x="1467" d="M22 1434h304l410 -1144l413 1144h297l-539 -1434h-347z" />
<glyph unicode="W" horiz-adv-x="2232" d="M35 1434h297l308 -1100l321 1100h316l320 -1100l309 1100h292l-429 -1434h-346l-307 1024l-307 -1024h-346z" />
<glyph unicode="X" horiz-adv-x="1388" d="M32 0l489 728l-476 706h336l315 -492l318 492h329l-477 -706l491 -728h-335l-330 511l-331 -511h-329z" />
<glyph unicode="Y" horiz-adv-x="1394" d="M6 1434h336l360 -609l361 609h326l-545 -869v-565h-286v566z" />
<glyph unicode="Z" horiz-adv-x="1318" d="M97 0v223l745 947h-743v264h1123v-224l-745 -947h745v-263h-1125z" />
<glyph unicode="[" horiz-adv-x="784" d="M163 -269v1703h556v-242h-285v-1220h285v-241h-556z" />
<glyph unicode="\" horiz-adv-x="1060" d="M-50 1577h282l870 -1782h-283z" />
<glyph unicode="]" horiz-adv-x="784" d="M66 -28h284v1220h-284v242h556v-1703h-556v241z" />
<glyph unicode="_" horiz-adv-x="962" d="M-5 -105h973v-218h-973v218z" />
<glyph unicode="a" horiz-adv-x="1257" d="M79 497q0 223 137 372.5t343 149.5q188 0 297 -136v109h261v-992h-261v110q-111 -136 -297 -136q-205 0 -342.5 149.5t-137.5 373.5zM352 497q0 -117 70.5 -195.5t185.5 -78.5q114 0 185 77.5t71 196.5t-71 196t-185 77q-115 0 -185.5 -78t-70.5 -195z" />
<glyph unicode="b" horiz-adv-x="1256" d="M140 0v1475h267v-586q110 130 290 130q205 0 343.5 -149.5t138.5 -372.5t-137.5 -373t-343.5 -150q-186 0 -297 136v-110h-261zM393 497q0 -119 71 -196.5t184 -77.5q116 0 186 78.5t70 195.5t-70 195t-186 78q-113 0 -184 -77t-71 -196z" />
<glyph unicode="c" horiz-adv-x="1057" d="M79 497q0 227 146.5 374.5t381.5 147.5q125 0 227 -48.5t171 -139.5l-193 -160q-91 99 -212 99q-106 0 -177.5 -76t-71.5 -197q0 -122 71 -198t177 -76q122 0 216 101l191 -163q-146 -187 -399 -187q-235 0 -381.5 148t-146.5 375z" />
<glyph unicode="d" horiz-adv-x="1257" d="M79 497q0 223 137 372.5t343 149.5q182 0 292 -130v586h266v-1475h-261v110q-111 -136 -297 -136q-205 0 -342.5 149.5t-137.5 373.5zM352 497q0 -117 70.5 -195.5t185.5 -78.5q114 0 185 77.5t71 196.5t-71 196t-185 77q-115 0 -185.5 -78t-70.5 -195z" />
<glyph unicode="e" horiz-adv-x="1140" d="M79 494q0 233 139.5 379t362.5 146q214 0 348 -144.5t134 -376.5q0 -50 -5 -90h-704q19 -103 87.5 -154.5t167.5 -51.5q137 0 251 95l157 -172q-167 -151 -423 -151q-228 0 -371.5 144t-143.5 376zM355 590h440q-19 96 -74 147t-142 51q-93 0 -149.5 -51.5t-74.5 -146.5z " />
<glyph unicode="f" horiz-adv-x="869" d="M42 755v237h185v123q0 177 93 281t263 104q168 0 305 -89l-107 -208q-84 48 -170 48q-116 0 -116 -139v-120h308v-237h-308v-755h-268v755h-185z" />
<glyph unicode="g" horiz-adv-x="1245" d="M79 512q0 111 37.5 207t100.5 161t146 102t173 37q196 0 307 -137v110h262v-910q0 -238 -144.5 -374.5t-391.5 -136.5q-121 0 -236 31t-198 89l95 218q153 -102 328 -102q128 0 205.5 69t77.5 195v69q-111 -134 -305 -134q-90 0 -173 37t-146 101.5t-100.5 160.5 t-37.5 207zM353 512q0 -110 69 -185t181 -75q110 0 179.5 74t69.5 186t-69.5 186.5t-179.5 74.5q-112 0 -181 -75t-69 -186z" />
<glyph unicode="h" horiz-adv-x="1210" d="M140 0v1476h268v-590q96 133 284 133q170 0 278 -107.5t108 -279.5v-632h-267v546q0 107 -50.5 164.5t-143.5 57.5q-91 0 -150 -58t-59 -166v-544h-268z" />
<glyph unicode="i" horiz-adv-x="547" d="M102 1317q0 72 49 122t121 50q71 0 121 -50t50 -122t-49.5 -121t-121.5 -49t-121 49t-49 121zM140 0v992h268v-992h-268z" />
<glyph unicode="j" horiz-adv-x="551" d="M-47 -404l40 234q34 -12 72 -12q79 0 79 103v1071h268v-1086q0 -160 -84.5 -248.5t-224.5 -88.5q-84 0 -150 27zM105 1317q0 72 49 122t121 50q71 0 121 -50t50 -122t-49.5 -121t-121.5 -49t-121 49t-49 121z" />
<glyph unicode="k" horiz-adv-x="1121" d="M140 0v1475h268v-836h94l279 353h328l-391 -467l394 -525h-329l-285 401h-90v-401h-268z" />
<glyph unicode="l" horiz-adv-x="547" d="M140 0v1475h268v-1475h-268z" />
<glyph unicode="m" horiz-adv-x="1880" d="M140 0v992h260v-116q97 143 292 143q107 0 192 -45t136 -125q103 170 337 170q175 0 283 -107t108 -280v-632h-266v546q0 107 -51 164.5t-143 57.5q-91 0 -150.5 -58t-59.5 -166v-544h-267v546q0 107 -50.5 164.5t-143.5 57.5q-91 0 -150 -58t-59 -166v-544h-268z" />
<glyph unicode="n" horiz-adv-x="1210" d="M140 0v992h260v-116q97 143 292 143q170 0 278 -107.5t108 -279.5v-632h-267v546q0 107 -50.5 164.5t-143.5 57.5q-91 0 -150 -58t-59 -166v-544h-268z" />
<glyph unicode="o" horiz-adv-x="1229" d="M79 497q0 111 40.5 207.5t111 165.5t170 109t213.5 40q232 0 385 -149t153 -373t-153 -373.5t-385 -149.5q-152 0 -274.5 68t-191.5 187.5t-69 267.5zM351 497q0 -120 74.5 -197t188.5 -77q115 0 190 77t75 197t-75 196.5t-190 76.5q-114 0 -188.5 -76.5t-74.5 -196.5z " />
<glyph unicode="p" horiz-adv-x="1256" d="M140 -410v1402h261v-109q109 136 296 136q205 0 343.5 -149.5t138.5 -372.5t-137.5 -373t-343.5 -150q-182 0 -291 129v-513h-267zM393 497q0 -119 71 -196.5t184 -77.5q116 0 186 78.5t70 195.5t-70 195t-186 78q-113 0 -184 -77t-71 -196z" />
<glyph unicode="q" horiz-adv-x="1257" d="M79 497q0 223 137 372.5t343 149.5q188 0 297 -136v109h261v-1402h-266v513q-109 -129 -292 -129q-205 0 -342.5 149.5t-137.5 373.5zM352 497q0 -117 70.5 -195.5t185.5 -78.5q114 0 185 77.5t71 196.5t-71 196t-185 77q-115 0 -185.5 -78t-70.5 -195z" />
<glyph unicode="r" horiz-adv-x="860" d="M140 0v992h259v-108q89 135 280 135q76 0 139 -22l-40 -265q-74 32 -162 32q-95 0 -151.5 -57.5t-56.5 -165.5v-541h-268z" />
<glyph unicode="s" horiz-adv-x="1038" d="M71 91l105 203q146 -97 338 -97q183 0 183 93q0 36 -39 57.5t-126 33.5l-80 11q-343 48 -343 301q0 153 111 239t307 86q230 0 415 -94l-90 -208q-168 81 -316 81q-75 0 -114 -24t-39 -66q0 -21 11.5 -35.5t37 -24t49.5 -14.5t64 -11l88 -14q335 -51 335 -297 q0 -155 -121 -246t-335 -91q-273 0 -441 117z" />
<glyph unicode="t" horiz-adv-x="955" d="M42 755v237h191v295h268v-295h359v-237h-359v-363q0 -87 40.5 -128t107.5 -41q81 0 187 65l98 -209q-152 -105 -329 -105q-184 0 -278 101t-94 296v384h-191z" />
<glyph unicode="u" horiz-adv-x="1203" d="M132 423v569h267v-546q0 -114 55 -168.5t148 -54.5q92 0 147.5 54.5t55.5 168.5v546h266v-569q0 -114 -38 -202t-103.5 -140.5t-148.5 -79.5t-179 -27t-179 27t-149 79.5t-104 140.5t-38 202z" />
<glyph unicode="v" horiz-adv-x="1125" d="M18 992h291l257 -710l259 710h282l-388 -992h-308z" />
<glyph unicode="w" horiz-adv-x="1773" d="M28 992h284l212 -693l222 693h282l225 -696l213 696h280l-336 -992h-305l-220 671l-218 -671h-303z" />
<glyph unicode="x" horiz-adv-x="1124" d="M28 0l364 504l-355 488h317l214 -308l213 308h310l-356 -487l362 -505h-318l-223 315l-219 -315h-309z" />
<glyph unicode="y" horiz-adv-x="1155" d="M13 992h303l273 -510l264 510h293l-759 -1406h-293l347 625z" />
<glyph unicode="z" horiz-adv-x="1064" d="M98 0v193l501 562h-483v237h839v-195l-489 -558h501v-239h-869z" />
<glyph unicode="{" horiz-adv-x="902" d="M97 465v234q107 0 165.5 50t54.5 142l-4 100q-10 205 104 324t332 119h88v-238h-67q-90 0 -140 -49t-46 -138l4 -97q5 -124 -45.5 -206t-169.5 -123q228 -79 215 -330l-4 -96q-4 -90 46 -139t140 -49h67v-237h-88q-218 0 -332 118.5t-104 323.5l4 100q4 92 -54.5 141.5 t-165.5 49.5z" />
<glyph unicode="|" horiz-adv-x="723" d="M228 -271v1705h268v-1705h-268z" />
<glyph unicode="}" horiz-adv-x="902" d="M66 -31h66q90 0 140 49t46 139l-4 96q-13 251 215 330q-228 79 -215 329l4 97q4 89 -46 138t-140 49h-66v238h88q219 0 331 -118.5t104 -324.5l-4 -100q-4 -92 54.5 -141.5t165.5 -49.5v-234q-107 0 -165.5 -50t-54.5 -142l4 -100q8 -206 -104 -324t-331 -118h-88v237z " />
<glyph unicode="&#xa1;" horiz-adv-x="568" d="M90 823q0 77 59 136.5t135 59.5q77 0 136 -59.5t59 -136.5q0 -78 -58.5 -135.5t-136.5 -57.5q-77 0 -135.5 57.5t-58.5 135.5zM125 -440l37 941h246l36 -941h-319z" />
<glyph unicode="&#xa3;" horiz-adv-x="1433" d="M163 0v259h164v346h-164v223h164v66q0 139 42.5 248t117 177.5t171.5 104t209 35.5q251 0 398 -150l-185 -196q-82 82 -213 82q-120 0 -192.5 -77.5t-72.5 -235.5v-54h495v-223h-495v-346h650v-259h-1089z" />
<glyph unicode="&#xa5;" horiz-adv-x="1433" d="M63 1434h323l338 -525l332 525h315l-426 -641h290v-190h-373v-138h373v-190h-373v-275h-276v275h-374v190h374v138h-374v190h286z" />
<glyph unicode="&#xa7;" horiz-adv-x="1334" d="M117 -171l134 216q185 -129 411 -129q111 0 180.5 36t69.5 103q0 58 -65 86t-210 49l-77 12q-90 13 -161 38.5t-127 66.5t-86 102.5t-30 140.5q0 160 143 257q-120 89 -120 250q0 183 146 292.5t373 109.5q136 0 252 -30t240 -99l-121 -218q-178 103 -363 103 q-110 0 -178.5 -36.5t-68.5 -99.5q0 -60 69.5 -89.5t207.5 -48.5l71 -10q124 -19 213 -58.5t143.5 -110.5t54.5 -168q0 -168 -145 -268q120 -91 120 -239q0 -103 -44 -184t-119.5 -130.5t-170 -74.5t-201.5 -25q-152 0 -297 40.5t-244 115.5zM435 579q0 -27 14 -47.5 t35.5 -33.5t61 -24.5t74.5 -18t93 -15.5l69 -10q34 -5 56 -10q99 42 99 136q0 60 -64.5 88.5t-210.5 49.5l-80 11l-21 3t-21 4q-105 -41 -105 -133z" />
<glyph unicode="&#xa9;" horiz-adv-x="1909" d="M113 728q0 168 66.5 321t179 264t268.5 176.5t328 65.5t328 -65.5t268.5 -176.5t179 -264t66.5 -321t-66.5 -321.5t-179 -264.5t-268.5 -177t-328 -66t-328 66t-268.5 177t-179 264.5t-66.5 321.5zM348 728q0 -164 81 -303t221 -219.5t305 -80.5t304.5 80.5t221 219.5 t81.5 303t-81.5 302.5t-221 218.5t-304.5 80q-124 0 -236.5 -47.5t-193.5 -128t-129 -191.5t-48 -234zM540 728q0 188 121 308t310 120q121 0 219 -54.5t151 -152.5l-193 -108q-60 104 -180 104q-85 0 -141 -61t-56 -156q0 -104 57.5 -160.5t140.5 -56.5q116 0 184 104 l180 -128q-126 -187 -362 -187q-189 0 -310 120t-121 308z" />
<glyph unicode="&#xab;" horiz-adv-x="1113" d="M90 545l198 399h269l-198 -399l198 -400h-269zM550 545l198 399h269l-198 -399l198 -400h-269z" />
<glyph unicode="&#xad;" horiz-adv-x="832" d="M114 428v234h605v-234h-605z" />
<glyph unicode="&#xae;" horiz-adv-x="1032" d="M38 1013q0 193 139 329t340 136q198 0 337.5 -136.5t139.5 -328.5t-139.5 -328.5t-337.5 -136.5q-201 0 -340 136.5t-139 328.5zM187 1013q0 -136 96.5 -232.5t233.5 -96.5q135 0 231 97t96 232t-96 231.5t-231 96.5q-137 0 -233.5 -96.5t-96.5 -231.5zM337 805v416h205 q85 0 130 -38t45 -103q0 -50 -31.5 -83.5t-90.5 -44.5l127 -147h-141l-114 143h-10v-143h-120zM457 1044h83q55 0 55 36q0 37 -55 37h-83v-73z" />
<glyph unicode="&#xb0;" horiz-adv-x="878" d="M38 1062q0 165 117 281t284 116q166 0 284 -116t118 -281q0 -163 -118 -278.5t-284 -115.5t-283.5 115t-117.5 279zM257 1062q0 -77 53.5 -131t128.5 -54q73 0 127.5 54.5t54.5 130.5t-54.5 130t-127.5 54q-75 0 -128.5 -54t-53.5 -130z" />
<glyph unicode="&#xb7;" horiz-adv-x="686" d="M144 546q0 79 60 138t140 59t139 -59t59 -138q0 -81 -59 -140.5t-139 -59.5t-140 59.5t-60 140.5z" />
<glyph unicode="&#xbb;" horiz-adv-x="1113" d="M96 146l198 400l-198 399h270l197 -399l-197 -400h-270zM556 146l198 400l-198 399h269l198 -399l-198 -400h-269z" />
<glyph unicode="&#xbf;" horiz-adv-x="912" d="M39 -47q0 178 113 288t329 145l8 118h247v-348h-98q-150 0 -227 -46.5t-77 -136.5q0 -83 76.5 -126.5t224.5 -43.5q57 0 156 9l19 -270q-93 -13 -207 -13q-266 0 -415 114t-149 310zM419 822q0 79 58 138t135 59t136.5 -59.5t59.5 -136.5q0 -79 -59 -136.5t-137 -57.5 q-77 0 -135 57.5t-58 135.5z" />
<glyph unicode="&#xc0;" horiz-adv-x="1507" d="M22 0l558 1434h348l558 -1434h-305l-125 334h-612l-125 -334h-297zM401 1877h320l206 -323h-255zM543 597h414l-206 554z" />
<glyph unicode="&#xc1;" horiz-adv-x="1507" d="M22 0l558 1434h348l558 -1434h-305l-125 334h-612l-125 -334h-297zM543 597h414l-206 554zM566 1554l206 323h320l-271 -323h-255z" />
<glyph unicode="&#xc2;" horiz-adv-x="1507" d="M22 0l558 1434h348l558 -1434h-305l-125 334h-612l-125 -334h-297zM370 1544l223 323h322l224 -323h-259l-126 157l-125 -157h-259zM543 597h414l-206 554z" />
<glyph unicode="&#xc3;" horiz-adv-x="1507" d="M22 0l558 1434h348l558 -1434h-305l-125 334h-612l-125 -334h-297zM352 1720q104 134 269 134q62 0 115 -18t90.5 -35.5t60.5 -17.5q54 0 127 68l142 -152q-55 -71 -120 -103t-149 -32q-61 0 -113 18t-90 35.5t-63 17.5q-54 0 -127 -67zM543 597h414l-206 554z" />
<glyph unicode="&#xc4;" horiz-adv-x="1507" d="M22 0l558 1434h348l558 -1434h-305l-125 334h-612l-125 -334h-297zM362 1706q0 72 49 122t121 50t122.5 -50t50.5 -122t-50.5 -121t-122.5 -49t-121 49t-49 121zM543 597h414l-206 554zM804 1706q0 72 49 122t121 50t122 -50t50 -122t-50 -121t-122 -49t-121 49t-49 121z " />
<glyph unicode="&#xc5;" horiz-adv-x="1507" d="M22 0l558 1434h348l558 -1434h-305l-125 334h-612l-125 -334h-297zM485 1786q0 107 79 185t189 78q111 0 190 -77.5t79 -185.5q0 -110 -79 -187t-190 -77t-189.5 77t-78.5 187zM543 597h414l-206 554zM645 1786q0 -46 32.5 -79t75.5 -33q45 0 77 33t32 79t-32 78t-77 32 q-43 0 -75.5 -32.5t-32.5 -77.5z" />
<glyph unicode="&#xc6;" horiz-adv-x="2358" d="M17 0l1038 1434h1165v-263h-777v-317h741v-262h-741v-330h785v-262h-1071v301h-585l-214 -301h-341zM760 564h397v556z" />
<glyph unicode="&#xc7;" horiz-adv-x="1546" d="M94 717q0 213 95.5 382.5t267.5 265t390 95.5q199 0 362 -85.5t252 -235.5l-246 -151q-63 95 -157 146.5t-213 51.5q-196 0 -324.5 -131t-128.5 -338q0 -211 129.5 -340t323.5 -129q240 0 374 196l233 -168q-99 -142 -255 -222.5t-350 -80.5q-218 0 -390 95.5 t-267.5 265.5t-95.5 383zM602 -329l115 336h264l-105 -336h-274z" />
<glyph unicode="&#xc8;" horiz-adv-x="1363" d="M163 0v1434h1063v-263h-777v-317h741v-262h-741v-330h785v-262h-1071zM340 1877h319l206 -323h-255z" />
<glyph unicode="&#xc9;" horiz-adv-x="1363" d="M163 0v1434h1063v-263h-777v-317h741v-262h-741v-330h785v-262h-1071zM505 1554l206 323h319l-270 -323h-255z" />
<glyph unicode="&#xca;" horiz-adv-x="1363" d="M163 0v1434h1063v-263h-777v-317h741v-262h-741v-330h785v-262h-1071zM308 1544l223 323h323l223 -323h-259l-126 157l-125 -157h-259z" />
<glyph unicode="&#xcb;" horiz-adv-x="1363" d="M163 0v1434h1063v-263h-777v-317h741v-262h-741v-330h785v-262h-1071zM301 1706q0 72 49 122t121 50t122 -50t50 -122t-50 -121t-122 -49t-121 49t-49 121zM742 1706q0 72 49 122t121 50t122 -50t50 -122t-50 -121t-122 -49t-121 49t-49 121z" />
<glyph unicode="&#xcc;" horiz-adv-x="611" d="M-46 1877h319l206 -323h-255zM163 0v1434h286v-1434h-286z" />
<glyph unicode="&#xcd;" horiz-adv-x="611" d="M119 1554l206 323h319l-270 -323h-255zM163 0v1434h286v-1434h-286z" />
<glyph unicode="&#xce;" horiz-adv-x="611" d="M-78 1544l223 323h323l223 -323h-259l-126 157l-125 -157h-259zM163 0v1434h286v-1434h-286z" />
<glyph unicode="&#xcf;" horiz-adv-x="611" d="M-85 1706q0 72 49 122t121 50t122 -50t50 -122t-50 -121t-122 -49t-121 49t-49 121zM163 0v1434h286v-1434h-286zM356 1706q0 72 49 122t121 50t122 -50t50 -122t-50 -121t-122 -49t-121 49t-49 121z" />
<glyph unicode="&#xd0;" horiz-adv-x="1700" d="M97 595v256h174v583h591q166 0 305 -51.5t235.5 -144.5t150.5 -227t54 -294t-54 -294t-150.5 -227t-235.5 -144.5t-305 -51.5h-591v595h-174zM557 267h302q219 0 334 124t115 326q0 205 -114.5 327t-334.5 122h-302v-315h356v-256h-356v-328z" />
<glyph unicode="&#xd1;" horiz-adv-x="1607" d="M163 0v1434h267l728 -958v958h287v-1434h-268l-727 957l-1 -957h-286zM408 1720q104 134 268 134q62 0 115 -18t90.5 -35.5t60.5 -17.5q54 0 127 68l142 -152q-55 -71 -120 -103t-149 -32q-61 0 -113 18t-90 35.5t-63 17.5q-54 0 -127 -67z" />
<glyph unicode="&#xd2;" horiz-adv-x="1694" d="M94 717q0 212 95.5 381.5t267.5 265.5t390 96q217 0 389.5 -96t268.5 -265.5t96 -381.5t-96 -382t-268.5 -266t-389.5 -96q-218 0 -390 96t-267.5 266t-95.5 382zM392 717q0 -208 128 -338.5t327 -130.5q200 0 327.5 130.5t127.5 338.5t-127.5 338.5t-327.5 130.5 q-199 0 -327 -130.5t-128 -338.5zM495 1877h319l206 -323h-255z" />
<glyph unicode="&#xd3;" horiz-adv-x="1694" d="M94 717q0 212 95.5 381.5t267.5 265.5t390 96q217 0 389.5 -96t268.5 -265.5t96 -381.5t-96 -382t-268.5 -266t-389.5 -96q-218 0 -390 96t-267.5 266t-95.5 382zM392 717q0 -208 128 -338.5t327 -130.5q200 0 327.5 130.5t127.5 338.5t-127.5 338.5t-327.5 130.5 q-199 0 -327 -130.5t-128 -338.5zM659 1554l206 323h320l-271 -323h-255z" />
<glyph unicode="&#xd4;" horiz-adv-x="1694" d="M94 717q0 212 95.5 381.5t267.5 265.5t390 96q217 0 389.5 -96t268.5 -265.5t96 -381.5t-96 -382t-268.5 -266t-389.5 -96q-218 0 -390 96t-267.5 266t-95.5 382zM392 717q0 -208 128 -338.5t327 -130.5q200 0 327.5 130.5t127.5 338.5t-127.5 338.5t-327.5 130.5 q-199 0 -327 -130.5t-128 -338.5zM463 1544l223 323h323l223 -323h-259l-126 157l-125 -157h-259z" />
<glyph unicode="&#xd5;" horiz-adv-x="1694" d="M94 717q0 212 95.5 381.5t267.5 265.5t390 96q217 0 389.5 -96t268.5 -265.5t96 -381.5t-96 -382t-268.5 -266t-389.5 -96q-218 0 -390 96t-267.5 266t-95.5 382zM392 717q0 -208 128 -338.5t327 -130.5q200 0 327.5 130.5t127.5 338.5t-127.5 338.5t-327.5 130.5 q-199 0 -327 -130.5t-128 -338.5zM445 1720q104 134 269 134q62 0 115 -18t90.5 -35.5t60.5 -17.5q54 0 127 68l142 -152q-55 -71 -120 -103t-149 -32q-61 0 -113 18t-90 35.5t-63 17.5q-54 0 -127 -67z" />
<glyph unicode="&#xd6;" horiz-adv-x="1694" d="M94 717q0 212 95.5 381.5t267.5 265.5t390 96q217 0 389.5 -96t268.5 -265.5t96 -381.5t-96 -382t-268.5 -266t-389.5 -96q-218 0 -390 96t-267.5 266t-95.5 382zM392 717q0 -208 128 -338.5t327 -130.5q200 0 327.5 130.5t127.5 338.5t-127.5 338.5t-327.5 130.5 q-199 0 -327 -130.5t-128 -338.5zM456 1706q0 72 49 122t121 50t122 -50t50 -122t-50 -121t-122 -49t-121 49t-49 121zM897 1706q0 72 49 122t121 50t122 -50t50 -122t-50 -121t-122 -49t-121 49t-49 121z" />
<glyph unicode="&#xd7;" d="M164 828l167 167l285 -285l284 283l163 -163l-284 -283l286 -286l-167 -167l-286 286l-283 -284l-163 163l284 284z" />
<glyph unicode="&#xd8;" horiz-adv-x="1694" d="M94 717q0 212 95.5 381.5t267.5 265.5t390 96q250 0 444 -131l130 130l172 -172l-128 -128q136 -195 136 -442q0 -212 -96 -382t-268.5 -266t-389.5 -96q-250 0 -440 128l-127 -127l-172 171l123 124q-137 191 -137 448zM392 717q0 -134 53 -234l640 640q-109 63 -238 63 q-199 0 -327 -130.5t-128 -338.5zM612 307q100 -59 235 -59q200 0 327.5 130.5t127.5 338.5q0 121 -51 228z" />
<glyph unicode="&#xd9;" horiz-adv-x="1527" d="M146 572v862h287v-847q0 -170 88.5 -254.5t242.5 -84.5t242.5 84.5t88.5 254.5v847h286v-862q0 -194 -79 -330t-216 -202t-322 -66q-282 0 -450 154.5t-168 443.5zM412 1877h319l206 -323h-255z" />
<glyph unicode="&#xda;" horiz-adv-x="1527" d="M146 572v862h287v-847q0 -170 88.5 -254.5t242.5 -84.5t242.5 84.5t88.5 254.5v847h286v-862q0 -194 -79 -330t-216 -202t-322 -66q-282 0 -450 154.5t-168 443.5zM577 1554l205 323h320l-271 -323h-254z" />
<glyph unicode="&#xdb;" horiz-adv-x="1527" d="M146 572v862h287v-847q0 -170 88.5 -254.5t242.5 -84.5t242.5 84.5t88.5 254.5v847h286v-862q0 -194 -79 -330t-216 -202t-322 -66q-282 0 -450 154.5t-168 443.5zM380 1544l223 323h323l223 -323h-259l-126 157l-125 -157h-259z" />
<glyph unicode="&#xdc;" horiz-adv-x="1527" d="M146 572v862h287v-847q0 -170 88.5 -254.5t242.5 -84.5t242.5 84.5t88.5 254.5v847h286v-862q0 -194 -79 -330t-216 -202t-322 -66q-282 0 -450 154.5t-168 443.5zM373 1706q0 72 49 122t121 50t122 -50t50 -122t-50 -121t-122 -49t-121 49t-49 121zM814 1706 q0 72 49 122t121 50t122 -50t50 -122t-50 -121t-122 -49t-121 49t-49 121z" />
<glyph unicode="&#xdd;" horiz-adv-x="1394" d="M6 1434h336l360 -609l361 609h326l-545 -869v-565h-286v566zM514 1554l206 323h319l-270 -323h-255z" />
<glyph unicode="&#xde;" horiz-adv-x="1352" d="M163 0v1434h286v-246h299q252 0 388 -122.5t136 -334.5q0 -210 -135.5 -331t-386.5 -121h-301v-279h-286zM449 540h293q237 0 237 191q0 193 -237 193h-293v-384z" />
<glyph unicode="&#xdf;" horiz-adv-x="1262" d="M133 0v1029q0 74 16.5 140.5t55 128t96 105.5t145 70.5t196.5 26.5q222 0 361.5 -119.5t139.5 -297.5q0 -123 -60.5 -215t-156.5 -125q110 -30 184.5 -124.5t74.5 -212.5q0 -197 -129.5 -314.5t-336.5 -117.5q-131 0 -213 27l37 230q66 -23 135 -23q111 0 172 53.5 t61 154.5q0 107 -73 154.5t-211 47.5h-38v231h10q271 0 271 202q0 98 -65.5 150.5t-168.5 52.5q-113 0 -175 -65t-62 -172v-1017h-266z" />
<glyph unicode="&#xe0;" horiz-adv-x="1257" d="M79 497q0 223 137 372.5t343 149.5q188 0 297 -136v109h261v-992h-261v110q-111 -136 -297 -136q-205 0 -342.5 149.5t-137.5 373.5zM281 1457h319l206 -322h-255zM352 497q0 -117 70.5 -195.5t185.5 -78.5q114 0 185 77.5t71 196.5t-71 196t-185 77q-115 0 -185.5 -78 t-70.5 -195z" />
<glyph unicode="&#xe1;" horiz-adv-x="1257" d="M79 497q0 223 137 372.5t343 149.5q188 0 297 -136v109h261v-992h-261v110q-111 -136 -297 -136q-205 0 -342.5 149.5t-137.5 373.5zM352 497q0 -117 70.5 -195.5t185.5 -78.5q114 0 185 77.5t71 196.5t-71 196t-185 77q-115 0 -185.5 -78t-70.5 -195zM454 1135l205 322 h320l-270 -322h-255z" />
<glyph unicode="&#xe2;" horiz-adv-x="1257" d="M79 497q0 223 137 372.5t343 149.5q188 0 297 -136v109h261v-992h-261v110q-111 -136 -297 -136q-205 0 -342.5 149.5t-137.5 373.5zM248 1124l223 323h323l223 -323h-259l-126 157l-125 -157h-259zM352 497q0 -117 70.5 -195.5t185.5 -78.5q114 0 185 77.5t71 196.5 t-71 196t-185 77q-115 0 -185.5 -78t-70.5 -195z" />
<glyph unicode="&#xe3;" horiz-adv-x="1257" d="M79 497q0 223 137 372.5t343 149.5q188 0 297 -136v109h261v-992h-261v110q-111 -136 -297 -136q-205 0 -342.5 149.5t-137.5 373.5zM228 1300q105 135 269 135q62 0 115 -18t90.5 -36t60.5 -18q53 0 127 69l142 -153q-55 -71 -120 -103t-149 -32q-61 0 -113 18t-90 35.5 t-63 17.5q-54 0 -127 -67zM352 497q0 -117 70.5 -195.5t185.5 -78.5q114 0 185 77.5t71 196.5t-71 196t-185 77q-115 0 -185.5 -78t-70.5 -195z" />
<glyph unicode="&#xe4;" horiz-adv-x="1257" d="M79 497q0 223 137 372.5t343 149.5q188 0 297 -136v109h261v-992h-261v110q-111 -136 -297 -136q-205 0 -342.5 149.5t-137.5 373.5zM239 1286q0 72 49 122t121 50t122 -50t50 -122t-50 -121t-122 -49t-121 49t-49 121zM352 497q0 -117 70.5 -195.5t185.5 -78.5 q114 0 185 77.5t71 196.5t-71 196t-185 77q-115 0 -185.5 -78t-70.5 -195zM680 1286q0 72 49 122t121 50t122 -50t50 -122t-50 -121t-122 -49t-121 49t-49 121z" />
<glyph unicode="&#xe5;" horiz-adv-x="1257" d="M79 497q0 223 137 372.5t343 149.5q188 0 297 -136v109h261v-992h-261v110q-111 -136 -297 -136q-205 0 -342.5 149.5t-137.5 373.5zM352 497q0 -117 70.5 -195.5t185.5 -78.5q114 0 185 77.5t71 196.5t-71 196t-185 77q-115 0 -185.5 -78t-70.5 -195zM364 1366 q0 108 78.5 185.5t188.5 77.5q111 0 190 -77.5t79 -185.5q0 -110 -79 -187t-190 -77t-189 77t-78 187zM523 1366q0 -46 32.5 -79t75.5 -33q45 0 77 33t32 79t-32 78.5t-77 32.5q-43 0 -75.5 -33t-32.5 -78z" />
<glyph unicode="&#xe6;" horiz-adv-x="1788" d="M79 291q0 141 111 221t304 80h234q-14 191 -222 191q-140 0 -274 -91l-97 209q80 56 187 87t220 31q232 0 343 -147q124 147 351 147q213 0 344 -144t131 -377q0 -50 -5 -90h-704q19 -103 87.5 -154.5t166.5 -51.5q138 0 252 95l157 -172q-169 -151 -427 -151 q-243 0 -384 153q-75 -71 -163.5 -112t-220.5 -41q-185 0 -288 87t-103 230zM356 301q0 -47 40 -79.5t115 -32.5q67 0 132 28.5t113 81.5q-19 61 -24 113h-200q-90 0 -133 -31.5t-43 -79.5zM1002 587h442q-19 98 -74.5 149.5t-142.5 51.5q-188 0 -225 -201z" />
<glyph unicode="&#xe7;" horiz-adv-x="1057" d="M79 497q0 227 146.5 374.5t381.5 147.5q125 0 227 -48.5t171 -139.5l-193 -160q-91 99 -212 99q-106 0 -177.5 -76t-71.5 -197q0 -122 71 -198t177 -76q122 0 216 101l191 -163q-146 -187 -399 -187q-235 0 -381.5 148t-146.5 375zM356 -329l114 336h250l-106 -336h-258z " />
<glyph unicode="&#xe8;" horiz-adv-x="1140" d="M79 494q0 233 139.5 379t362.5 146q214 0 348 -144.5t134 -376.5q0 -50 -5 -90h-704q19 -103 87.5 -154.5t167.5 -51.5q137 0 251 95l157 -172q-167 -151 -423 -151q-228 0 -371.5 144t-143.5 376zM226 1457h320l206 -322h-255zM355 590h440q-19 96 -74 147t-142 51 q-93 0 -149.5 -51.5t-74.5 -146.5z" />
<glyph unicode="&#xe9;" horiz-adv-x="1140" d="M79 494q0 233 139.5 379t362.5 146q214 0 348 -144.5t134 -376.5q0 -50 -5 -90h-704q19 -103 87.5 -154.5t167.5 -51.5q137 0 251 95l157 -172q-167 -151 -423 -151q-228 0 -371.5 144t-143.5 376zM355 590h440q-19 96 -74 147t-142 51q-93 0 -149.5 -51.5t-74.5 -146.5z M399 1135l206 322h320l-271 -322h-255z" />
<glyph unicode="&#xea;" horiz-adv-x="1140" d="M79 494q0 233 139.5 379t362.5 146q214 0 348 -144.5t134 -376.5q0 -50 -5 -90h-704q19 -103 87.5 -154.5t167.5 -51.5q137 0 251 95l157 -172q-167 -151 -423 -151q-228 0 -371.5 144t-143.5 376zM194 1124l223 323h322l224 -323h-260l-125 157l-125 -157h-259zM355 590 h440q-19 96 -74 147t-142 51q-93 0 -149.5 -51.5t-74.5 -146.5z" />
<glyph unicode="&#xeb;" horiz-adv-x="1140" d="M79 494q0 233 139.5 379t362.5 146q214 0 348 -144.5t134 -376.5q0 -50 -5 -90h-704q19 -103 87.5 -154.5t167.5 -51.5q137 0 251 95l157 -172q-167 -151 -423 -151q-228 0 -371.5 144t-143.5 376zM184 1286q0 72 49 122t121 50t122 -50t50 -122t-50 -121t-122 -49 t-121 49t-49 121zM355 590h440q-19 96 -74 147t-142 51q-93 0 -149.5 -51.5t-74.5 -146.5zM626 1286q0 72 49 122t121 50t122 -50t50 -122t-50 -121t-122 -49t-121 49t-49 121z" />
<glyph unicode="&#xec;" horiz-adv-x="547" d="M-78 1457h320l205 -322h-254zM140 0v992h268v-992h-268z" />
<glyph unicode="&#xed;" horiz-adv-x="547" d="M95 1135l206 322h320l-271 -322h-255zM140 0v992h268v-992h-268z" />
<glyph unicode="&#xee;" horiz-adv-x="547" d="M-111 1124l224 323h322l223 -323h-259l-126 157l-125 -157h-259zM140 0v992h268v-992h-268z" />
<glyph unicode="&#xef;" horiz-adv-x="547" d="M-120 1286q0 72 49 122t121 50t122 -50t50 -122t-50 -121t-122 -49t-121 49t-49 121zM140 0v992h268v-992h-268zM322 1286q0 72 49 122t121 50t122 -50t50 -122t-50 -121t-122 -49t-121 49t-49 121z" />
<glyph unicode="&#xf0;" horiz-adv-x="1222" d="M79 470q0 213 137.5 354.5t340.5 141.5q145 0 253 -89q-72 134 -215 242l-230 -141l-90 142l162 101q-48 28 -163 79l142 190q139 -55 252 -130l200 124l90 -144l-147 -91q170 -154 252 -350t82 -398q0 -226 -151.5 -376.5t-382.5 -150.5q-228 0 -380 142t-152 354z M351 471q0 -113 74.5 -185.5t188.5 -72.5q115 0 190 72.5t75 185.5q0 115 -75 187t-190 72q-114 0 -188.5 -72t-74.5 -187z" />
<glyph unicode="&#xf1;" horiz-adv-x="1210" d="M140 0v992h260v-116q97 143 292 143q170 0 278 -107.5t108 -279.5v-632h-267v546q0 107 -50.5 164.5t-143.5 57.5q-91 0 -150 -58t-59 -166v-544h-268zM217 1300q105 135 268 135q62 0 115.5 -18t91 -36t60.5 -18q53 0 127 69l142 -153q-55 -71 -120 -103t-149 -32 q-61 0 -113.5 18t-90.5 35.5t-63 17.5q-54 0 -127 -67z" />
<glyph unicode="&#xf2;" horiz-adv-x="1229" d="M79 497q0 111 40.5 207.5t111 165.5t170 109t213.5 40q232 0 385 -149t153 -373t-153 -373.5t-385 -149.5q-152 0 -274.5 68t-191.5 187.5t-69 267.5zM263 1457h320l205 -322h-254zM351 497q0 -120 74.5 -197t188.5 -77q115 0 190 77t75 197t-75 196.5t-190 76.5 q-114 0 -188.5 -76.5t-74.5 -196.5z" />
<glyph unicode="&#xf3;" horiz-adv-x="1229" d="M79 497q0 111 40.5 207.5t111 165.5t170 109t213.5 40q232 0 385 -149t153 -373t-153 -373.5t-385 -149.5q-152 0 -274.5 68t-191.5 187.5t-69 267.5zM351 497q0 -120 74.5 -197t188.5 -77q115 0 190 77t75 197t-75 196.5t-190 76.5q-114 0 -188.5 -76.5t-74.5 -196.5z M436 1135l206 322h320l-271 -322h-255z" />
<glyph unicode="&#xf4;" horiz-adv-x="1229" d="M79 497q0 111 40.5 207.5t111 165.5t170 109t213.5 40q232 0 385 -149t153 -373t-153 -373.5t-385 -149.5q-152 0 -274.5 68t-191.5 187.5t-69 267.5zM230 1124l224 323h322l223 -323h-259l-126 157l-125 -157h-259zM351 497q0 -120 74.5 -197t188.5 -77q115 0 190 77 t75 197t-75 196.5t-190 76.5q-114 0 -188.5 -76.5t-74.5 -196.5z" />
<glyph unicode="&#xf5;" horiz-adv-x="1229" d="M79 497q0 111 40.5 207.5t111 165.5t170 109t213.5 40q232 0 385 -149t153 -373t-153 -373.5t-385 -149.5q-152 0 -274.5 68t-191.5 187.5t-69 267.5zM211 1300q105 135 268 135q62 0 115 -18t90.5 -36t60.5 -18q53 0 127 69l143 -153q-104 -135 -270 -135q-61 0 -113 18 t-90 35.5t-63 17.5q-54 0 -127 -67zM351 497q0 -120 74.5 -197t188.5 -77q115 0 190 77t75 197t-75 196.5t-190 76.5q-114 0 -188.5 -76.5t-74.5 -196.5z" />
<glyph unicode="&#xf6;" horiz-adv-x="1229" d="M79 497q0 111 40.5 207.5t111 165.5t170 109t213.5 40q232 0 385 -149t153 -373t-153 -373.5t-385 -149.5q-152 0 -274.5 68t-191.5 187.5t-69 267.5zM221 1286q0 72 49 122t121 50t122 -50t50 -122t-50 -121t-122 -49t-121 49t-49 121zM351 497q0 -120 74.5 -197 t188.5 -77q115 0 190 77t75 197t-75 196.5t-190 76.5q-114 0 -188.5 -76.5t-74.5 -196.5zM663 1286q0 72 49 122t121 50t122 -50t50 -122t-50 -121t-122 -49t-121 49t-49 121z" />
<glyph unicode="&#xf8;" horiz-adv-x="1229" d="M68 99l99 101q-88 128 -88 297q0 224 152.5 373t383.5 149q161 0 292 -79l105 103l152 -151l-100 -100q88 -128 88 -295q0 -224 -153 -373.5t-384 -149.5q-160 0 -290 77l-104 -103zM346 497q0 -56 20 -111l365 366q-58 24 -116 24q-116 0 -192.5 -78.5t-76.5 -200.5z M501 241q58 -24 114 -24q116 0 193.5 79t77.5 201q0 53 -20 108z" />
<glyph unicode="&#xf9;" horiz-adv-x="1203" d="M132 423v569h267v-546q0 -114 55 -168.5t148 -54.5q92 0 147.5 54.5t55.5 168.5v546h266v-569q0 -114 -38 -202t-103.5 -140.5t-148.5 -79.5t-179 -27t-179 27t-149 79.5t-104 140.5t-38 202zM251 1457h319l206 -322h-255z" />
<glyph unicode="&#xfa;" horiz-adv-x="1203" d="M132 423v569h267v-546q0 -114 55 -168.5t148 -54.5q92 0 147.5 54.5t55.5 168.5v546h266v-569q0 -114 -38 -202t-103.5 -140.5t-148.5 -79.5t-179 -27t-179 27t-149 79.5t-104 140.5t-38 202zM424 1135l206 322h319l-270 -322h-255z" />
<glyph unicode="&#xfb;" horiz-adv-x="1203" d="M132 423v569h267v-546q0 -114 55 -168.5t148 -54.5q92 0 147.5 54.5t55.5 168.5v546h266v-569q0 -114 -38 -202t-103.5 -140.5t-148.5 -79.5t-179 -27t-179 27t-149 79.5t-104 140.5t-38 202zM218 1124l223 323h323l223 -323h-259l-126 157l-125 -157h-259z" />
<glyph unicode="&#xfc;" horiz-adv-x="1203" d="M132 423v569h267v-546q0 -114 55 -168.5t148 -54.5q92 0 147.5 54.5t55.5 168.5v546h266v-569q0 -114 -38 -202t-103.5 -140.5t-148.5 -79.5t-179 -27t-179 27t-149 79.5t-104 140.5t-38 202zM209 1286q0 72 49 122t121 50t122 -50t50 -122t-50 -121t-122 -49t-121 49 t-49 121zM650 1286q0 72 49 122t121 50t122 -50t50 -122t-50 -121t-122 -49t-121 49t-49 121z" />
<glyph unicode="&#xfd;" horiz-adv-x="1155" d="M13 992h303l273 -510l264 510h293l-759 -1406h-293l347 625zM407 1135l205 322h320l-270 -322h-255z" />
<glyph unicode="&#xfe;" horiz-adv-x="1256" d="M140 -410v1885h268v-584q110 128 289 128q205 0 343.5 -149.5t138.5 -372.5t-137.5 -373t-343.5 -150q-181 0 -290 127v-511h-268zM393 497q0 -119 71 -196.5t184 -77.5q116 0 186 78.5t70 195.5t-70 195t-186 78q-113 0 -184 -77t-71 -196z" />
<glyph unicode="&#xff;" horiz-adv-x="1155" d="M13 992h303l273 -510l264 510h293l-759 -1406h-293l347 625zM191 1286q0 72 49 122t121 50t122.5 -50t50.5 -122t-50.5 -121t-122.5 -49t-121 49t-49 121zM633 1286q0 72 49 122t121 50t122 -50t50 -122t-50 -121t-122 -49t-121 49t-49 121z" />
<glyph unicode="&#x152;" horiz-adv-x="2272" d="M94 717q0 324 204 520.5t541 196.5h1295v-263h-777v-317h741v-262h-741v-330h785v-262h-1303q-337 0 -541 196.5t-204 520.5zM392 717q0 -205 115 -327.5t335 -122.5h229v899h-229q-219 0 -334.5 -123.5t-115.5 -325.5z" />
<glyph unicode="&#x153;" horiz-adv-x="1940" d="M79 497q0 111 40.5 207.5t111 165.5t170 109t213.5 40q119 0 219.5 -46.5t171.5 -130.5q136 177 375 177q215 0 349 -144.5t134 -376.5q0 -50 -5 -90h-704q19 -103 87.5 -154.5t166.5 -51.5q138 0 252 95l157 -172q-169 -151 -427 -151q-122 0 -221 46t-164 131 q-71 -84 -171.5 -130.5t-219.5 -46.5q-152 0 -274.5 68t-191.5 187.5t-69 267.5zM351 497q0 -120 74.5 -197t188.5 -77q115 0 190 77t75 197t-75 196.5t-190 76.5q-114 0 -188.5 -76.5t-74.5 -196.5zM1155 590h439q-20 96 -74.5 147t-141.5 51q-185 0 -223 -198z" />
<glyph unicode="&#x178;" horiz-adv-x="1394" d="M6 1434h336l360 -609l361 609h326l-545 -869v-565h-286v566zM310 1706q0 72 49 122t121 50t122 -50t50 -122t-50 -121t-122 -49t-121 49t-49 121zM752 1706q0 72 49 122t121 50t122 -50t50 -122t-50 -121t-122 -49t-121 49t-49 121z" />
<glyph unicode="&#x2000;" horiz-adv-x="1024" />
<glyph unicode="&#x2001;" horiz-adv-x="2049" />
<glyph unicode="&#x2002;" horiz-adv-x="1024" />
<glyph unicode="&#x2003;" horiz-adv-x="2049" />
<glyph unicode="&#x2004;" horiz-adv-x="683" />
<glyph unicode="&#x2005;" horiz-adv-x="512" />
<glyph unicode="&#x2006;" horiz-adv-x="341" />
<glyph unicode="&#x2007;" horiz-adv-x="341" />
<glyph unicode="&#x2008;" horiz-adv-x="256" />
<glyph unicode="&#x2009;" horiz-adv-x="409" />
<glyph unicode="&#x200a;" horiz-adv-x="113" />
<glyph unicode="&#x2010;" horiz-adv-x="832" d="M114 428v234h605v-234h-605z" />
<glyph unicode="&#x2011;" horiz-adv-x="832" d="M114 428v234h605v-234h-605z" />
<glyph unicode="&#x2012;" horiz-adv-x="832" d="M114 428v234h605v-234h-605z" />
<glyph unicode="&#x2013;" horiz-adv-x="1185" d="M97 431v228h992v-228h-992z" />
<glyph unicode="&#x2014;" horiz-adv-x="1634" d="M49 431v228h1536v-228h-1536z" />
<glyph unicode="&#x2018;" horiz-adv-x="546" d="M92 864l144 611h225l-69 -611h-300z" />
<glyph unicode="&#x2019;" horiz-adv-x="546" d="M86 864l69 611h300l-144 -611h-225z" />
<glyph unicode="&#x201a;" horiz-adv-x="546" d="M86 -287l69 611h300l-144 -611h-225z" />
<glyph unicode="&#x201c;" horiz-adv-x="991" d="M92 864l144 611h225l-69 -611h-300zM537 864l143 611h225l-68 -611h-300z" />
<glyph unicode="&#x201d;" horiz-adv-x="990" d="M86 864l69 611h300l-144 -611h-225zM529 864l69 611h300l-143 -611h-226z" />
<glyph unicode="&#x201e;" horiz-adv-x="990" d="M86 -287l69 611h300l-144 -611h-225zM529 -287l69 611h300l-143 -611h-226z" />
<glyph unicode="&#x2022;" horiz-adv-x="904" d="M128 545q0 135 95 229.5t230 94.5q134 0 229 -94.5t95 -229.5t-95 -230t-229 -95q-135 0 -230 95t-95 230z" />
<glyph unicode="&#x202f;" horiz-adv-x="409" />
<glyph unicode="&#x2039;" horiz-adv-x="653" d="M90 545l198 399h269l-198 -399l198 -400h-269z" />
<glyph unicode="&#x203a;" horiz-adv-x="653" d="M96 146l198 400l-198 399h270l197 -399l-197 -400h-270z" />
<glyph unicode="&#x205f;" horiz-adv-x="512" />
<glyph unicode="&#x20ac;" horiz-adv-x="1433" d="M77 459v189h147q-2 22 -2 34v69q0 12 2 34h-147v190h178q64 227 232.5 355.5t406.5 128.5q277 0 465 -194l-158 -203q-131 146 -310 146q-118 0 -206 -61t-137 -172h520v-190h-565q-3 -35 -3 -68q0 -36 3 -69h565v-189h-519q50 -112 138.5 -173t204.5 -61q179 0 311 146 l152 -199q-188 -198 -461 -198q-238 0 -406.5 129t-232.5 356h-178z" />
<glyph unicode="&#x2122;" horiz-adv-x="1658" d="M66 1268v166h599v-166h-209v-497h-182v497h-208zM777 771v663h255l154 -398l152 398h255v-663h-182v429l-134 -367h-182l-138 368v-430h-180z" />
<glyph unicode="&#x25fc;" horiz-adv-x="993" d="M0 0v993h993v-993h-993z" />
<glyph unicode="&#xfb01;" horiz-adv-x="1417" d="M42 755v237h185v123q0 177 93 281t263 104q168 0 305 -89l-107 -208q-84 48 -170 48q-116 0 -116 -139v-120h308v-237h-308v-755h-268v755h-185zM972 1317q0 72 49 122t121 50q71 0 121 -50t50 -122t-49.5 -121t-121.5 -49t-121 49t-49 121zM1010 0v992h267v-992h-267z " />
<glyph unicode="&#xfb02;" horiz-adv-x="1417" d="M42 755v237h185v123q0 177 93 281t263 104q168 0 305 -89l-107 -208q-84 48 -170 48q-116 0 -116 -139v-120h308v-237h-308v-755h-268v755h-185zM1010 0v1475h267v-1475h-267z" />
<glyph unicode="&#xfb03;" horiz-adv-x="2263" d="M42 755v237h185v123q0 177 93 281t263 104q168 0 305 -89l-107 -208q-84 48 -170 48q-116 0 -116 -139v-120h308v-237h-308v-755h-268v755h-185zM888 755v237h185v123q0 177 92.5 281t262.5 104q169 0 306 -89l-107 -208q-84 48 -170 48q-117 0 -117 -139v-120h309v-237 h-309v-755h-267v755h-185zM1818 1317q0 72 49 122t121 50q71 0 121 -50t50 -122t-49.5 -121t-121.5 -49t-121 49t-49 121zM1855 0v992h268v-992h-268z" />
<glyph unicode="&#xfb04;" horiz-adv-x="2263" d="M42 755v237h185v123q0 177 93 281t263 104q168 0 305 -89l-107 -208q-84 48 -170 48q-116 0 -116 -139v-120h308v-237h-308v-755h-268v755h-185zM888 755v237h185v123q0 177 92.5 281t262.5 104q169 0 306 -89l-107 -208q-84 48 -170 48q-117 0 -117 -139v-120h309v-237 h-309v-755h-267v755h-185zM1855 0v1475h268v-1475h-268z" />
</font>
</defs>
</svg>
